<?xml version="1.0" encoding="UTF-8"?>
<svg width="40px" height="24px" viewBox="0 0 40 24" version="1.1" xmlns="http://www.w3.org/2000/svg" xmlns:xlink="http://www.w3.org/1999/xlink">
    <!-- Generator: Sketch 52.2 (67145) - http://www.bohemiancoding.com/sketch -->
    <title>1</title>
    <desc>Created with Sketch.</desc>
    <g id="切图" stroke="none" stroke-width="1" fill="none" fill-rule="evenodd">
        <g id="分组-8">
            <path d="M32.4699387,-3.55271368e-15 L27.023837,14.6227119 L25.4092607,7.08644068 L25.3448539,7.08644068 L18.6604472,7.08644068 L18.4816336,7.08644068 L15.863837,14.1149153 L15.2363794,11.1855932 C14.7926506,9.11457627 10.8568878,8.29881356 7.03112513,8.57271186 L10.2580743,23.8022034 L12.2562099,23.8022034 L12.2558709,23.8027119 L19.1185828,23.8027119 L21.0843455,18.5249153 L22.2026506,23.8022034 L23.6051929,23.8022034 L31.063159,23.8027119 L39.9287522,-3.55271368e-15 L32.4699387,-3.55271368e-15 Z" id="Fill-2" fill="#CACAD9"></path>
            <path d="M15.2362607,11.1856102 C15.1094811,10.5923898 13.7123624,4.07154237 13.7123624,4.07154237 C12.8396506,0.000186440678 10.6174472,0.000186440678 8.32371835,0.000186440678 L0.113887841,0.000186440678 C0.113887841,0.000186440678 -1.36780707,6.94645763 6.35761665,6.94645763 L6.64659971,6.94645763 C9.40897259,6.94645763 14.2433794,6.54916949 15.2362607,11.1856102" id="Fill-6" fill="#1ACA8E"></path>
        </g>
    </g>
</svg>