<?xml version="1.0" encoding="UTF-8"?>
<svg width="40px" height="24px" viewBox="0 0 40 24" version="1.1" xmlns="http://www.w3.org/2000/svg" xmlns:xlink="http://www.w3.org/1999/xlink">
    <!-- Generator: Sketch 52.2 (67145) - http://www.bohemiancoding.com/sketch -->
    <title>2</title>
    <desc>Created with Sketch.</desc>
    <g id="切图" stroke="none" stroke-width="1" fill="none" fill-rule="evenodd">
        <polygon id="Fill-1" fill="#FFFFFF" points="14.2039831 6.5359661 14.2039831 6.5359661 14.5741525 8.2639322"></polygon>
        <path d="M32.4698305,0.169440678 L39.9286441,0.169440678 L31.0630508,23.9721525 L23.6047458,23.9721525 L23.6050847,23.9716441 L22.2025424,23.9716441 L21.0842373,18.6943559 L19.1184746,23.9721525 L12.2557627,23.9721525 L12.2561017,23.9716441 L10.2579661,23.9716441 L7.03101695,8.74215254 C10.8567797,8.46825424 14.7925424,9.28401695 15.2361017,11.3550339 L15.2362712,11.3550339 L15.8637288,14.2843559 L18.4815254,7.25588136 L18.660339,7.25588136 L25.3447458,7.25588136 L25.4091525,7.25588136 L27.0237288,14.7921525 L32.4698305,0.169440678 Z M15.2361525,11.3550508 C14.2432712,6.71861017 9.40886441,7.11589831 6.64649153,7.11589831 L6.35750847,7.11589831 C-1.36791525,7.11589831 0.113779661,0.169627119 0.113779661,0.169627119 L8.32361017,0.169627119 C10.617339,0.169627119 12.8395424,0.169627119 13.7122542,4.24098305 C13.7122542,4.24098305 15.1093729,10.7618305 15.2361525,11.3550508 Z" id="合并形状" fill="#CACAD9"></path>
    </g>
</svg>