<?xml version="1.0" encoding="UTF-8"?>
<svg width="26px" height="26px" viewBox="0 0 26 26" version="1.1" xmlns="http://www.w3.org/2000/svg" xmlns:xlink="http://www.w3.org/1999/xlink">
    <!-- Generator: Sketch 52.2 (67145) - http://www.bohemiancoding.com/sketch -->
    <title>切片</title>
    <desc>Created with Sketch.</desc>
    <g id="切图" stroke="none" stroke-width="1" fill="none" fill-rule="evenodd">
        <path d="M25.6239334,10.0401665 C25.3831426,9.05806452 25.0395421,8.12466181 24.5958377,7.23725286 C24.1494277,6.35254943 23.5975026,5.5219563 22.9400624,4.75359001 C22.2826223,3.98251821 21.5413111,3.28449532 20.7323621,2.67304891 C20.3075963,2.3673257 19.8476587,2.25098855 19.3552549,2.32674298 C18.8601457,2.40520291 18.4597294,2.64599376 18.1513007,3.05182102 C17.842872,3.45764828 17.7265349,3.9094693 17.8022893,4.40998959 C17.8807492,4.91050989 18.1215401,5.31633715 18.5300728,5.62206035 C19.7475546,6.5094693 20.6809573,7.59708637 21.330281,8.88761707 C21.9796046,10.1781478 22.3015609,11.566077 22.3015609,13.0486993 C22.3015609,14.3202914 22.06077,15.5188345 21.5737773,16.6470343 C21.0921956,17.7725286 20.4293444,18.7573361 19.5852237,19.5933403 C18.741103,20.4293444 17.7562955,21.0949011 16.6253902,21.5873049 C15.4917794,22.0770031 14.2878252,22.3204995 13.0081165,22.3204995 C11.7311134,22.3204995 10.5271592,22.0742976 9.39354839,21.5845994 C8.25993757,21.0949011 7.28324662,20.4266389 6.43912591,19.5879292 C5.59771072,18.7519251 4.92944849,17.7671176 4.43704475,16.6416233 C3.94193548,15.516129 3.69573361,14.3148803 3.69573361,13.0432882 C3.69573361,11.5417274 4.04474506,10.1186264 4.74006243,8.78210198 C5.43808533,7.44557752 6.41477627,6.34172737 7.67013528,5.47325702 C8.09490114,5.18376691 8.35463059,4.78876171 8.43850156,4.28824142 C8.52507804,3.78772112 8.42497399,3.32507804 8.13277836,2.90031217 C7.84058273,2.49448491 7.44557752,2.24828304 6.94235172,2.16441207 C6.44453694,2.07783559 5.97918835,2.17793965 5.55442248,2.46742976 C4.68595213,3.0842872 3.9094693,3.78231009 3.23309053,4.56420395 C2.55671176,5.34609781 1.97502601,6.18751301 1.49073881,7.09115505 C1.00645161,8.00020812 0.635796046,8.966077 0.389594173,9.96711759 C0.140686785,10.9762747 0.0108220604,12.0043704 0.0108220604,13.0432882 C0.0108220604,14.8343392 0.354422477,16.5144641 1.03891779,18.0863684 C1.72611863,19.6555671 2.65681582,21.0245578 3.82559834,22.1879292 C4.99708637,23.3540062 6.36878252,24.2792924 7.94609781,24.9610822 C9.52341311,25.6455775 11.2116545,25.9864724 13.0108221,25.9864724 C14.791051,25.9864724 16.4684703,25.6455775 18.0484912,24.9610822 C19.6231009,24.2765869 21.0029136,23.3513007 22.1825182,22.1879292 C23.3621228,21.0218522 24.2901145,19.6555671 24.9691988,18.0863684 C25.6455775,16.5171696 25.9837669,14.8343392 25.9837669,13.0432882 C25.9864724,12.0233091 25.8647242,11.0222685 25.6239334,10.0401665 Z M13.1217482,13.8468262 C13.5952133,13.8468262 14.0037461,13.6790843 14.33923,13.3436004 C14.6774194,13.0081165 14.8451613,12.6022893 14.8451613,12.1288241 L14.8451613,1.75587929 C14.8451613,1.28511967 14.6774194,0.873881374 14.33923,0.527575442 C14.0010406,0.183975026 13.5952133,0.00811654527 13.1217482,0.00811654527 C12.6266389,0.00811654527 12.2126951,0.181269511 11.8745057,0.527575442 C11.5363163,0.871175858 11.3685744,1.28241415 11.3685744,1.75587929 L11.3685744,12.1261186 C11.3685744,12.5968783 11.5363163,13.0027055 11.8745057,13.3408949 C12.2126951,13.6790843 12.6266389,13.8468262 13.1217482,13.8468262 Z" id="形状" fill="#CACAD9" fill-rule="nonzero"></path>
    </g>
</svg>