<?xml version="1.0" encoding="UTF-8"?>
<svg width="28px" height="28px" viewBox="0 0 28 28" version="1.1" xmlns="http://www.w3.org/2000/svg" xmlns:xlink="http://www.w3.org/1999/xlink">
    <!-- Generator: Sketch 52.2 (67145) - http://www.bohemiancoding.com/sketch -->
    <title>宝库</title>
    <desc>Created with Sketch.</desc>
    <g id="切图" stroke="none" stroke-width="1" fill="none" fill-rule="evenodd">
        <path d="M15.4807722,0.578518228 C14.6304171,-0.192839409 13.333465,-0.192839409 12.4831099,0.578518268 L0.361643815,12.088329 C-0.0931083538,12.506171 -0.123029309,13.2135487 0.294811344,13.6683009 C0.707080359,14.1169884 1.40268768,14.1529987 1.85908508,13.7492863 L2.0518317,13.5662814 L2.0518317,25.5791972 L2.0518317,25.5791963 C2.05029403,26.8143334 3.05032568,27.8168601 4.28546272,27.8183971 C4.28639108,27.8183983 4.28731944,27.8183989 4.2882478,27.8183989 L10.7963881,27.8183989 L10.7963881,21.085488 L10.796388,21.0854347 C10.7952645,20.2157663 11.4993588,19.5098482 12.3690303,19.5087256 C12.3699586,19.5087244 12.3708869,19.508724 12.3718152,19.5087244 L15.4341902,19.5087244 C16.3038617,19.5083394 17.0091798,20.2130344 17.0095633,21.0827028 C17.0095637,21.0836311 17.0095633,21.0845594 17.009562,21.0854877 L17.009562,27.8183985 L23.6722088,27.8183985 C24.907349,27.8187838 25.9089387,26.817817 25.9093253,25.58268 C25.9093256,25.5815196 25.9093251,25.5803593 25.9093237,25.5791989 L25.9093237,13.7131201 C26.4061507,14.1626302 27.1110327,14.1285343 27.5243594,13.6678907 C27.9382551,13.209545 27.9022232,12.5024517 27.4438768,12.0885529 C27.4437987,12.0884824 27.4437206,12.0884119 27.4436425,12.0883414 L15.4807652,0.579210973 L15.4807722,0.578518228 Z" id="Path" fill="currentColor"></path>
    </g>
</svg>