<?xml version="1.0" encoding="UTF-8"?>
<svg width="450px" height="340px" viewBox="0 0 450 340" version="1.1" xmlns="http://www.w3.org/2000/svg" xmlns:xlink="http://www.w3.org/1999/xlink">
    <!-- Generator: Sketch 52.2 (67145) - http://www.bohemiancoding.com/sketch -->
    <title>undraw_work_chat_erdt copy 2</title>
    <desc>Created with Sketch.</desc>
    <g id="切图" stroke="none" stroke-width="1" fill="none" fill-rule="evenodd">
        <g id="分组-5" transform="translate(24.000000, 24.000000)">
            <g id="分组" transform="translate(123.133641, 13.640553)">
                <rect id="矩形" fill="#3F3D56" x="5.85231336" y="148.745681" width="1" height="19.0192959"></rect>
                <path d="M126.761375,280.771171 L23.4650028,280.771171 C13.7409497,280.758787 5.86191461,272.877498 5.85231336,263.153441 L5.85231336,201.406249 L6.58964055,201.406249 L6.58964055,263.153441 C6.59871168,272.470503 14.1479445,280.02199 23.4650028,280.033843 L126.761375,280.033843 C136.079839,280.023412 143.631344,272.471905 143.641773,263.153441 L143.641773,200.522396 L144.3791,200.522396 L144.3791,263.153441 C144.368148,272.878903 136.486836,280.760216 126.761375,280.771171 Z" id="路径" fill="#3F3D56"></path>
                <rect id="矩形" fill="#3F3D56" x="143.641773" y="148.797884" width="1" height="18.5750304"></rect>
                <path d="M144.3791,115.565958 L143.641773,115.565958 L143.641773,97.4692166 L144.797806,97.4692166 C145.205085,97.4687208 145.5351,97.1386301 145.535502,96.7313512 L145.535502,64.9969401 C145.535096,64.5896904 145.205056,64.2596507 144.797806,64.2592442 L143.641773,64.2592442 L143.641773,17.6128664 C143.629932,8.29577573 136.078469,0.746485689 126.761375,0.737327189 L23.4650028,0.737327189 C14.1493148,0.747908207 6.60012389,8.2971783 6.58964055,17.6128664 L6.58964055,115.513574 L5.85231336,115.513574 L5.85231336,17.6128664 C5.86326397,7.89015744 13.742294,0.0110482867 23.4650028,0 L126.761375,0 C136.48549,0.00962374623 144.366794,7.88875404 144.3791,17.6128664 L144.3791,63.5219244 L144.797806,63.5219244 C145.61205,63.522863 146.271891,64.1827038 146.272829,64.9969475 L146.272829,96.7313585 C146.271962,97.5456591 145.612107,98.2055901 144.797806,98.2065512 L144.3791,98.2065512 L144.3791,115.565958 Z" id="路径" fill="#3F3D56"></path>
                <rect id="矩形" fill="#E6E8EC" x="62.0766341" y="9.21389493" width="19.2413493" height="3.90708571" rx="1.95354286"></rect>
                <circle id="椭圆形" fill="#E6E8EC" cx="86.4434101" cy="11.1674396" r="2.21611797"></circle>
                <path d="M135.750536,21.0239484 L135.750536,264.583351 C135.74775,270.625472 130.848923,275.522133 124.806802,275.522249 L25.9267576,275.522249 C23.0235929,275.527305 20.2378095,274.376594 18.184508,272.324195 C16.1312065,270.271795 14.9792724,267.486518 14.9830525,264.583351 L14.9830525,21.0239484 C14.9829284,18.1214566 16.1358817,15.3378072 18.1882506,13.2854328 C20.2406195,11.2330583 23.0242658,10.0800975 25.9267576,10.0802138 L40.726153,10.0802138 L40.726153,11.9790562 C40.7261876,16.9557126 44.7605528,20.9900828 49.7372092,20.9901235 L100.025202,20.9901235 C105.001856,20.9900848 109.036217,16.9557105 109.03624,11.9790562 L109.03624,10.0802138 L124.806802,10.0802138 C127.70955,10.0792697 130.49368,11.2319639 132.546233,13.2845169 C134.598786,15.3370699 135.75148,18.1212002 135.750536,21.0239484 Z" id="路径" fill="#E6E8EC"></path>
                <rect id="矩形" fill="#000000" opacity="0.2" x="32.2762065" y="215.299539" width="85.5299539" height="41.6589862"></rect>
                <path d="M150.504966,149.174094 L0.228637788,149.174094 L0.228637788,115.140914 L150.504966,115.140914 L150.504966,149.174094 Z M1.11260092,148.290116 L149.620988,148.290116 L149.620988,116.024903 L1.11260092,116.024903 L1.11260092,148.290116 Z" id="形状" fill="#3F3D56" fill-rule="nonzero"></path>
                <rect id="矩形" fill="#009688" x="12.1623336" y="126.632645" width="16.7955908" height="16.7955908"></rect>
                <path d="M26.7479779,141.218289 L9.06840922,141.218289 L9.06840922,123.538717 L26.7479779,123.538717 L26.7479779,141.218289 Z M9.9523871,140.334312 L25.8640147,140.334312 L25.8640147,124.422699 L9.9523871,124.422699 L9.9523871,140.334312 Z" id="形状" fill="#3F3D56" fill-rule="nonzero"></path>
                <rect id="矩形" fill="#3F3D56" x="54.5933014" y="127.074632" width="78.6740866" height="1"></rect>
                <rect id="矩形" fill="#3F3D56" x="54.5933014" y="133.262481" width="78.6740866" height="1"></rect>
                <rect id="矩形" fill="#3F3D56" x="54.5933014" y="139.45033" width="78.6740866" height="1"></rect>
                <path d="M150.504966,201.406223 L0.228637788,201.406223 L0.228637788,167.373043 L150.504966,167.373043 L150.504966,201.406223 Z M1.11260092,200.522245 L149.620988,200.522245 L149.620988,168.257029 L1.11260092,168.257029 L1.11260092,200.522245 Z" id="形状" fill="#3F3D56" fill-rule="nonzero"></path>
                <rect id="矩形" fill="#009688" transform="translate(130.173464, 187.262566) rotate(-180.000000) translate(-130.173464, -187.262566) " x="121.775668" y="178.864771" width="16.7955908" height="16.7955908"></rect>
                <path d="M141.66518,193.450415 L123.985611,193.450415 L123.985611,175.770846 L141.66518,175.770846 L141.66518,193.450415 Z M124.869589,192.566437 L140.781217,192.566437 L140.781217,176.654824 L124.869589,176.654824 L124.869589,192.566437 Z" id="形状" fill="#3F3D56" fill-rule="nonzero"></path>
                <rect id="矩形" fill="#3F3D56" x="17.4662046" y="179.306761" width="78.6740866" height="1"></rect>
                <rect id="矩形" fill="#3F3D56" x="17.4662046" y="185.49461" width="78.6740866" height="1"></rect>
                <rect id="矩形" fill="#3F3D56" x="17.4662046" y="191.682459" width="78.6740866" height="1"></rect>
                <rect id="矩形" fill="#3F3D56" x="35.8637972" y="60.8588203" width="78.6740866" height="1"></rect>
                <rect id="矩形" fill="#3F3D56" x="35.8637972" y="67.0466728" width="78.6740866" height="1"></rect>
                <rect id="矩形" fill="#3F3D56" x="35.8637972" y="73.2345217" width="78.6740866" height="1"></rect>
            </g>
            <g id="分组" transform="translate(227.465438, 148.940092)">
                <path d="M112.823388,96.3669235 L65.379565,111.209688 L6.36108387,73.9675871 L6.35842949,73.9649327 L6.16494747,73.845659 L6.13311336,73.8244682 L5.66397051,73.5302488 L0.0449179724,69.9944995 C0.0555317972,69.8990857 0.0687963134,69.8063115 0.0873142857,69.7162028 C0.17343736,69.2792647 0.372688524,68.8725683 0.665168664,68.53673 C0.767003831,68.4163207 0.878701355,68.3046121 0.999100461,68.202765 L1.00175484,68.202765 C1.05478341,68.1577106 1.11043318,68.1126415 1.16873733,68.0702415 C1.22703779,68.0251883 1.28799017,67.9827822 1.35159447,67.943023 C2.43832258,67.2141382 4.07630968,66.9040184 5.78321106,66.8112553 C9.46936923,66.6362233 13.1369441,67.4313353 16.4196719,69.1171871 C23.0538618,72.4727041 37.3134636,79.0750931 39.5372608,75.0304369 C42.4528037,69.7294525 9.32164424,10.6234618 9.32164424,10.6234618 C6.59427097,3.61290691 8.59010507,1.32287558 9.8411318,0.60195023 C9.87827465,0.580741014 9.91535115,0.559531797 9.94984332,0.540976959 C10.0823621,0.472822841 10.2196458,0.414361895 10.3606157,0.366053456 C10.434283,0.339337263 10.5095335,0.317207075 10.5859355,0.299789862 C10.6059661,0.294140577 10.626322,0.289715805 10.6468903,0.286540092 L15.0414267,6.1282212 L15.1076903,6.21569032 L15.3435539,6.53110046 L15.4151226,6.62651429 L42.0552295,42.0318083 C82.8728184,20.0327189 96.9204313,78.873659 96.9204313,78.873659 L112.823388,96.3669235 Z" id="路径" fill="#FBBEBE"></path>
                <path d="M15.4151226,6.62651429 C15.2176319,7.03408318 14.7996976,7.28816255 14.3469677,7.2758894 C14.2001672,7.27537723 14.0540568,7.25577316 13.9123134,7.21757051 C12.9263373,6.95250138 11.7839594,5.87112995 10.9305069,4.39480553 C10.0982157,2.95293641 9.7563576,1.50310783 9.94983963,0.540976959 C10.0823584,0.472822841 10.2196421,0.414361895 10.360612,0.366053456 C10.4342793,0.339337263 10.5095298,0.317207075 10.5859318,0.299789862 C10.2440074,0.97035576 10.4480995,2.49438894 11.3916903,4.12975484 C12.1629604,5.46825069 13.2072406,6.48072258 14.0474912,6.70337327 C14.2554055,6.79020413 14.4919458,6.77492852 14.6869647,6.66207652 C14.8819836,6.54922452 15.0130918,6.35175223 15.0414083,6.1282212 L15.1076719,6.21569032 L15.3435355,6.53110046 L15.4151226,6.62651429 Z" id="路径" fill="#3F3D56"></path>
                <path d="M6.16492903,73.845659 L6.13309493,73.8244682 L5.66395207,73.5302488 C5.66660276,72.7748571 5.09411982,71.5370912 3.82983226,70.2940092 C2.76167373,69.252365 1.52126083,68.5685346 0.665157604,68.53673 C0.766992771,68.4163207 0.878690295,68.3046121 0.999089401,68.202765 L1.00174378,68.202765 C1.05477235,68.1577106 1.11042212,68.1126415 1.16872627,68.0702415 C2.32280702,68.4106976 3.36799453,69.0465862 4.20087373,69.9149899 C5.58972903,71.2799853 6.35310599,72.835823 6.16492903,73.845659 Z" id="路径" fill="#3F3D56"></path>
            </g>
            <g id="分组" transform="translate(123.133641, 13.640553)">
                <rect id="矩形" fill="#3F3D56" x="5.85231336" y="148.745681" width="1" height="19.0192959"></rect>
                <path d="M126.761375,280.771171 L23.4650028,280.771171 C13.7409497,280.758787 5.86191461,272.877498 5.85231336,263.153441 L5.85231336,201.406249 L6.58964055,201.406249 L6.58964055,263.153441 C6.59871168,272.470503 14.1479445,280.02199 23.4650028,280.033843 L126.761375,280.033843 C136.079839,280.023412 143.631344,272.471905 143.641773,263.153441 L143.641773,200.522396 L144.3791,200.522396 L144.3791,263.153441 C144.368148,272.878903 136.486836,280.760216 126.761375,280.771171 Z" id="路径" fill="#3F3D56"></path>
                <rect id="矩形" fill="#3F3D56" x="143.641773" y="148.797884" width="1" height="18.5750304"></rect>
                <path d="M144.3791,115.565958 L143.641773,115.565958 L143.641773,97.4692166 L144.797806,97.4692166 C145.205085,97.4687208 145.5351,97.1386301 145.535502,96.7313512 L145.535502,64.9969401 C145.535096,64.5896904 145.205056,64.2596507 144.797806,64.2592442 L143.641773,64.2592442 L143.641773,17.6128664 C143.629932,8.29577573 136.078469,0.746485689 126.761375,0.737327189 L23.4650028,0.737327189 C14.1493148,0.747908207 6.60012389,8.2971783 6.58964055,17.6128664 L6.58964055,115.513574 L5.85231336,115.513574 L5.85231336,17.6128664 C5.86326397,7.89015744 13.742294,0.0110482867 23.4650028,0 L126.761375,0 C136.48549,0.00962374623 144.366794,7.88875404 144.3791,17.6128664 L144.3791,63.5219244 L144.797806,63.5219244 C145.61205,63.522863 146.271891,64.1827038 146.272829,64.9969475 L146.272829,96.7313585 C146.271962,97.5456591 145.612107,98.2055901 144.797806,98.2065512 L144.3791,98.2065512 L144.3791,115.565958 Z" id="路径" fill="#3F3D56"></path>
                <rect id="矩形" fill="#E6E8EC" x="62.0766341" y="9.21389493" width="19.2413493" height="3.90708571" rx="1.95354286"></rect>
                <circle id="椭圆形" fill="#E6E8EC" cx="86.4434101" cy="11.1674396" r="2.21611797"></circle>
                <path d="M135.750536,21.0239484 L135.750536,264.583351 C135.74775,270.625472 130.848923,275.522133 124.806802,275.522249 L25.9267576,275.522249 C23.0235929,275.527305 20.2378095,274.376594 18.184508,272.324195 C16.1312065,270.271795 14.9792724,267.486518 14.9830525,264.583351 L14.9830525,21.0239484 C14.9829284,18.1214566 16.1358817,15.3378072 18.1882506,13.2854328 C20.2406195,11.2330583 23.0242658,10.0800975 25.9267576,10.0802138 L40.726153,10.0802138 L40.726153,11.9790562 C40.7261876,16.9557126 44.7605528,20.9900828 49.7372092,20.9901235 L100.025202,20.9901235 C105.001856,20.9900848 109.036217,16.9557105 109.03624,11.9790562 L109.03624,10.0802138 L124.806802,10.0802138 C127.70955,10.0792697 130.49368,11.2319639 132.546233,13.2845169 C134.598786,15.3370699 135.75148,18.1212002 135.750536,21.0239484 Z" id="路径" fill="#E6E8EC"></path>
                <rect id="矩形" fill="#000000" opacity="0.2" x="32.2762065" y="215.299539" width="85.5299539" height="41.6589862"></rect>
                <path d="M150.504966,149.174094 L0.228637788,149.174094 L0.228637788,115.140914 L150.504966,115.140914 L150.504966,149.174094 Z M1.11260092,148.290116 L149.620988,148.290116 L149.620988,116.024903 L1.11260092,116.024903 L1.11260092,148.290116 Z" id="形状" fill="#3F3D56" fill-rule="nonzero"></path>
                <rect id="矩形" fill="#009688" x="12.1623336" y="126.632645" width="16.7955908" height="16.7955908"></rect>
                <path d="M26.7479779,141.218289 L9.06840922,141.218289 L9.06840922,123.538717 L26.7479779,123.538717 L26.7479779,141.218289 Z M9.9523871,140.334312 L25.8640147,140.334312 L25.8640147,124.422699 L9.9523871,124.422699 L9.9523871,140.334312 Z" id="形状" fill="#3F3D56" fill-rule="nonzero"></path>
                <rect id="矩形" fill="#3F3D56" x="54.5933014" y="127.074632" width="78.6740866" height="1"></rect>
                <rect id="矩形" fill="#3F3D56" x="54.5933014" y="133.262481" width="78.6740866" height="1"></rect>
                <rect id="矩形" fill="#3F3D56" x="54.5933014" y="139.45033" width="78.6740866" height="1"></rect>
                <path d="M150.504966,201.406223 L0.228637788,201.406223 L0.228637788,167.373043 L150.504966,167.373043 L150.504966,201.406223 Z M1.11260092,200.522245 L149.620988,200.522245 L149.620988,168.257029 L1.11260092,168.257029 L1.11260092,200.522245 Z" id="形状" fill="#3F3D56" fill-rule="nonzero"></path>
                <rect id="矩形" fill="#009688" transform="translate(130.173464, 187.262566) rotate(-180.000000) translate(-130.173464, -187.262566) " x="121.775668" y="178.864771" width="16.7955908" height="16.7955908"></rect>
                <path d="M141.66518,193.450415 L123.985611,193.450415 L123.985611,175.770846 L141.66518,175.770846 L141.66518,193.450415 Z M124.869589,192.566437 L140.781217,192.566437 L140.781217,176.654824 L124.869589,176.654824 L124.869589,192.566437 Z" id="形状" fill="#3F3D56" fill-rule="nonzero"></path>
                <rect id="矩形" fill="#3F3D56" x="17.4662046" y="179.306761" width="78.6740866" height="1"></rect>
                <rect id="矩形" fill="#3F3D56" x="17.4662046" y="185.49461" width="78.6740866" height="1"></rect>
                <rect id="矩形" fill="#3F3D56" x="17.4662046" y="191.682459" width="78.6740866" height="1"></rect>
                <rect id="矩形" fill="#3F3D56" x="35.8637972" y="60.8588203" width="78.6740866" height="1"></rect>
                <rect id="矩形" fill="#3F3D56" x="35.8637972" y="67.0466728" width="78.6740866" height="1"></rect>
                <rect id="矩形" fill="#3F3D56" x="35.8637972" y="73.2345217" width="78.6740866" height="1"></rect>
            </g>
            <g id="分组" transform="translate(227.465438, 148.940092)">
                <path d="M112.823388,96.3669235 L65.379565,111.209688 L6.36108387,73.9675871 L6.35842949,73.9649327 L6.16494747,73.845659 L6.13311336,73.8244682 L5.66397051,73.5302488 L0.0449179724,69.9944995 C0.0555317972,69.8990857 0.0687963134,69.8063115 0.0873142857,69.7162028 C0.17343736,69.2792647 0.372688524,68.8725683 0.665168664,68.53673 C0.767003831,68.4163207 0.878701355,68.3046121 0.999100461,68.202765 L1.00175484,68.202765 C1.05478341,68.1577106 1.11043318,68.1126415 1.16873733,68.0702415 C1.22703779,68.0251883 1.28799017,67.9827822 1.35159447,67.943023 C2.43832258,67.2141382 4.07630968,66.9040184 5.78321106,66.8112553 C9.46936923,66.6362233 13.1369441,67.4313353 16.4196719,69.1171871 C23.0538618,72.4727041 37.3134636,79.0750931 39.5372608,75.0304369 C42.4528037,69.7294525 9.32164424,10.6234618 9.32164424,10.6234618 C6.59427097,3.61290691 8.59010507,1.32287558 9.8411318,0.60195023 C9.87827465,0.580741014 9.91535115,0.559531797 9.94984332,0.540976959 C10.0823621,0.472822841 10.2196458,0.414361895 10.3606157,0.366053456 C10.434283,0.339337263 10.5095335,0.317207075 10.5859355,0.299789862 C10.6059661,0.294140577 10.626322,0.289715805 10.6468903,0.286540092 L15.0414267,6.1282212 L15.1076903,6.21569032 L15.3435539,6.53110046 L15.4151226,6.62651429 L42.0552295,42.0318083 C82.8728184,20.0327189 96.9204313,78.873659 96.9204313,78.873659 L112.823388,96.3669235 Z" id="路径" fill="#FBBEBE"></path>
                <path d="M15.4151226,6.62651429 C15.2176319,7.03408318 14.7996976,7.28816255 14.3469677,7.2758894 C14.2001672,7.27537723 14.0540568,7.25577316 13.9123134,7.21757051 C12.9263373,6.95250138 11.7839594,5.87112995 10.9305069,4.39480553 C10.0982157,2.95293641 9.7563576,1.50310783 9.94983963,0.540976959 C10.0823584,0.472822841 10.2196421,0.414361895 10.360612,0.366053456 C10.4342793,0.339337263 10.5095298,0.317207075 10.5859318,0.299789862 C10.2440074,0.97035576 10.4480995,2.49438894 11.3916903,4.12975484 C12.1629604,5.46825069 13.2072406,6.48072258 14.0474912,6.70337327 C14.2554055,6.79020413 14.4919458,6.77492852 14.6869647,6.66207652 C14.8819836,6.54922452 15.0130918,6.35175223 15.0414083,6.1282212 L15.1076719,6.21569032 L15.3435355,6.53110046 L15.4151226,6.62651429 Z" id="路径" fill="#3F3D56"></path>
                <path d="M6.16492903,73.845659 L6.13309493,73.8244682 L5.66395207,73.5302488 C5.66660276,72.7748571 5.09411982,71.5370912 3.82983226,70.2940092 C2.76167373,69.252365 1.52126083,68.5685346 0.665157604,68.53673 C0.766992771,68.4163207 0.878690295,68.3046121 0.999089401,68.202765 L1.00174378,68.202765 C1.05477235,68.1577106 1.11042212,68.1126415 1.16872627,68.0702415 C2.32280702,68.4106976 3.36799453,69.0465862 4.20087373,69.9149899 C5.58972903,71.2799853 6.35310599,72.835823 6.16492903,73.845659 Z" id="路径" fill="#3F3D56"></path>
            </g>
            <g id="分组-3" transform="translate(68.202765, 0.000000)">
                <path d="M79.6316464,51.2442523 C79.6284373,65.9095376 71.56889,79.3874344 58.6510013,86.3299666 C58.1754105,86.5880311 57.6924538,86.8350357 57.2021312,87.0709804 C46.1774445,92.4114853 33.309869,92.3883764 22.3044354,87.0083076 C21.3680299,86.5511475 20.4537441,86.0571383 19.5615782,85.5262799 C18.6546658,84.9954044 17.7735598,84.4239758 16.9182603,83.8193675 C5.47711236,75.7751181 -0.905349541,62.318489 0.104154399,48.3689114 C1.11365834,34.4193337 9.36713026,22.0218789 21.8472925,15.7087684 C24.2708015,14.4769192 26.8160228,13.5008392 29.4417626,12.796326 C30.5993663,12.482962 31.776632,12.2224397 32.9735598,12.0147592 C35.2332542,11.622876 37.5225556,11.4267566 39.8159782,11.4285841 C40.2878676,11.4285841 40.7560704,11.4359574 41.2242732,11.4580772 C41.5671303,11.4654504 41.9099875,11.480197 42.2528446,11.5023168 C45.8370587,11.716546 49.3754812,12.4172851 52.770817,13.5852661 C53.0620612,13.6848053 53.3533054,13.7880311 53.640863,13.8949435 C54.643628,14.2636071 55.6242732,14.6740526 56.5827985,15.1262799 C70.6422487,21.6515381 79.6356375,35.7443453 79.6316464,51.2442523 Z" id="路径" fill="#3F3D56"></path>
                <path d="M55.2713708,10.3685323 C51.6489413,1.82139126 42.4277948,0.207179283 42.4277948,0.207179283 C42.4277948,0.207179283 33.5491846,-2.16144007 26.1343717,9.11900601 C19.2231717,19.6333102 10.3107625,29.4842816 21.6134722,33.6810521 L24.5990869,27.4107959 L24.9572584,34.6268475 C26.6008327,34.9691256 28.2619068,35.2212026 29.9330298,35.3819479 C42.469922,36.6555738 54.2878943,38.7732512 54.5067699,34.2425009 C54.797745,28.2195185 58.7568786,18.592606 55.2713708,10.3685323 Z" id="路径" fill="#2F2E41"></path>
                <path d="M23.2,80.1069124 L22.9050691,82.4737327 L22.3447005,86.9271889 C21.4082949,86.4700289 20.4940092,85.9760197 19.6018433,85.4451613 C18.6949309,84.9142857 17.8138249,84.3428571 16.9585253,83.7382488 L17.0470046,81.4414747 L17.1465438,78.8940092 L21.2387097,79.716129 L23.2,80.1069124 Z" id="路径" fill="#FFB8B8"></path>
                <path d="M64.1880184,82.4663594 C62.3978655,83.8678372 60.4910624,85.1135494 58.4884793,86.1898618 L56.556682,79.4986175 L56.3023041,78.6175115 L55.6682028,76.4165899 L56.3502304,76.3096774 L63.3327189,75.2073733 L63.5576442,77.1059908 L64.1880184,82.4663594 Z" id="路径" fill="#FFB8B8"></path>
                <circle id="椭圆形" fill="#FFB8B8" cx="42.5956535" cy="17.1578654" r="10.8905843"></circle>
                <path d="M35.0586007,21.3824885 C35.0586007,21.3824885 35.8653104,35.0965604 33.4451813,35.90327 C31.0250523,36.7099797 45.949185,35.90327 45.949185,35.90327 C45.949185,35.90327 43.9324108,27.4328147 45.949185,25.0126857 C47.9659592,22.5925567 35.0586007,21.3824885 35.0586007,21.3824885 Z" id="路径" fill="#FFB8B8"></path>
                <path d="M45.9742009,33.9069247 C45.9742009,33.9069247 35.4869714,33.1002151 33.4701972,33.9069247 C31.453423,34.7136344 25.8064516,38.7471828 25.8064516,38.7471828 L28.6299355,64.1585524 L51.6211724,68.9988104 L55.2513696,63.7551975 L58.8815631,56.0914519 L57.2681438,46.4109284 L56.8647889,40.7639607 L45.9742009,33.9069247 Z" id="路径" fill="#D0CDE1"></path>
                <path d="M23.8849438,40.1843318 C23.8849438,40.1843318 18.6413309,41.3943963 18.237976,45.4279447 C17.8346212,49.4614931 17.8346212,59.5453714 18.237976,61.1587908 C18.6413309,62.7722101 18.237976,63.5789235 17.8346212,63.9822783 C17.4312664,64.3856332 16.624553,63.5789235 17.4312627,64.788988 C18.2379724,65.9990525 18.237976,65.9990525 17.8346212,67.2091171 C17.4312664,68.4191816 16.2211982,66.8057622 17.0279078,68.8225364 C17.8346175,70.8393106 18.237976,71.2426691 17.8346212,71.646024 C17.4312664,72.0493788 16.2211982,81.3265438 16.2211982,81.3265438 L23.0782341,82.5366083 L29.93527,58.7386618 L23.8849438,40.1843318 Z" id="路径" fill="#D0CDE1"></path>
                <path d="M55.5423853,40.1843318 C57.1023439,40.2713765 58.4922457,41.1979777 59.1725788,42.6044608 C60.3826433,45.0245899 63.6094857,60.7554359 63.2061272,61.9655041 C62.8027687,63.1755724 61.996059,61.5621493 62.8027687,63.9822783 C63.6094783,66.4024074 62.8027687,65.9990525 63.2061272,67.6124719 C63.6094857,69.2258912 61.5927041,67.6124719 63.2061272,69.2258949 C64.8195502,70.839318 65.6262562,71.2426691 64.8195465,72.0493788 C64.0128369,72.8560885 62.8027687,71.2426691 64.0128369,72.8560885 C65.2229051,74.4695078 65.2229014,76.8896369 65.2229014,76.8896369 L55.5423816,78.9064111 L52.718894,56.318529 L55.5423853,40.1843318 Z" id="路径" fill="#D0CDE1"></path>
                <path d="M56.6967742,79.5358044 L57.1797235,86.9680625 C46.1550368,92.3085674 33.2874613,92.2854585 22.2820276,86.9053897 C21.3456221,86.4482296 20.4313364,85.9542204 19.5391705,85.423362 C19.8488479,84.2841915 20.162212,83.1487077 20.4829493,82.0353436 C20.7115207,81.2427169 20.9425499,80.4623789 21.1760369,79.6943298 C22.9861751,73.7699058 24.9364055,68.7302745 26.764977,66.7726708 C26.764977,66.7726708 26.764977,62.3376478 27.5723502,61.9321178 C27.9604186,61.627987 28.256499,61.2221527 28.4276498,60.7597676 C28.7281895,60.0937537 28.9819531,59.4076064 29.1870968,58.7063114 L27.8525346,55.6021639 L21.8801843,41.6961731 C21.527296,40.8705393 21.8777465,39.9128564 22.6801843,39.509998 L24.6599078,38.5182929 C25.0650014,38.3171976 25.533533,38.2858283 25.9618185,38.4311271 C26.390104,38.5764259 26.7428285,38.8864119 26.9419355,39.2924865 L36.0442396,57.8989381 L46.1271889,64.3542376 L53.1981567,61.2095372 L53.3861751,61.1247445 C53.3861751,61.1247445 58.6322581,53.0583851 57.0175115,49.0252054 C56.3281106,47.3035464 55.5686636,45.0030856 54.916129,42.9275095 C54.5364055,41.7035464 54.197235,40.5570026 53.9317972,39.6574634 C53.846126,39.3647634 53.952676,39.049735 54.1984298,38.8691307 C54.4441837,38.6885263 54.776656,38.6809175 55.0304147,38.8500902 L56.40553,39.7680625 C56.7172218,39.9771376 56.9637922,40.2697003 57.1170507,40.6123021 C57.1807101,40.746158 57.2277569,40.8872983 57.2571429,41.0325786 L60.243318,55.4805049 L56.2101382,63.9487077 L56.2101382,72.0150671 L56.4903226,76.3468644 L56.637788,78.6141455 L56.6967742,79.5358044 Z" id="路径" fill="#2F2E41"></path>
                <polygon id="路径" fill="#2F2E41" points="53.3990783 7.42119816 44.157788 2.58064516 31.396129 4.56073733 28.7557604 16.2223041 35.3282949 15.9697696 37.1646083 11.6851613 37.1646083 15.8989862 40.197235 15.7824885 41.9576037 8.96147465 43.0576959 16.2223041 53.8392627 16.0025806"></polygon>
                <ellipse id="椭圆形" fill="#FFB8B8" cx="31.4404793" cy="17.2328221" rx="1.21006452" ry="2.11761475"></ellipse>
            </g>
            <g id="分组-2" transform="translate(309.677419, 51.981567)">
                <path d="M80.9530175,71.866001 C80.9530175,89.5372563 69.0162065,104.492685 52.5669972,109.497278 C50.138322,110.240973 47.6450045,110.754287 45.12007,111.030421 C43.5782757,111.203519 42.0279895,111.290045 40.4765088,111.289592 C39.899329,111.289592 39.3259097,111.278631 38.7562249,111.249444 L38.7487558,111.249444 C32.961722,111.024367 27.287963,109.576265 22.1009032,107.000449 C18.4571594,105.190636 15.1065531,102.842726 12.1616627,100.035608 C4.40881996,92.7160615 0.0104099637,82.5281878 4.26325641e-14,71.866001 C4.26325641e-14,55.1584176 10.6700461,40.8783143 25.7362839,35.1399991 C27.5390184,34.4507816 29.3889687,33.8920548 31.2718304,33.4681392 C38.2096935,31.900479 45.4331849,32.1329433 52.2558968,34.1434425 C52.7731318,34.2894664 53.2865475,34.4537355 53.7925419,34.6289429 C53.7962949,34.6289429 53.8000442,34.6325964 53.8037972,34.6325964 C55.0209969,35.0418182 56.2168112,35.5120915 57.3866949,36.0416286 C57.7876903,36.2168397 58.1887336,36.4030074 58.582271,36.600154 C59.3692571,36.9797816 60.1413002,37.3874007 60.8984,37.8230111 C61.1907502,37.9872802 61.4793327,38.155177 61.7641696,38.3304139 C66.4135848,41.1285085 70.448539,44.8387335 73.6259982,49.2376139 C76.5160592,53.2370085 78.615025,57.7519586 79.8099097,62.5394277 C80.572221,65.5895989 80.9561443,68.7220142 80.9530175,71.866001 Z" id="路径" fill="#009688"></path>
                <path d="M84.2541309,7.83216448 L89.7951447,6.1494548 L90.2731687,1.39634144 C90.2731687,1.39634144 76.7962138,-3.56206593 72.4875982,5.20845941 C70.966282,8.3052078 69.0489217,10.165005 67.2048184,11.2752576 C64.6274147,12.766154 61.5185177,13.0269402 58.7287558,11.9862622 C49.3885088,8.66381794 47.1889401,18.1120576 47.1889401,18.1120576 C47.1889401,18.1120576 47.9963576,19.4570235 53.7538544,19.787711 C56.6191521,19.9522861 58.9636756,22.0524115 60.596129,24.1208207 C64.0917309,28.5499857 71.2720332,27.2699451 73.0351336,21.9538788 C73.0635404,21.868194 73.0915195,21.7814179 73.119071,21.6935507 C75.8732387,12.9058861 88.4120074,19.9025829 88.4120074,19.9025829 L89.2124756,11.9432023 L84.2541309,7.83216448 Z" id="路径" fill="#2F2E41"></path>
                <ellipse id="椭圆形" fill="#2F2E41" cx="46.2336" cy="22.8312553" rx="6.78659539" ry="6.61005714"></ellipse>
                <ellipse id="椭圆形" fill="#2F2E41" cx="42.7980535" cy="40.4839668" rx="18.0975926" ry="17.626824"></ellipse>
                <ellipse id="椭圆形" fill="#A0616A" cx="42.3038452" cy="46.7728184" rx="12.442094" ry="12.1184406"></ellipse>
                <path d="M37.6036866,56.0311115 L39.8658876,67.78233 L51.1768811,66.3134267 C51.1768811,66.3134267 49.2917161,57.1327889 50.4228166,54.562212 L37.6036866,56.0311115 Z" id="路径" fill="#A0616A"></path>
                <path d="M59.914779,30.4395695 C59.914779,30.4395695 50.8659827,23.8295123 47.095649,26.4000893 C43.3253154,28.9706663 57.2755569,37.4168635 58.7836785,36.6824045 C60.2918002,35.9479455 59.914779,30.4395695 59.914779,30.4395695 Z" id="路径" fill="#A0616A"></path>
                <path d="M68.3635136,80.2894673 C68.3646859,80.3504021 68.3621806,80.4113522 68.3560112,80.4719853 L68.3560112,80.4756387 C68.12365,85.7248184 58.203167,101.789943 52.4802509,109.506732 C50.0515757,110.250426 47.5582581,110.76374 45.0333237,111.039875 C43.4915293,111.212973 41.9412432,111.299498 40.3897624,111.299045 C39.8125827,111.299045 39.2391633,111.288085 38.6694785,111.258898 L38.661991,111.258898 C33.3925753,109.601629 27.1336776,107.426046 22.5688076,105.710385 C20.4175596,104.896347 18.6410951,104.188173 17.5242509,103.684453 C17.1084494,103.513882 16.7094611,103.304906 16.3324684,103.06024 C14.4472997,101.589143 18.5961218,100.486758 20.4812905,100.121725 C22.3664112,99.7530396 19.7279744,95.7157714 19.7279744,95.7157714 C12.9406675,88.7363355 21.2346066,82.8629382 21.2346066,82.8629382 C21.2346066,82.8629382 24.6263596,75.8835023 24.6263596,74.0473954 C24.6355208,73.9111672 24.6865932,73.781107 24.7725753,73.6750452 C26.1929698,71.71847 37.4477016,68.1739871 37.4477016,68.1739871 L37.4477016,62.2969806 L38.6132684,62.1071594 L50.0816039,60.2454968 L51.0185587,60.0921659 L52.9037274,63.0306802 L61.2014159,64.1330876 C61.2014159,64.1330876 68.3635136,73.6823742 68.3635136,80.2894673 Z" id="路径" fill="#D0CDE1"></path>
                <path d="M32.6365604,80.3681599 C32.6365604,80.3681599 27.6669419,93.7867774 23.1282876,104.661126 C22.9709088,105.040776 22.813482,105.416746 22.6598083,105.789089 C22.4724166,106.227135 22.2887779,106.661502 22.1051392,107.088606 C18.4613954,105.278793 15.110789,102.930883 12.1658986,100.123765 C14.2047373,93.666324 17.4391152,83.4052401 18.6871226,79.269406 C20.0626065,74.7101433 23.2444903,73.8742244 24.863576,73.7537599 C25.1915473,73.7234452 25.5217234,73.7258929 25.8492092,73.7610668 L32.6365604,80.3681599 Z" id="路径" fill="#D0CDE1"></path>
                <path d="M59.9790956,65.1224559 L61.1101961,64.0207785 C61.1101961,64.0207785 75.4374551,48.9645352 75.0604265,45.2922993 C75.0604265,45.2922993 67.5197629,36.1116615 58.0939343,38.6822384 C58.0939343,38.6822384 53.9465684,28.7671527 60.3561316,29.1343785 C66.7656947,29.5016043 90.5187859,28.0327011 90.1417537,38.6822384 C89.7647214,49.3317758 67.1427306,82.0148467 67.1427306,82.0148467 L59.9790956,65.1224559 Z" id="路径" fill="#D0CDE1"></path>
                <path d="M45.1098286,111.205441 C43.5680342,111.378539 42.017748,111.465065 40.4662673,111.464612 C39.8890876,111.464612 39.3156682,111.453652 38.7459834,111.424465 L38.7385143,111.424465 C32.9514806,111.199387 27.2777215,109.751286 22.0906618,107.175469 C20.4412229,106.356703 18.8496881,105.426132 17.3271889,104.390264 L17.6007742,103.85002 L17.6007742,103.846367 L17.9193733,103.225806 L23.1138101,104.747989 L45.1098286,111.205441 Z" id="路径" fill="#2F2E41"></path>
                <ellipse id="椭圆形" fill="#2F2E41" transform="translate(42.932131, 37.322349) rotate(-72.248620) translate(-42.932131, -37.322349) " cx="42.9321306" cy="37.3223494" rx="7.73172719" ry="12.4099207"></ellipse>
            </g>
            <g id="分组-4" transform="translate(0.000000, 169.216590)">
                <path d="M2.4932422e-06,50.875576 C-0.000717659751,52.9219009 0.154571032,54.9653029 0.464518622,56.9880184 C1.95453277,66.5440447 6.86802674,75.2324123 14.2894034,81.4341014 C14.4921684,81.6036866 14.69862,81.7732719 14.9087583,81.9391705 C15.3437813,82.2893837 15.7861776,82.6297831 16.2359472,82.9603687 C16.8847951,83.4396313 17.5483896,83.8980031 18.2267306,84.3354839 C29.0462226,91.3064422 42.5649434,92.6271499 54.5290348,87.8820276 C54.8092191,87.7714286 55.0894034,87.6571429 55.3659011,87.5391705 C55.8082974,87.3511521 56.2433205,87.1557604 56.6783435,86.9493088 C57.7806477,86.4368664 58.8559165,85.8728111 59.90415,85.2571429 C60.9843343,84.6267281 62.0288811,83.9483871 63.0377905,83.2221198 C63.49862,82.8903226 63.944703,82.5548387 64.3907859,82.2046083 L64.3981592,82.2009217 C70.2968728,77.5683386 74.7712879,71.3677857 77.3087583,64.3096774 L77.3087583,64.3059908 C83.5537126,46.8197772 76.9006195,27.337466 61.2645186,17.3235023 C60.9142882,17.1023041 60.5603712,16.881106 60.2027675,16.6746544 C59.8341039,16.4460829 59.458067,16.2322581 59.0783435,16.0258065 C53.9678683,13.1899004 48.2915033,11.5240107 42.4589887,11.1483871 C41.5852559,11.0894009 40.70415,11.0599078 39.8156707,11.0599078 C39.7714311,11.0599078 39.7271914,11.0599078 39.6829518,11.0635945 C38.4884818,11.0635945 37.3087583,11.118894 36.1437813,11.2294931 C15.6642643,13.1258382 -0.00044740832,30.3084484 2.49324221e-06,50.875576 Z" id="路径" fill="#3F3D56"></path>
                <path d="M80.7373272,64.551638 C80.7373272,64.551638 92.3658912,52.5354574 95.4668424,59.9002095 C98.5677935,67.2649615 83.8382783,71.1411569 83.8382783,71.1411569 L80.7373272,64.551638 Z" id="路径" fill="#FFB8B8"></path>
                <path d="M14.7465438,81.969349 C15.1815668,82.3195622 15.6239631,82.6599616 16.0737327,82.9905471 C16.7225806,83.4698098 17.3861751,83.9281816 18.0645161,84.3656624 C28.8840081,91.3366206 42.402729,92.6573284 54.3668203,87.9122061 C54.6470046,87.8016071 54.9271889,87.6873213 55.2036866,87.569349 C55.6460829,87.3813306 56.081106,87.1859389 56.516129,86.9794872 L55.4949309,85.5122061 C54.7544985,84.8191806 53.9251007,84.2278109 53.0285935,83.7536808 C46.0424184,79.9601324 32.8848147,80.0781048 23.9815889,80.7011462 C22.7133862,80.7896255 21.5336627,80.8891647 20.4719115,80.9887038 C19.8083171,81.04769 19.1889622,81.1103628 18.6249069,81.169349 C18.3963355,81.1951554 18.178824,81.2172753 17.9723724,81.2393951 C15.9852756,81.4605932 14.7944922,81.6338651 14.7944922,81.6338651 L14.7465438,81.969349 Z" id="路径" fill="#2F2E41"></path>
                <circle id="椭圆形" fill="#FFB8B8" cx="49.1114544" cy="17.0377217" r="11.1391041"></circle>
                <path d="M41.8021124,20.6451613 L33.6621198,29.1727779 L31.3364055,42.3518157 L51.8801843,45.8403834 L50.3297106,33.8242028 C50.3297106,33.8242028 50.7173272,28.0099207 52.2678046,26.8470636 C53.818282,25.6842065 41.8021124,20.6451613 41.8021124,20.6451613 Z" id="路径" fill="#FFB8B8"></path>
                <path d="M17.6958525,82.6175115 C18.3754216,82.3992135 19.065727,82.2158703 19.7640553,82.0682028 C21.5215042,81.6860952 23.3089126,81.4578891 25.1059908,81.3861751 C29.3588059,81.1621163 33.6017372,81.9836147 37.4635945,83.7788018 C43.1115207,86.4884793 49.8138249,87.2258065 54.4221198,87.3658986 C54.7576037,87.3769585 55.0820276,87.3843318 55.3917051,87.3880184 C55.8341014,87.2 56.2691244,87.0046083 56.7041475,86.7981567 C57.8064516,86.2857143 58.8817204,85.721659 59.9299539,85.1059908 L59.9152074,83.7419355 L59.6718894,56.7557604 L59.6718894,56.7520737 L59.5576037,43.8525346 L52.1953917,35.3253456 L50.3041475,33.19447 L49.4046083,34.0018433 L44.0552995,38.8165899 L36.2580645,31.59447 L33.5889401,29.124424 L20.7852535,72.2248848 L19.1336406,77.7843318 L18.1603687,81.0580645 L18.0092166,81.559447 L18.0092166,81.5631336 L17.6958525,82.6175115 Z" id="路径" fill="#575A89"></path>
                <path d="M47.5588734,45.1539171 C47.5774579,47.0902029 47.7401191,49.0224208 48.0455094,50.9345622 C49.3726983,59.4101382 50.5118688,73.5004608 53.3321453,83.675576 C53.7008089,85.0175115 54.1026522,86.2857143 54.5376753,87.4691244 L54.6703942,87.8341014 C54.9505785,87.7235023 55.2307628,87.6092166 55.5072605,87.4912442 C55.9496568,87.3032258 56.3846799,87.1078341 56.8197029,86.9013825 C57.9220071,86.3889401 58.9972759,85.8248848 60.0455094,85.2092166 C61.1256937,84.5788018 62.1702406,83.9004608 63.1791499,83.1741935 L63.0611776,82.7096774 L63.0611776,82.7059908 L61.2252329,75.3548387 C61.2252329,75.3548387 62.4049564,69.2018433 63.3487352,62.318894 L63.3487352,62.3152074 C64.4326062,54.4368664 65.2067997,45.6110599 63.5515002,43.9557604 L50.5634817,32.0737327 L50.5597951,32.0774194 C50.1551382,32.7218931 49.8072844,33.4003313 49.5201638,34.1050691 C48.6353711,36.202765 47.5146338,39.9041475 47.5588734,45.1539171 Z" id="路径" fill="#D0CDE1"></path>
                <path d="M7.00460829,73.3009362 C9.0567421,76.2850614 11.5063604,78.9753004 14.2857143,81.2972496 C14.4884793,81.4668349 14.6949309,81.6364201 14.9050691,81.8023187 C15.3400922,82.1525319 15.7824885,82.4929313 16.2322581,82.8235169 C16.881106,83.3027796 17.5447005,83.7611513 18.2230415,84.1986321 C18.724424,83.5018579 19.2294931,82.7940238 19.7345622,82.0825031 C20.0331797,81.6659304 20.3317972,81.2456539 20.6304147,80.8216736 C21.1023041,80.1507058 21.5742157,79.4760515 22.0387097,78.7977104 C22.0976959,78.7166045 22.1529954,78.6354985 22.2082949,78.5543925 C22.7981567,77.7027796 23.3806452,76.84748 23.9483871,75.9958671 C28.1364055,69.7396459 31.6092166,63.734116 32.0073733,60.1470192 C32.4866359,55.8520883 33.4562212,49.2087704 34.440553,42.8640699 C35.0746544,38.7424109 35.716129,34.7460975 36.2285714,31.6087704 C36.8479263,27.7967888 37.275576,25.2456367 37.275576,25.2456367 C37.275576,25.2456367 16.962212,23.2143003 14.116129,25.2087704 L14.1124424,25.2087704 C13.9472083,25.3036099 13.8304658,25.464634 13.7917051,25.6511667 C13.4820276,27.8115353 15.1410138,47.8889362 15.8267281,55.9995353 L15.8267281,56.003222 C16.0036866,58.0824846 16.1179724,59.3728072 16.1179724,59.3728072 C16.1179724,59.3728072 14.956682,60.9248809 13.2534562,63.4133602 C11.5170507,65.9534708 9.21290323,69.4668349 7.00460829,73.3009362 Z" id="路径" fill="#D0CDE1"></path>
                <path d="M62.1099031,54.9308756 L64.0479971,70.0480111 L81.1032266,62.6832516 L86.5298884,73.9241991 L58.6213169,84.389906 C58.6213169,84.389906 53.5822902,57.6442065 62.1099031,54.9308756 Z" id="路径" fill="#D0CDE1"></path>
                <path d="M60.1961506,19.1231846 C60.1961506,19.1231846 61.7098354,17.488604 61.5566299,15.4422998 C61.4556772,14.278266 61.5301361,13.1056711 61.7775147,11.963756 C61.7775147,11.963756 61.3037598,8.61449522 60.6042207,6.67312379 C59.9046815,4.73175236 60.4943995,4.05613577 57.4873543,2.99626849 C54.4803091,1.93640121 56.3946354,-1.89634718 47.5289691,1.15859107 C46.8394674,1.85483834 45.7987412,2.06778359 44.891181,1.69831457 C43.2543958,1.09886757 42.2680105,3.3475201 42.2680105,3.3475201 C42.2680105,3.3475201 41.2470631,2.50987955 40.6741783,3.38074038 C40.1012935,4.25160121 37.3305727,2.26672379 36.3145691,8.60222609 C35.2985654,14.9377284 38.7864806,20.5874795 38.7864806,20.5874795 C38.7864806,20.5874795 39.2758815,10.449168 45.0336068,10.2653745 C50.7913322,10.0815809 57.3025617,7.90061872 58.1101488,12.1698906 C58.5321977,14.5610126 59.2322814,16.8946098 60.1961506,19.1231846 Z" id="路径" fill="#2F2E41"></path>
                <path d="M14.3778802,81.4820276 C14.5806452,81.6516129 14.7870968,81.8211982 14.997235,81.9870968 C15.4322581,82.33731 15.8746544,82.6777094 16.324424,83.0082949 C16.9732719,83.4875576 17.6368664,83.9459293 18.3152074,84.3834101 C21.5815829,86.4967736 25.1418816,88.1166722 28.881106,89.1907834 C29.7953917,86.8460829 27.60553,83.9299539 25.168682,81.5852535 C24.8590046,81.2866359 24.5419539,80.9953917 24.2322765,80.718894 C23.4949493,80.0663594 22.768682,79.4764977 22.130894,78.9824885 C22.1014009,78.9603687 22.0755945,78.9419355 22.049788,78.9198157 C20.8442581,77.9907834 19.9705253,77.4193548 19.9705253,77.4193548 L19.1963318,77.9834101 L14.3778802,81.4820276 Z" id="路径" fill="#FFB8B8"></path>
                <path d="M0.368663594,57.1079309 C1.85867774,66.6639571 6.77217172,75.3523247 14.1935484,81.5540138 C14.3963134,81.7235991 14.602765,81.8931843 14.8129032,82.0590829 C15.2479263,82.4092961 15.6903226,82.7496955 16.1400922,83.0802811 L17.8875576,81.8341981 L17.8875576,81.8305115 L18.6912442,81.2590829 L21.8654378,78.9918018 L22.116129,78.8111567 L24.5529954,77.0710645 L23.8562212,76.2526313 L20.6635945,72.4959493 L13.1612903,63.6701428 L11.3732719,61.5687603 L15.7345622,56.2600046 L15.7345622,56.256318 L20.2875576,50.7153041 L16.4129032,25.9079309 C15.6791371,25.523758 14.8466396,25.3695918 14.0239631,25.4655345 L14.0202765,25.4655345 C13.1428571,25.6166866 12.2470046,26.2212949 11.7603687,27.8434147 C10.8792627,30.7816636 3.7640553,48.6360415 0.368663594,57.1079309 Z" id="路径" fill="#D0CDE1"></path>
            </g>
        </g>
    </g>
</svg>