<?xml version="1.0" encoding="UTF-8"?>
<svg width="450px" height="340px" viewBox="0 0 450 340" version="1.1" xmlns="http://www.w3.org/2000/svg" xmlns:xlink="http://www.w3.org/1999/xlink">
    <!-- Generator: Sketch 52.2 (67145) - http://www.bohemiancoding.com/sketch -->
    <title>undraw_work_chat_erdt copy 3</title>
    <desc>Created with Sketch.</desc>
    <defs>
        <linearGradient x1="50.0076061%" y1="100.018553%" x2="50.0076061%" y2="-0.0145695178%" id="linearGradient-1">
            <stop stop-color="#808080" stop-opacity="0.25" offset="0%"></stop>
            <stop stop-color="#808080" stop-opacity="0.12" offset="54%"></stop>
            <stop stop-color="#808080" stop-opacity="0.1" offset="100%"></stop>
        </linearGradient>
        <linearGradient x1="50.0178361%" y1="99.9902032%" x2="50.0178361%" y2="-0.00902640557%" id="linearGradient-2">
            <stop stop-color="#808080" stop-opacity="0.25" offset="0%"></stop>
            <stop stop-color="#808080" stop-opacity="0.12" offset="54%"></stop>
            <stop stop-color="#808080" stop-opacity="0.1" offset="100%"></stop>
        </linearGradient>
    </defs>
    <g id="切图" stroke="none" stroke-width="1" fill="none" fill-rule="evenodd">
        <g id="undraw_growth_analytics_8btt" transform="translate(24.000000, 26.000000)">
            <path d="M161.319066,21.3657588 L155.280156,25.1984436 L158.945525,18.5291829 C157.907631,17.7010756 156.623389,17.2424181 155.29572,17.2256809 L155.198444,17.2256809 C154.778972,17.233248 154.359663,17.2032974 153.945525,17.1361868 L151.898833,18.4319066 L152.774319,16.8365759 C151.323592,16.3290671 150.070571,15.3756814 149.194553,14.1128405 L145.533074,16.4474708 L147.859922,12.233463 C145.719844,9.66536965 142.832685,8.08560311 139.653696,8.08560311 C135.844358,8.08560311 132.451362,10.3540856 130.2607,13.8832685 C128.941735,16.0408067 126.562171,17.3198226 124.035019,17.229572 L123.832685,17.229572 C119.626459,17.229572 116.217899,22 116.217899,27.8793774 C116.217899,33.7587549 119.626459,38.5291829 123.832685,38.5291829 C124.756389,38.5257363 125.665537,38.298783 126.48249,37.8677043 C129.225681,36.4396887 132.828794,36.4124514 135.700389,37.6848249 C138.194059,38.7976657 141.043296,38.7976657 143.536965,37.6848249 C146.462566,36.4168472 149.794415,36.4807301 152.669261,37.8599222 C153.48029,38.2831667 154.380903,38.505985 155.29572,38.5097276 C159.501946,38.5097276 162.910506,33.7431907 162.910506,27.8599222 C162.931724,25.5961457 162.384534,23.3632352 161.319066,21.3657588 Z" id="路径" fill="#F2F2F2"></path>
            <path d="M149.937743,36.9494163 C147.740235,36.5325353 145.468328,36.7804536 143.412451,37.6614786 C140.920101,38.7741482 138.072117,38.7741482 135.579767,37.6614786 C132.629373,36.3674216 129.259802,36.4328502 126.361868,37.8404669 C125.545876,38.2745069 124.636305,38.5029012 123.712062,38.5058366 C119.972763,38.5058366 116.867704,34.7431907 116.217899,29.7782101 C116.964571,29.2330302 117.59878,28.5486129 118.085603,27.7626459 C120.276265,24.233463 123.669261,21.9688716 127.478599,21.9688716 C131.287938,21.9688716 134.642023,24.2062257 136.817121,27.7003891 C138.146547,29.8446582 140.500561,31.1375211 143.023346,31.1089494 L143.120623,31.1089494 C146.108949,31.0894942 148.684825,33.4747082 149.937743,36.9494163 Z" id="路径" fill="#000000" opacity="0.03"></path>
            <path d="M109.77821,187.264591 L107.330739,185.743191 C107.097276,185.599222 106.867704,185.44358 106.634241,185.29572 C117.362749,183.450087 125.381898,174.419273 125.945888,163.547789 C126.509878,152.676305 119.468261,142.86417 108.988327,139.918288 L109.108949,149.513619 L103.836576,139.07393 L103.770428,139.07393 C90.9229274,138.477635 80.0229391,148.405717 79.4202335,161.252918 C79.3968872,161.700389 79.4202335,162.136187 79.4202335,162.575875 C77.5875486,160.48249 75.9182879,158.237354 74.8171206,155.77821 C72.5875486,150.801556 72.5447471,145.163424 72.7198444,138.307393 C73.0700389,124.727626 73.6575875,111.038911 74.4202335,97.3968872 C85.793578,96.1306396 94.561562,86.7886792 95.1050584,75.3579767 C95.1361868,74.6459144 95.1245136,73.9455253 95.1050584,73.2451362 C95.1050584,73.0700389 95.1050584,72.8988327 95.077821,72.7237354 C95.0311284,72.0466926 94.9688716,71.3774319 94.8638132,70.7159533 C94.8638132,70.6070039 94.8249027,70.5019455 94.8054475,70.3968872 C94.7120623,69.8365759 94.5953307,69.2840467 94.463035,68.7392996 C94.4124514,68.5330739 94.3618677,68.3307393 94.307393,68.1284047 C94.1439689,67.5330739 93.9649805,66.9610895 93.7548638,66.3696498 C93.6848249,66.1789883 93.6031128,65.9805447 93.5291829,65.8015564 C93.3657588,65.3774319 93.1867704,64.9571984 92.9961089,64.5447471 C92.8949416,64.3268482 92.7976654,64.1089494 92.692607,63.8949416 C92.6614786,63.8404669 92.6420233,63.7821012 92.6108949,63.7276265 C87.5362887,53.7112373 76.0360207,48.7432786 65.2645914,51.9143969 L65.4202335,64.4046693 L60.2062257,54.0856031 C51.4070526,59.1173588 46.8979553,69.2829225 49.07393,79.1828794 L49.0505837,79.1828794 C49.0856031,79.3501946 49.1361868,79.5097276 49.1750973,79.6731518 C49.2490272,79.9805447 49.3268482,80.2840467 49.4124514,80.5875486 C49.5214008,80.9766537 49.6459144,81.3657588 49.7743191,81.7548638 C49.8715953,82.0428016 49.9649805,82.3268482 50.07393,82.6108949 C50.233463,83.0233463 50.4124514,83.4241245 50.5914397,83.8249027 C50.6964981,84.0583658 50.7898833,84.2996109 50.9027237,84.5291829 C51.1984436,85.1309987 51.5201038,85.7185473 51.8677043,86.2918288 C51.9883268,86.4941634 52.1245136,86.6809339 52.2568093,86.8793774 C52.5058366,87.2684825 52.7548638,87.6575875 53.0350195,88.0194553 C53.2023346,88.2490272 53.381323,88.4708171 53.5564202,88.692607 C53.8132296,89.0155642 54.07393,89.3346304 54.3346304,89.6420233 C54.5252918,89.8638132 54.7237354,90.077821 54.922179,90.2879377 C55.2101167,90.5914397 55.5019455,90.8832685 55.8054475,91.1673152 C56.0077821,91.3579767 56.1945525,91.5564202 56.4163424,91.7354086 C56.7587549,92.0428016 57.1167315,92.3307393 57.4785992,92.614786 C57.6614786,92.7587549 57.8404669,92.9066148 58.0272374,93.0466926 C58.5797665,93.4357977 59.1478599,93.8249027 59.7354086,94.2140078 C59.844358,94.2801556 59.9649805,94.3346304 60.07393,94.4007782 C60.5680934,94.688716 61.0661479,94.9649805 61.5797665,95.2140078 C61.8015564,95.3229572 62.0272374,95.4202335 62.2529183,95.5214008 C62.6731518,95.7081712 63.0972763,95.8910506 63.5330739,96.0583658 L64.311284,96.3307393 C64.7392996,96.4747082 65.1750973,96.6108949 65.614786,96.7198444 C65.8715953,96.7898833 66.1322957,96.8638132 66.3929961,96.92607 C66.8677043,97.0389105 67.3540856,97.1322957 67.844358,97.2178988 L67.9377432,97.2373541 C67.618677,102.993515 67.3333333,108.750973 67.0817121,114.509728 C64.2768829,108.746063 59.2197036,104.393887 53.1024289,102.479247 C46.9851542,100.564607 40.3491023,101.25693 34.7587549,104.392996 L38.8754864,115.677043 L30.4046693,107.544747 C25.8633922,111.697277 23.1566665,117.483008 22.8793774,123.63035 C22.7712771,125.786356 22.9704184,127.946777 23.4708171,130.046693 C25.6555303,139.336777 33.2881078,146.353089 42.7288604,147.749812 C52.1696129,149.146536 61.5068276,144.64084 66.2879377,136.381323 C66.2879377,136.964981 66.2490272,137.548638 66.233463,138.136187 C66.077821,144.182879 65.8832685,151.708171 68.8988327,158.428016 C70.9416342,162.980545 74.2256809,166.680934 77.459144,169.996109 C79.5719844,172.151751 81.7626459,174.241245 84.0077821,176.2607 C86.2182294,179.228097 89.1013872,181.628505 92.4202335,183.264591 C96.1089494,186.105058 99.9299611,188.77821 103.879377,191.245136 L106.346304,192.77821 C108.564202,194.151751 110.836576,195.564202 113.062257,197.031128 C112.673152,196.992218 112.284047,196.949416 111.894942,196.929961 C101.762343,196.457877 92.4882447,202.594454 88.9610895,212.105058 L103.521401,223.929961 L87.5136187,220.217899 C87.5223886,228.22405 91.6404434,235.665165 98.4196016,239.924455 C105.19876,244.183744 113.689765,244.664797 120.906615,241.198444 L119.844358,242.540856 C119.128405,243.43061 118.42153,244.315175 117.723735,245.194553 C108.252918,257.190661 105.618677,268.575875 110.307393,277.256809 L116.011673,274.178988 C111.428016,265.727626 118.287938,254.910506 122.789883,249.22179 C123.474708,248.357977 124.169909,247.488975 124.875486,246.614786 C130.92607,239.097276 137.782101,230.575875 137.614786,220.124514 C137.354086,204.361868 122.066148,194.883268 109.77821,187.264591 Z" id="路径" fill="#F2F2F2"></path>
            <path d="M215.202335,170.042802 L218.252918,168.143969 C218.544747,167.961089 218.828794,167.754864 219.120623,167.583658 C205.68011,165.272415 195.654561,153.92631 195.015564,140.303502 C194.794744,135.757265 195.654838,131.22344 197.525292,127.07393 C201.057425,119.204387 207.898295,113.306987 216.202335,110.972763 L216.050584,122.945525 L222.614786,109.922179 L222.692607,109.922179 C238.725355,109.176282 252.32811,121.566651 253.077821,137.599222 C253.105058,138.155642 253.077821,138.700389 253.077821,139.249027 C255.36965,136.638132 257.447471,133.836576 258.821012,130.770428 C261.607004,124.544747 261.661479,117.540856 261.439689,108.980545 C261.003891,92.0350195 260.272374,74.9610895 259.319066,57.9416342 C245.128535,56.3626654 234.189098,44.7056989 233.513619,30.4435798 C233.474708,29.5564202 233.486381,28.6809339 233.513619,27.8093385 C233.513619,27.5914397 233.525292,27.3735409 233.548638,27.155642 C233.603113,26.311284 233.684825,25.4747082 233.809339,24.6536965 C233.828794,24.5175097 233.859922,24.385214 233.883268,24.2645914 C234.002594,23.5642023 234.146563,22.8741894 234.315175,22.1945525 C234.377432,21.9416342 234.439689,21.6848249 234.505837,21.4163424 C234.712062,20.6770428 234.933852,19.9416342 235.194553,19.2256809 C235.280156,18.9844358 235.381323,18.7548638 235.474708,18.5175097 C235.684825,17.9844358 235.906615,17.463035 236.143969,16.9610895 C236.268482,16.692607 236.389105,16.4202335 236.533074,16.151751 C236.564202,16.0856031 236.595331,16.0116732 236.63035,15.9455253 C242.955886,3.44356325 257.308931,-2.75568167 270.747082,1.21011673 L270.552529,16.7743191 L277.058366,3.90272374 C288.035977,10.179862 293.657452,22.8652257 290.933852,35.2140078 L290.964981,35.2140078 C290.922179,35.4202335 290.856031,35.6031128 290.809339,35.8249027 C290.715953,36.2140078 290.618677,36.6031128 290.513619,36.9649805 C290.377432,37.4513619 290.22179,37.92607 290.062257,38.4007782 C289.941634,38.7587549 289.824903,39.1167315 289.673152,39.4708171 C289.474708,39.9844358 289.252918,40.4863813 289.027237,40.9844358 C288.894942,41.2762646 288.77821,41.5758755 288.638132,41.8638132 C288.249027,42.614786 287.859922,43.3501946 287.435798,44.0622568 C287.287938,44.3151751 287.116732,44.5525292 286.957198,44.7976654 C286.645914,45.2801556 286.330739,45.7548638 285.992218,46.2178988 C285.782101,46.5058366 285.560311,46.7782101 285.342412,47.0583658 C285.023346,47.4474708 284.700389,47.8599222 284.357977,48.2451362 C284.119326,48.5045396 283.874189,48.773022 283.622568,49.0505837 C283.268482,49.4396887 282.898833,49.7898833 282.525292,50.1478599 C282.272374,50.385214 282.023346,50.6264591 281.747082,50.8560311 C281.315175,51.2451362 280.871595,51.5953307 280.416342,51.9494163 C280.190661,52.1284047 279.968872,52.3190661 279.735409,52.4902724 C279.046693,52.9961089 278.338521,53.4785992 277.603113,53.92607 C277.466926,54.0077821 277.319066,54.077821 277.178988,54.1595331 C276.56939,54.5226978 275.944228,54.8612192 275.303502,55.1750973 C275.027237,55.311284 274.743191,55.4280156 274.463035,55.5642023 C273.937743,55.8015564 273.40856,56.0272374 272.867704,56.233463 C272.548638,56.3540856 272.229572,56.4669261 271.910506,56.5758755 C271.373541,56.7587549 270.832685,56.922179 270.284047,57.07393 C269.961089,57.1634241 269.638132,57.2529183 269.307393,57.3346304 C268.712062,57.4747082 268.108949,57.5914397 267.498054,57.6964981 L267.377432,57.7198444 C267.782101,64.9027237 268.138781,72.0869001 268.447471,79.2723735 C271.947381,72.0819915 278.257966,66.6534697 285.890618,64.2673453 C293.523271,61.881221 301.80214,62.7487786 308.774319,66.6653696 L303.673152,80.7392996 L314.237354,70.5953307 C319.903833,75.7745693 323.281128,82.9924341 323.626459,90.6614786 C323.759671,93.3417596 323.512069,96.0273877 322.891051,98.6381323 C320.172465,110.236876 310.648074,119.000255 298.863565,120.745791 C287.079055,122.491326 275.423271,116.865179 269.459144,106.552529 C269.459144,107.280156 269.509728,108.015564 269.529183,108.743191 C269.723735,116.287938 269.964981,125.677043 266.206226,134.058366 C263.657588,139.743191 259.55642,144.354086 255.501946,148.490272 C252.863813,151.182879 250.140078,153.788586 247.330739,156.307393 C244.56911,160.007286 240.9684,162.998543 236.824903,165.035019 C232.22179,168.579767 227.455253,171.914397 222.529183,174.996109 L219.455253,176.914397 C216.688716,178.626459 213.856031,180.389105 211.07393,182.217899 C211.564202,182.171206 212.046693,182.116732 212.544747,182.093385 C225.181967,181.5031 236.750375,189.152441 241.155642,201.011673 L223,215.797665 L242.972763,211.171206 C242.958727,221.159185 237.819425,230.440964 229.361541,235.753602 C220.903657,241.06624 210.31102,241.66614 201.307393,237.342412 C201.758755,237.902724 202.206226,238.463035 202.657588,239.019455 C203.548638,240.128405 204.439689,241.233463 205.307393,242.330739 C217.120623,257.291829 220.40856,271.513619 214.55642,282.330739 L207.44358,278.490272 C213.136187,267.945525 204.571984,254.451362 198.957198,247.361868 C198.105058,246.284047 197.233463,245.198444 196.357977,244.108949 C188.809339,234.731518 180.252918,224.101167 180.463035,211.062257 C180.785992,191.36965 199.867704,179.544747 215.202335,170.042802 Z" id="路径" fill="#F2F2F2"></path>
            <path d="M341.891051,73.233463 L341.891051,209.645914 C341.891051,210.389965 341.595478,211.103542 341.069354,211.629665 C340.543231,212.155789 339.829654,212.451362 339.085603,212.451362 L61.0350195,212.451362 C60.2913258,212.451363 59.5781487,212.155665 59.0526429,211.62943 C58.5271372,211.103194 58.2324301,210.389607 58.233463,209.645914 L58.233463,73.233463 C58.2324301,72.4897701 58.5271372,71.7761833 59.0526429,71.2499477 C59.5781487,70.723712 60.2913258,70.4280148 61.0350195,70.4280156 L339.085603,70.4280156 C340.635009,70.4280156 341.891051,71.6840572 341.891051,73.233463 Z" id="路径" fill="#3F3D56"></path>
            <path d="M341.891051,72.2996109 L341.891051,78.5992218 L58.233463,78.5992218 L58.233463,72.2996109 C58.233463,71.2659573 59.0714048,70.4280156 60.1050584,70.4280156 L340.019455,70.4280156 C341.053109,70.4280156 341.891051,71.2659573 341.891051,72.2996109 Z" id="路径" fill="#CBCEDA"></path>
            <circle id="椭圆形" fill="#009688" cx="64.459144" cy="74.3190661" r="1.94552529"></circle>
            <circle id="椭圆形" fill="#009688" cx="69.9066148" cy="74.3190661" r="1.94552529"></circle>
            <circle id="椭圆形" fill="#009688" cx="75.3540856" cy="74.3190661" r="1.94552529"></circle>
            <path d="M296.29572,170.027237 L296.29572,193.44358 L103.610895,193.548638 L103.435798,146.7393 C105.470817,152.735409 110.494163,153.81323 119.338521,143.237354 C140.953307,117.424125 170.33463,110.63035 193.077821,109.918288 C208.642023,109.428016 224.171206,112.642023 238.992218,119.027237 C245.14786,121.684825 269.474708,124.544747 285.529183,125.821012 C291.571146,126.29734 296.235342,131.332301 296.249027,137.392996 L296.29572,170.027237 Z" id="路径" fill="#009688" opacity="0.2"></path>
            <path d="M296.29572,147.128405 L296.29572,193.66537 L103.435798,193.66537 L103.435798,183.548638 C108.949416,182.159533 129.571984,176.817121 139.459144,162.062257 C151.287938,144.396887 167.365759,139.750973 179.805447,139.264591 C188.330739,138.92607 196.817121,141.116732 204.918288,145.490272 C214.031128,150.40856 231.599222,156.342412 244.945525,139.116732 C259.708171,120.070039 282.385214,135.766537 288.136187,141.536965 C290.190661,143.575875 296.29572,147.128405 296.29572,147.128405 Z" id="路径" fill="#009688" opacity="0.2"></path>
            <polyline id="路径" stroke="#009688" stroke-width="2" points="103.435798 97.7743191 103.435798 192.933852 296.29572 192.933852"></polyline>
            <path d="M127.735409,192.933852 L127.735409,134.922179" id="路径" stroke="#009688"></path>
            <path d="M151.143969,192.933852 L151.143969,119.404669" id="路径" stroke="#009688"></path>
            <path d="M174.552529,192.933852 L174.552529,112.023346" id="路径" stroke="#009688"></path>
            <path d="M197.961089,192.933852 L197.961089,109.735409" id="路径" stroke="#009688"></path>
            <path d="M221.36965,192.933852 L221.36965,112.280156" id="路径" stroke="#009688"></path>
            <path d="M244.77821,192.933852 L244.77821,121.692607" id="路径" stroke="#009688"></path>
            <path d="M268.18677,192.933852 L268.18677,126.525292" id="路径" stroke="#009688"></path>
            <circle id="椭圆形" fill="#009688" cx="127.607004" cy="134.159533" r="4.32684825"></circle>
            <circle id="椭圆形" fill="#009688" cx="151.015564" cy="119.404669" r="4.32684825"></circle>
            <circle id="椭圆形" fill="#009688" cx="174.424125" cy="112.280156" r="4.32684825"></circle>
            <circle id="椭圆形" fill="#009688" cx="197.828794" cy="109.735409" r="4.32684825"></circle>
            <circle id="椭圆形" fill="#009688" cx="221.237354" cy="112.280156" r="4.32684825"></circle>
            <circle id="椭圆形" fill="#009688" cx="244.645914" cy="121.945525" r="4.32684825"></circle>
            <circle id="椭圆形" fill="#009688" cx="268.054475" cy="127.035019" r="4.32684825"></circle>
            <ellipse id="椭圆形" fill="#3F3D56" cx="200" cy="279.377432" rx="200" ry="8.17120623"></ellipse>
            <path d="M22.3891051,137.245136 C22.3735082,137.582188 22.2643747,137.908242 22.07393,138.18677 C23.6303502,138.140078 25.0116732,137.116732 26.4474708,136.63035 C26.1906615,138.140078 26.4474708,139.929961 26.6420233,141.214008 C26.8296752,142.459424 27.1398707,143.683263 27.5680934,144.867704 C28.5525292,149.097276 30.3463035,153.256809 31.9533074,157.319066 C32.6460762,158.929207 33.1677468,160.607682 33.5097276,162.326848 C34.6031128,168.883268 30.8210117,175.225681 30.1050584,181.828794 C30.0505278,182.19252 30.0505278,182.562344 30.1050584,182.92607 C30.0407008,182.994075 29.9833436,183.068379 29.9338521,183.14786 C27.2918288,187.202335 27.6342412,193.988327 28.1089494,198.789883 C28.5836576,203.59144 30.1050584,208.22179 31.540856,212.832685 C31.968618,214.103584 32.3028431,215.404071 32.540856,216.723735 C32.7689845,218.53065 32.8055038,220.356615 32.6498054,222.171206 C32.1750973,230.618677 30.9844358,239.140078 32.3891051,247.463035 C33.4124514,253.529183 35.6459144,259.046693 35.8910506,265.190661 C36.076276,264.737203 36.3702671,264.336306 36.7470817,264.023346 L37.1673152,280.159533 C37.1280526,280.465232 37.2415147,280.770707 37.4708171,280.976654 C37.770428,281.167315 38.1595331,280.976654 38.5136187,280.92607 C39.540856,280.801556 40.1984436,281.918288 40.8793774,282.692607 C41.9027237,283.859922 43.4785992,284.412451 45.0233463,284.533074 C46.5784085,284.591288 48.1345225,284.450061 49.6536965,284.11284 C50.3657588,283.984436 51.1206226,283.836576 51.6536965,283.33463 C52.2067587,282.771061 52.4582066,281.9777 52.3307393,281.198444 C52.0272374,278.821012 49.4669261,277.466926 48.1789883,275.439689 C46.6575875,273.042802 47.0116732,269.832685 45.5252918,267.40856 C45.0155642,266.579767 44.311284,265.879377 43.8560311,265.019455 C43.6263858,264.489625 43.4453563,263.940024 43.3151751,263.377432 C43.7771545,263.516796 44.2153366,263.725392 44.614786,263.996109 C44.4747082,262.735409 44.3307393,261.470817 44.1906615,260.206226 L44.1284047,259.661479 C43.9377432,257.953307 43.7392996,256.249027 43.5992218,254.536965 C43.1206226,248.902724 44.7198444,243.381323 43.5992218,237.836576 C43.3657588,236.669261 43.7392996,235.451362 44.0856031,234.303502 C46.0530188,227.76445 47.2530431,221.01872 47.6614786,214.202335 C47.8015564,211.797665 47.7976654,209.478599 48.5680934,207.198444 C49.4708171,210.875486 52.2607004,213.774319 54.0155642,217.14786 C55.0972763,219.249027 55.770428,221.544747 56.9494163,223.59144 C57.5175097,224.587549 58.2101167,225.536965 58.5719844,226.618677 C59.1322957,228.311284 58.8365759,230.14786 58.5719844,231.914397 C57.307393,241.058366 57.4552529,250.365759 57.8599222,259.587549 C57.4756232,263.116244 56.6642368,266.585215 55.4435798,269.918288 C54.9610895,271.233463 54.4357977,272.766537 55.1828794,273.953307 C55.4979736,274.38845 55.8943812,274.75843 56.3501946,275.042802 C57.4561362,275.829453 58.6188532,276.533066 59.8287938,277.14786 C60.1881915,277.383891 60.620286,277.483287 61.0466926,277.428016 C61.3112118,277.336047 61.5604231,277.204884 61.7859922,277.038911 C62.7315175,276.470817 63.9533074,276.560311 64.9961089,276.92607 C66.0389105,277.291829 66.9805447,277.902724 67.9922179,278.342412 C70.1131012,279.254218 72.4801165,279.421528 74.7081712,278.817121 C75.6498054,278.55642 76.6536965,278.058366 76.9455253,277.136187 C77.2373541,276.214008 76.7003891,275.241245 75.9571984,274.634241 C75.2140078,274.027237 74.2957198,273.700389 73.4435798,273.256809 C71.5760045,272.282881 70.0511853,270.760778 69.07393,268.894942 C68.4867312,267.664395 68.0252479,266.377717 67.6964981,265.054475 C67.2451362,263.466926 66.7950713,261.879377 66.3463035,260.291829 C66.6025697,260.46037 66.8469817,260.646279 67.077821,260.848249 C67.7120623,252.988327 68.3540856,245.105058 70.0389105,237.400778 C70.844358,233.715953 71.8949416,229.984436 71.4863813,226.237354 C71.2723735,224.268482 70.6575875,222.365759 70.07393,220.470817 C68.2581064,214.559014 66.6679637,208.584955 65.3035019,202.548638 C65.8121829,201.979817 66.2082957,201.319629 66.4708171,200.603113 C66.9086367,199.270505 67.1485462,197.880865 67.1828794,196.478599 C67.8355793,187.020676 67.8095723,177.528135 67.1050584,168.07393 C66.92607,165.677043 66.6459144,163.159533 65.7042802,160.980545 L66.2568093,160.980545 C65.5992218,160.980545 64.5252918,154.451362 64.3968872,153.723735 C63.9571984,151.202335 63.6498054,148.66537 63.1945525,146.14786 C62.9727626,144.922179 62.7237354,143.696498 62.4163424,142.490272 C62.2062257,141.688716 61.3657588,136.712062 60.6964981,136.155642 C60.6245322,136.095716 60.5429729,136.048359 60.4552529,136.015564 C60.1195292,134.897302 59.3840954,133.941653 58.3891051,133.330739 C57.311284,132.723735 56.0272374,132.70428 54.770428,132.801556 C54.4150454,132.28275 54.0596628,131.770428 53.7042802,131.264591 C53.0512942,130.42648 52.5520046,129.479279 52.229572,128.466926 C52.1289027,128.043 52.0689676,127.610425 52.0505837,127.175097 C52.0505837,126.883268 52.0311284,126.59144 52.0194553,126.299611 C52.0194553,126.151751 52.0194553,126.007782 52.0194553,125.859922 C52.005876,125.569067 51.9746905,125.279302 51.92607,124.992218 C51.8871595,124.754864 51.8287938,124.525292 51.766537,124.291829 C51.7392996,124.194553 51.7042802,124.093385 51.6731518,123.996109 C51.4941634,123.40856 51.2840467,122.828794 51.1284047,122.237354 C50.6498054,120.326848 50.8910506,118.322957 50.9649805,116.354086 C51.0389105,114.385214 50.9105058,112.299611 49.7976654,110.657588 C48.9844358,109.451362 47.6809339,108.536965 47.2451362,107.155642 C47.0389105,106.498054 47.0505837,105.774319 46.7470817,105.151751 C46.3528903,104.459659 45.7232244,103.932176 44.9727626,103.66537 C44.0933852,103.276265 42.3268482,102.762646 41.381323,103.217899 C41.204096,103.305921 41.0475928,103.430593 40.922179,103.583658 C39.922179,103.634241 38.9143969,103.770428 38.0350195,103.330739 C37.3579767,102.992218 36.8677043,102.350195 36.2101167,101.980545 C34.6536965,101.108949 32.6692607,101.980545 31.2840467,103.116732 C29.0820832,104.920553 27.4729507,107.344419 26.6653696,110.07393 C26.0505837,112.178988 25.8015564,114.638132 24.0389105,115.964981 C23.307393,116.513619 22.3657588,116.817121 21.8326848,117.552529 C21.4699848,118.151064 21.2688732,118.833502 21.2490272,119.533074 C21.0661479,121.128405 20.9143969,122.770428 21.3385214,124.319066 C21.6575875,125.486381 22.2840467,126.529183 22.6731518,127.66537 C23.7324852,130.948304 22.7790915,134.547479 20.233463,136.875486 C20.876481,137.274652 21.6498358,137.407267 22.3891051,137.245136 Z M59.8054475,184.455253 C60.8773185,183.874917 61.6430695,182.856284 61.9027237,181.66537 C61.9455253,181.817121 61.9805447,181.968872 62.0194553,182.120623 C62.5186692,184.152406 62.4172901,186.285423 61.7276265,188.2607 C61.2111184,186.933199 60.5673936,185.65878 59.8054475,184.455253 Z M60.5836576,175.840467 C59.93547,174.91141 59.3876583,173.916219 58.9494163,172.871595 C58.3501946,171.190661 58.4863813,169.36965 58.6303502,167.571984 C58.7072709,166.215282 58.8946619,164.867108 59.1906615,163.540856 C59.3625662,167.669166 59.8320072,171.7797 60.5953307,175.840467 L60.5836576,175.840467 Z" id="形状" fill="url(#linearGradient-1)" fill-rule="nonzero"></path>
            <path d="M45.5252918,104.692607 C46.2642151,104.959549 46.8827811,105.482845 47.2684825,106.167315 C47.5642023,106.785992 47.5564202,107.505837 47.7587549,108.159533 C48.1867704,109.536965 49.4708171,110.447471 50.2645914,111.661479 C51.3463035,113.291829 51.4747082,115.36965 51.4007782,117.322957 C51.3268482,119.276265 51.0933852,121.272374 51.5642023,123.159533 C51.7937743,124.081712 52.1906615,124.964981 52.3424125,125.902724 C52.536965,127.046693 52.3735409,128.237354 52.6575875,129.361868 C52.9734878,130.366391 53.4648696,131.306998 54.1089494,132.140078 L56.6420233,135.844358 C55.5108525,135.572412 54.3972559,135.231966 53.307393,134.824903 C53.6439383,135.883173 54.2692197,136.826486 55.1128405,137.548638 L53.2801556,135.330739 C52.908743,134.820713 52.4471962,134.382903 51.9182879,134.038911 C51.2451362,133.649805 50.4513619,133.595331 49.6964981,133.44358 C48.2412451,133.14786 46.7898833,132.404669 46.077821,131.108949 C45.1322957,129.365759 45.7354086,127.178988 45.2101167,125.272374 C44.8210117,123.879377 43.8638132,122.731518 43.2023346,121.44358 C41.7081712,118.536965 41.7976654,115.105058 41.3307393,111.863813 C41.1322957,110.490272 40.8249027,109.140078 40.8171206,107.731518 C40.8171206,106.708171 40.9182879,104.754864 41.9844358,104.229572 C42.922179,103.793774 44.6575875,104.322957 45.5252918,104.692607 Z" id="路径" fill="#3F3D56"></path>
            <path d="M65.922179,258.252918 L67.8677043,265.167315 C68.189657,266.481956 68.6433122,267.760795 69.2217899,268.984436 C70.1709069,270.834544 71.6648613,272.348871 73.5019455,273.322957 C74.3385214,273.762646 75.2451362,274.101167 75.9727626,274.692607 C76.7003891,275.284047 77.2217899,276.276265 76.9416342,277.178988 C76.6614786,278.081712 75.6692607,278.59144 74.7431907,278.85214 C72.5482605,279.452224 70.2140904,279.28334 68.1284047,278.373541 C67.1361868,277.933852 66.2101167,277.326848 65.1867704,276.964981 C64.1634241,276.603113 62.9571984,276.509728 62.0311284,277.077821 C61.8094007,277.243166 61.5641312,277.374327 61.3035019,277.466926 C60.8836904,277.524227 60.4574193,277.425963 60.1050584,277.190661 C58.9141619,276.579509 57.7708662,275.879744 56.6848249,275.097276 C56.2419011,274.813547 55.8586029,274.44611 55.5564202,274.015564 C54.8171206,272.848249 55.3385214,271.291829 55.8093385,270.003891 C57.0602197,266.553415 57.8745829,262.960021 58.233463,259.307393 C58.2196016,258.980413 58.3488771,258.663617 58.5875486,258.439689 C58.7599631,258.349205 58.9533501,258.30623 59.1478599,258.315175 L67.459144,257.92607" id="路径" fill="#575A89"></path>
            <path d="M44.4046693,265.175097 C44.8521401,266.027237 45.5486381,266.731518 46.0466926,267.552529 C47.5058366,269.961089 47.1595331,273.151751 48.6575875,275.533074 C49.922179,277.548638 52.4396887,278.898833 52.7392996,281.2607 C52.8639984,282.032925 52.6174352,282.818755 52.07393,283.381323 C51.5486381,283.867704 50.8054475,284.011673 50.1050584,284.136187 C48.6135475,284.473321 47.0844519,284.614589 45.5564202,284.55642 C44.0350195,284.435798 42.4863813,283.875486 41.4824903,282.723735 C40.8093385,281.945525 40.1673152,280.844358 39.1478599,280.972763 C38.7976654,281.015564 38.4163424,281.210117 38.1206226,281.019455 C37.8971559,280.813247 37.7870188,280.511819 37.8249027,280.210117 L37.3657588,262.51751 C38.8365759,262.357977 41.385214,261.774319 42.8132296,262.280156 C44.0428016,262.712062 43.844358,264.097276 44.4046693,265.175097 Z" id="路径" fill="#575A89"></path>
            <path d="M58.92607,183.389105 C62.5136187,187.85214 63.5758755,193.762646 64.7276265,199.373541 C66.2114137,206.610895 68.0350195,213.767834 70.1984436,220.844358 C70.7743191,222.727626 71.3657588,224.618677 71.5875486,226.575875 C71.9766537,230.303502 70.9571984,234.011673 70.1634241,237.673152 C68.5097276,245.33463 67.8793774,253.171206 67.2568093,260.984436 C64.6982757,258.804151 60.9963452,258.608054 58.2217899,260.505837 C57.8015564,251.085603 57.6108949,241.568093 58.8871595,232.22179 C59.1284047,230.466926 59.4202335,228.642023 58.8871595,226.961089 C58.5291829,225.879377 57.8521401,224.941634 57.2879377,223.953307 C56.1206226,221.914397 55.4669261,219.634241 54.4046693,217.544747 C52.6964981,214.190661 49.9533074,211.319066 49.0661479,207.653696 C48.307393,209.92607 48.311284,212.229572 48.1750973,214.618677 C47.7799247,221.400282 46.6048644,228.113793 44.6731518,234.626459 C44.3307393,235.770428 43.9649805,236.961089 44.1945525,238.128405 C45.2840467,243.645914 43.7120623,249.132296 44.1945525,254.735409 C44.3346304,256.435798 44.5252918,258.132296 44.7120623,259.828794 L44.7743191,260.373541 L45.1945525,264.140078 C43.6381323,263.077821 41.9922179,263.229572 40.1128405,263.326848 C39.4786076,263.327163 38.8492596,263.43776 38.2529183,263.653696 C37.4893298,263.961731 36.8839103,264.567151 36.5758755,265.330739 C36.3501946,259.22179 34.151751,253.735409 33.1478599,247.708171 C31.766537,239.412451 32.9338521,230.937743 33.4046693,222.540856 C33.5573634,220.732657 33.520849,218.913456 33.2957198,217.11284 C33.0612605,215.793905 32.732267,214.493535 32.311284,213.22179 C30.9027237,208.638132 29.4046693,204.035019 28.9377432,199.2607 C28.4708171,194.486381 28.1361868,187.743191 30.7315175,183.696498 C31.5330739,182.451362 33.5058366,183.011673 34.7509728,182.202335 C35.7320521,181.587508 36.8112172,181.145313 37.9416342,180.894942 C44.7470817,179.315175 51.9688716,182.789883 58.92607,183.389105 Z" id="路径" fill="#3C354C"></path>
            <path d="M46.6420233,128.003891 C46.7937743,129.70428 47.151751,131.708171 48.7003891,132.424125 C49.5797665,132.81323 50.5992218,132.677043 51.5486381,132.832685 C53.3463035,133.124514 54.8249027,134.505837 55.6575875,136.124514 C56.4902724,137.743191 56.7782101,139.583658 56.9727626,141.392996 C57.2140078,143.661479 57.2918288,146.120623 56.0466926,148.031128 C55.0428016,149.587549 53.3229572,150.51751 51.5175097,150.996109 C47.8869032,151.947627 44.0211693,151.234655 40.9688716,149.050584 C39.5279491,147.926391 38.2222158,146.638938 37.077821,145.214008 C34.4941634,142.206226 31.8910506,138.910506 31.3618677,134.980545 C31.2996109,134.533074 31.3035019,133.992218 31.6692607,133.727626 C31.9220465,133.58508 32.2140338,133.527774 32.5019455,133.564202 L34.9805447,133.607004 C35.6070039,133.607004 36.3151751,133.607004 36.7431907,133.136187 C37.1712062,132.66537 37.1322957,132.066148 37.1322957,131.490272 L36.9649805,124.29572 C36.9282839,124.040808 36.9879403,123.781372 37.1322957,123.568093 C37.2888097,123.424983 37.4888918,123.338646 37.7003891,123.322957 C39.0661479,123.093385 40.4941634,123.322957 41.8287938,122.953307 C43.1011673,122.603113 45.0972763,121.143969 46.0311284,122.642023 C46.8093385,123.929961 46.5136187,126.552529 46.6420233,128.003891 Z" id="路径" fill="#FFC1C7"></path>
            <path d="M46.6420233,128.003891 C46.7937743,129.70428 47.151751,131.708171 48.7003891,132.424125 C49.5797665,132.81323 50.5992218,132.677043 51.5486381,132.832685 C53.3463035,133.124514 54.8249027,134.505837 55.6575875,136.124514 C56.4902724,137.743191 56.7782101,139.583658 56.9727626,141.392996 C57.2140078,143.661479 57.2918288,146.120623 56.0466926,148.031128 C55.0428016,149.587549 53.3229572,150.51751 51.5175097,150.996109 C47.8869032,151.947627 44.0211693,151.234655 40.9688716,149.050584 C39.5279491,147.926391 38.2222158,146.638938 37.077821,145.214008 C34.4941634,142.206226 31.8910506,138.910506 31.3618677,134.980545 C31.2996109,134.533074 31.3035019,133.992218 31.6692607,133.727626 C31.9220465,133.58508 32.2140338,133.527774 32.5019455,133.564202 L34.9805447,133.607004 C35.6070039,133.607004 36.3151751,133.607004 36.7431907,133.136187 C37.1712062,132.66537 37.1322957,132.066148 37.1322957,131.490272 L36.9649805,124.29572 C36.9282839,124.040808 36.9879403,123.781372 37.1322957,123.568093 C37.2888097,123.424983 37.4888918,123.338646 37.7003891,123.322957 C39.0661479,123.093385 40.4941634,123.322957 41.8287938,122.953307 C43.1011673,122.603113 45.0972763,121.143969 46.0311284,122.642023 C46.8093385,123.929961 46.5136187,126.552529 46.6420233,128.003891 Z" id="路径" fill="#000000" opacity="0.1"></path>
            <circle id="椭圆形" fill="#FFC1C7" cx="40.4046693" cy="118.066148" r="9.46692607"></circle>
            <path d="M50.5836576,144.400778 C52.1128405,144.428016 53.8404669,144.011673 54.5797665,142.657588 C55.0856031,141.7393 55.0038911,140.622568 54.9066148,139.579767 L54.3579767,133.743191 C55.844358,133.587549 57.4435798,133.455253 58.7392996,134.190661 C60.463035,135.167315 61.07393,137.330739 61.2762646,139.299611 C61.6381323,142.996109 61.0505837,146.727626 61.2529183,150.435798 C61.4241245,153.548638 62.1439689,156.762646 61.2256809,159.747082 C60.8365759,160.992218 60.1906615,162.140078 59.770428,163.373541 C59.2451362,164.929961 59.1089494,166.603113 58.9922179,168.249027 C58.848249,170.015564 58.7120623,171.844358 59.3035019,173.51751 C59.7976654,174.918288 60.7626459,176.097276 61.4513619,177.40856 C62.5797665,179.579767 62.8210117,182.505837 61.1245136,184.268482 C59.5680934,185.879377 57.0077821,185.945525 54.8326848,185.435798 C52.6575875,184.92607 50.5525292,183.953307 48.3346304,183.859922 C44.3968872,183.692607 40.8871595,186.249027 37.0505837,187.077821 C36.5362634,187.215542 35.9973108,187.234173 35.4747082,187.132296 C35.0123388,186.982667 34.5820911,186.747746 34.2062257,186.439689 L32.0972763,184.922179 C31.6758057,184.670111 31.325074,184.315364 31.077821,183.891051 C30.901188,183.419133 30.8554756,182.90823 30.9455253,182.412451 C31.6536965,175.844358 35.3696498,169.540856 34.2957198,163.023346 C33.9618262,161.314651 33.4506302,159.64544 32.770428,158.042802 C30.0972763,151.202335 26.8910506,144.097276 27.9299611,136.824903 C28.155642,135.214008 28.6303502,133.568093 29.7392996,132.377432 C30.848249,131.18677 32.7237354,130.595331 34.1595331,131.357977 C35.5953307,132.120623 36.1050584,133.817121 36.7392996,135.291829 C37.9615488,138.158582 39.9020425,140.661926 42.3735409,142.560311 C43.4163424,143.361868 44.6809339,144.385214 46.0466926,144.420233 C47.4708171,144.470817 49.0272374,144.36965 50.5836576,144.400778 Z" id="路径" fill="#FF6584"></path>
            <path d="M64.2957198,159.108949 C66.5914397,161.657588 67.0428016,165.33463 67.2957198,168.750973 C67.9915384,178.151 68.0162444,187.588677 67.3696498,196.992218 C67.3367503,198.387007 67.1021525,199.769693 66.6731518,201.097276 C66.1828794,202.400778 65.2645914,203.607004 63.9727626,204.128405 C63.1439689,204.463035 61.9883268,204.373541 61.614786,203.560311 C61.2723735,202.817121 61.7821012,202.003891 62.1673152,201.264591 C63.0521586,199.603405 63.3484019,197.691539 63.0077821,195.840467 C62.536965,196.182879 62.3696498,196.801556 62.229572,197.36965 L61.4785992,200.529183 C60.463035,200.381323 60.0817121,199.140078 59.922179,198.128405 C59.6264591,196.291829 59.3424125,194.33463 60.077821,192.626459 C60.4669261,191.715953 61.1284047,190.941634 61.5214008,190.031128 C62.5136187,187.743191 62.9027237,185.128405 62.2645914,182.715953 C60.1134536,174.571245 59.1746988,166.153918 59.4785992,157.735409 C60.952205,158.569874 62.6036216,159.040755 64.2957198,159.108949 Z" id="路径" fill="#FFC1C7"></path>
            <path d="M66.463035,161.673152 C63.6374423,161.701603 60.8257306,162.072665 58.0894942,162.77821 C57.7276265,160.996109 57.9027237,159.151751 58.0894942,157.330739 L59.2957198,144.879377 C59.385214,143.957198 59.2140078,135.486381 61,136.984436 C61.6575875,137.536965 62.4863813,142.486381 62.692607,143.284047 C63.0038911,144.48249 63.2490272,145.696498 63.4708171,146.918288 C63.9182879,149.420233 64.2217899,151.945525 64.6381323,154.451362 C64.7587549,155.194553 65.8171206,161.673152 66.463035,161.673152 Z" id="路径" fill="#FF6584"></path>
            <path d="M44.0155642,106.031128 C44.0271767,105.734878 43.9600457,105.440844 43.8210117,105.178988 C43.5718609,104.867183 43.2035896,104.673875 42.8054475,104.645914 C41.4357977,104.431907 39.9377432,104.984436 38.7042802,104.357977 C38.0350195,104.019455 37.5603113,103.385214 36.9105058,103.015564 C35.3540856,102.14786 33.4085603,103.015564 32.0661479,104.14786 C29.8979536,105.946866 28.3178287,108.353643 27.5291829,111.058366 C26.922179,113.151751 26.6770428,115.599222 24.9455253,116.918288 C24.2256809,117.463035 23.2996109,117.766537 22.7743191,118.498054 C22.4208318,119.087158 22.2239281,119.756899 22.2023346,120.44358 C22.0233463,122.031128 21.8715953,123.66537 22.2879377,125.206226 C22.6031128,126.373541 23.2178988,127.400778 23.6031128,128.529183 C24.6559648,131.799236 23.7163598,135.383093 21.1945525,137.715953 C21.8260983,138.111281 22.5876884,138.242638 23.3151751,138.081712 C23.2988267,138.416234 23.1926401,138.740171 23.0077821,139.019455 C25.2217899,138.949416 27.1478599,136.789883 29.3151751,137.2607 C30.9727626,137.618677 31.8949416,139.326848 33.1284047,140.490272 C34.7198444,141.984436 37.1906615,142.610895 39.1867704,141.723735 C41.1828794,140.836576 42.3968872,138.315175 41.5486381,136.299611 C40.5836576,134.007782 37.6070039,133.101167 36.5758755,130.85214 C35.7782101,129.101167 36.3696498,127.050584 36.1867704,125.132296 C36.0428016,123.486381 35.3307393,121.949416 34.8871595,120.354086 C34.4435798,118.758755 34.2996109,116.937743 35.2023346,115.552529 C36.1595331,114.077821 37.9922179,113.505837 39.6614786,112.961089 C43.4319066,111.735409 44.155642,109.836576 44.0155642,106.031128 Z" id="路径" fill="#3F3D56"></path>
            <path d="M41.688716,140.066148 C41.9571984,138.743191 42.2256809,137.342412 41.7470817,136.07393 C40.8638132,133.7393 37.9649805,132.988327 35.9610895,131.474708 C34.8001823,130.592382 33.9081802,129.403945 33.385214,128.042802 C33.0233463,127.085603 32.9727626,125.770428 33.8677043,125.280156 C34.21596,125.116765 34.6012091,125.048306 34.9844358,125.081712 C38.0972763,125.155642 40.9727626,126.85214 43.3657588,128.863813 C44.7587549,130.031128 46.0894942,131.36965 46.7743191,133.050584 C47.2090306,134.262059 47.4710053,135.528706 47.5525292,136.81323 L48.0544747,141.050584 C48.3835324,143.482891 48.57838,145.931476 48.6381323,148.385214 C48.6396568,149.788909 48.5512787,151.19126 48.3735409,152.583658 C48.2490272,153.571984 48.0622568,154.595331 47.4824903,155.404669 C46.4046693,156.914397 44.3229572,157.252918 42.4669261,157.303502 C41.7650587,157.343506 41.0609269,157.299089 40.3696498,157.171206 C37.2840467,156.501946 34.9416342,152.178988 37.2801556,149.509728 C38.2723735,148.377432 39.7587549,148.342412 40.3268482,146.785992 C41.0583658,144.719844 41.2451362,142.217899 41.688716,140.066148 Z" id="路径" fill="#FFC1C7"></path>
            <path d="M39.1789883,140.809339 L41.6342412,144.789883 C41.7802943,144.99504 41.8823042,145.228206 41.9338521,145.474708 C42,145.992218 41.614786,146.451362 41.307393,146.875486 C39.2062257,149.7393 39.7509728,153.684825 40.3735409,157.178988 C33.5348777,155.018701 28.537179,149.133363 27.5136187,142.035019 C27.2062257,139.953307 26.7120623,136.525292 28.5603113,135.171206 C32.9922179,131.902724 37.0933852,137.396887 39.1789883,140.809339 Z" id="路径" fill="#FF6584"></path>
            <path d="M51.5486381,132.832685 C50.5992218,132.677043 49.5797665,132.832685 48.7003891,132.424125 C47.1439689,131.708171 46.7937743,129.700389 46.6420233,128.003891 C46.6420233,127.844358 46.6225681,127.673152 46.614786,127.490272 C47.1700485,126.921281 47.7727436,126.400594 48.4163424,125.933852 C48.9969443,125.593736 49.6144177,125.320899 50.2568093,125.120623 L51.9766537,124.51751 C52.140928,124.97281 52.270991,125.439736 52.3657588,125.914397 C52.5603113,127.058366 52.3968872,128.249027 52.6809339,129.373541 C52.9968341,130.378064 53.4882159,131.318672 54.1322957,132.151751 L56.6653696,135.856031 C56.2062257,135.747082 55.7509728,135.626459 55.2996109,135.494163 C54.4163424,134.151751 53.1050584,133.085603 51.5486381,132.832685 Z" id="路径" fill="#3F3D56"></path>
            <path d="M394.941634,149.22179 C394.490272,147.031128 393.645914,144.941634 393.136187,142.770428 C392.92688,141.636743 392.644845,140.517699 392.291829,139.420233 C392.11167,138.943247 391.886258,138.484605 391.618677,138.050584 L391.859922,137.824903 C391.058366,136.470817 391.027237,134.774319 390.649805,133.233463 C390.322957,131.906615 389.673152,130.692607 389.280156,129.385214 C388.735409,127.571984 388.661479,125.525292 387.536965,124.027237 C387.093385,123.435798 386.513619,122.972763 386.019455,122.424125 C385.451362,121.797665 385.003891,121.062257 384.428016,120.447471 C382.754864,118.66537 380.233463,118.11284 377.848249,117.856031 C375.463035,117.599222 372.996109,117.603113 370.797665,116.610895 C369.875486,116.194553 368.902724,115.599222 367.937743,115.669261 C367.395519,115.146777 366.897088,114.580674 366.447471,113.976654 C365.713767,113.087475 365.047825,112.14449 364.455253,111.155642 C364.919083,110.37078 365.277547,109.52826 365.521401,108.649805 L365.680934,108.536965 C366.307393,108.062257 366.848249,107.44358 367.463035,106.980545 C368.003891,106.59144 368.700389,106.182879 368.758755,105.490272 C368.817121,104.797665 368.190661,104.268482 367.801556,103.696498 C366.396887,101.645914 367.949416,98.4357977 366.509728,96.4085603 C365.789883,95.3929961 364.533074,95.0077821 363.396887,94.5136187 C361.840467,93.8287938 360.451362,92.844358 358.906615,92.1789883 C357.361868,91.5136187 355.575875,91.151751 354.019455,91.7898833 C351.108949,92.9961089 350.062257,97.1400778 347.105058,98.2217899 C346.784388,98.2867417 346.495071,98.4581379 346.284047,98.7081712 C345.922179,99.2996109 345.44358,102.782101 345.529183,103.501946 C345.642023,104.455253 345.871595,104.92607 346.529183,105.2607 C346.529183,105.463035 346.529183,105.669261 346.529183,105.875486 C346.529183,110.828794 349.961089,114.941634 354.486381,115.789883 C354.920394,116.246996 355.2896,116.761527 355.583658,117.319066 C355.812845,117.909938 355.944267,118.534193 355.972763,119.167315 C355.810245,119.08962 355.631393,119.052248 355.451362,119.058366 C354.863236,119.142092 354.379721,119.564596 354.217899,120.136187 C354.056545,120.707672 353.992098,121.302156 354.027237,121.894942 C354.077334,122.265966 353.950583,122.639016 353.684825,122.902724 C353.541914,122.988831 353.380488,123.039527 353.214008,123.050584 C352.613227,123.163185 352.004126,123.225657 351.392996,123.237354 C350.381323,123.237354 349.29572,122.984436 348.404669,123.478599 C347.513619,123.972763 347.108949,125.035019 346.680934,125.996109 C346.060737,127.371345 345.24418,128.649262 344.256809,129.789883 C343.167315,131.050584 341.81323,132.245136 341.505837,133.914397 C341.501962,133.953211 341.501962,133.992314 341.505837,134.031128 C340.653696,134.420233 339.782101,135.354086 339.171206,135.824903 C337.999378,136.731963 336.873468,137.696842 335.797665,138.715953 C334.70428,139.770428 333.229572,141.077821 332.552529,142.486381 C332.207396,143.08882 331.747332,143.61763 331.198444,144.042802 C330.089494,144.762646 328.657588,144.381323 327.40856,143.976654 C323.945525,142.859922 320.463035,141.731518 317.233463,140.023346 C317.074388,139.913427 316.880803,139.86503 316.688716,139.88716 C316.583043,139.920325 316.488717,139.98231 316.416342,140.066148 C316.390026,140.025659 316.361446,139.986686 316.330739,139.949416 C315.459144,139.007782 314.089494,138.945525 313.607004,137.505837 C313.473224,137.04902 313.378205,136.581735 313.322957,136.108949 C313.017961,134.732511 312.524322,133.404792 311.856031,132.163424 C311.758502,131.907382 311.591393,131.683672 311.373541,131.51751 C310.947988,131.311532 310.435647,131.473773 310.206226,131.88716 C309.982683,132.293978 309.895406,132.761731 309.957198,133.22179 C309.988327,133.727626 310.062257,134.315175 309.712062,134.677043 C309.571247,134.809473 309.400306,134.905628 309.214008,134.957198 C308.089494,135.322957 306.85214,134.996109 305.801556,134.447471 C304.750973,133.898833 303.805447,133.136187 302.766537,132.55642 C302.217515,132.255669 301.651005,131.988006 301.070039,131.754864 C300.470817,131.505837 299.638132,131.342412 299.303502,131.914397 C299.035019,132.373541 299.303502,132.961089 299.614786,133.396887 C300.136324,134.149452 300.743505,134.838896 301.424125,135.451362 C303.447471,137.2607 305.996109,138.268482 308.36965,139.529183 C310.439078,140.62997 312.39418,141.933372 314.206226,143.420233 C314.13618,143.646541 314.09308,143.880323 314.077821,144.116732 C314.079726,145.045795 314.472305,145.931216 315.159533,146.55642 C315.831733,147.154141 316.588211,147.649719 317.404669,148.027237 C321.523995,150.167315 325.674449,152.251621 329.856031,154.280156 C330.121882,154.434565 330.417784,154.530103 330.723735,154.560311 C331.571984,154.579767 332.11284,153.661479 332.793774,153.132296 C333.474708,152.603113 334.350195,152.455253 335.171206,152.178988 C336.63035,151.677043 337.894942,150.723735 339.143969,149.782101 L343.124514,146.770428 C345.128405,145.256809 347.182879,143.657588 348.863813,141.789883 C349.076021,142.235912 349.378048,142.633315 349.750973,142.957198 C349.424125,143.684825 350.105058,144.439689 350.268482,145.225681 C350.326471,145.742362 350.340789,146.263014 350.311284,146.782101 C350.380877,147.539663 350.510994,148.290439 350.700389,149.027237 C350.891835,150.230223 350.980353,151.447343 350.964981,152.66537 C350.964981,154.023346 351.007782,155.389105 351.027237,156.743191 C351.054475,158.501946 351.081712,160.280156 350.712062,161.996109 C350.210117,164.330739 348.980545,166.548638 349.077821,168.945525 C349.148253,169.392826 349.104074,169.850683 348.949416,170.276265 C347.933852,172.22179 347.132296,174.365759 346.038911,176.280156 C345.715927,176.745213 345.45436,177.250037 345.2607,177.782101 C345.124661,178.337701 345.179482,178.922912 345.416342,179.44358 C344.982937,180.220129 344.738967,181.088022 344.70428,181.976654 C344.63035,184.175097 345.513619,186.256809 345.937743,188.424125 C346.326848,190.412451 346.326848,192.451362 346.385214,194.478599 C346.684825,203.964981 348.540856,213.342412 348.92607,222.824903 C349.107877,227.196952 348.977846,231.5764 348.536965,235.929961 C348.252918,238.7393 347.832685,241.540856 347.677043,244.365759 C347.229572,252.381323 348.902724,260.319066 350.564202,268.178988 C351.066822,267.588574 351.771699,267.206997 352.540856,267.108949 C352.338521,267.88716 352.070039,268.898833 351.789883,269.645914 C351.384023,269.702331 350.994398,269.842808 350.645914,270.058366 C349.677043,270.677043 349.346304,271.945525 348.782101,272.972763 C347.548638,275.210117 345.124514,276.357977 343.136187,277.894942 C342.182879,278.63035 341.22179,279.754864 341.521401,280.949416 C344.964981,281.949416 348.715953,282.836576 352.027237,281.459144 C353.373541,280.902724 354.634241,279.980545 356.077821,279.933852 C357.175097,279.898833 358.29572,280.377432 359.346304,280.050584 C359.606849,279.980551 359.835093,279.822431 359.992218,279.603113 C360.115846,279.36296 360.174849,279.094767 360.163424,278.824903 C360.252919,276.995691 360.245126,275.163015 360.140078,273.33463 C360.050584,271.77821 360.210117,270.610895 358.945525,270.392996 C358.631008,269.610921 358.397618,268.798621 358.249027,267.968872 C358.249027,267.817121 358.214008,267.657588 358.194553,267.498054 C358.542726,267.500816 358.890438,267.472166 359.233463,267.412451 C359.44521,267.376514 359.654453,267.327128 359.859922,267.264591 C359.793774,266.996109 359.735409,266.723735 359.680934,266.455253 C359.571984,265.914397 359.486381,265.373541 359.416342,264.832685 C359.346304,264.291829 359.29572,263.743191 359.256809,263.198444 C359.256809,262.922179 359.225681,262.649805 359.214008,262.373541 C359.190661,261.824903 359.182879,261.276265 359.18677,260.723735 C359.190661,260.171206 359.18677,259.622568 359.225681,259.070039 C359.264591,258.51751 359.280156,257.964981 359.319066,257.412451 C359.412451,256.031128 359.548638,254.649805 359.684825,253.280156 C360.081712,249.256809 360.481193,245.236057 360.883268,241.217899 C361,240.011673 361.120623,238.801556 361.136187,237.59144 C361.151127,236.86755 361.117328,236.143475 361.035019,235.424125 C360.828794,233.680934 360.280156,231.922179 360.256809,230.202335 C360.249687,229.915328 360.260083,229.628153 360.287938,229.342412 C360.315046,229.053947 360.363164,228.767844 360.431907,228.486381 C360.466926,228.330739 360.513619,228.175097 360.560311,228.023346 C360.657588,227.715953 360.766537,227.416342 360.863813,227.108949 C360.914397,226.957198 360.961089,226.801556 361.003891,226.645914 C361.162843,225.988649 361.257967,225.317572 361.287938,224.642023 C361.287938,224.416342 361.315175,224.190661 361.326848,223.964981 L361.805447,214.478599 C361.883268,212.957198 362.011673,211.315175 362.607004,209.957198 C362.862908,209.357846 363.237485,208.816496 363.708171,208.365759 C363.587549,208.042802 363.708171,207.498054 364.042802,207.412451 C364.434664,212.255081 364.386477,217.123274 363.898833,221.957198 C363.727626,223.474708 363.474708,224.980545 363.404669,226.505837 C363.256809,229.867704 364,233.194553 364.2607,236.548638 C364.521401,239.902724 364.2607,243.357977 364.2607,246.762646 C364.233463,252.618677 364.879377,258.455253 365.521401,264.272374 L365.910506,264.529183 C365.910506,265.042802 365.968872,265.603113 365.961089,266.085603 C365.948161,266.253309 365.965291,266.421976 366.011673,266.583658 L365.848249,266.583658 C365.083893,266.648678 364.400253,267.085045 364.019455,267.750973 C363.634108,268.417144 363.354514,269.1391 363.190661,269.891051 C362.999831,270.445933 362.920491,271.033046 362.957198,271.618677 C363.105058,272.727626 364.046693,273.564202 364.29572,274.653696 C364.750973,276.626459 362.817121,278.754864 363.696498,280.568093 C364.256809,281.735409 365.669261,282.058366 366.902724,282.2607 C368.785992,282.568093 370.929961,282.81323 372.412451,281.564202 C373.227831,280.856882 373.690401,279.826418 373.677043,278.747082 C373.677043,277.322957 372.832685,276.054475 372.463035,274.684825 C371.941634,272.762646 372.719844,270.178988 371.898833,268.404669 C371.832004,268.217696 371.728858,268.045786 371.595331,267.898833 L371.875486,267.898833 C371.809339,267.249027 371.743191,266.595331 371.673152,265.953307 L372.326848,265.618677 C373,265.280156 373.77821,265.023346 374.478599,265.287938 C374.217899,261.945525 374.143969,258.252918 374.914397,255 C375.513619,252.431907 376.587549,249.996109 377.085603,247.404669 C377.474708,245.268482 377.501946,243.07393 377.509728,240.898833 C377.509728,236.859922 377.509728,232.793774 376.832685,228.836576 C376.560311,227.249027 376.171206,225.622568 376.466926,224.035019 C376.661479,222.988327 377.136187,222.023346 377.416342,220.996109 C378.070039,218.595331 377.59144,216.015564 377.980545,213.552529 C378.906615,207.669261 379.396887,201.529183 380.101167,195.618677 C380.452058,192.269026 380.571667,188.899173 380.459144,185.533074 L380.459144,185.494163 L381.856031,182.770428 C382.856031,180.824903 383.871595,178.848249 384.478599,176.758755 C384.688262,177.052359 384.857117,177.373053 384.980545,177.712062 L391.120623,167.509728 C391.519085,166.906234 391.834498,166.25185 392.058366,165.564202 C392.198444,165.070039 392.245136,164.552529 392.350195,164.050584 C392.626459,162.747082 393.287938,161.571984 393.817121,160.357977 C395.31744,156.847089 395.709776,152.961743 394.941634,149.22179 Z M385.754864,154.342412 C385.469383,156.018791 385.07952,157.67571 384.587549,159.303502 C383.77821,162.097276 382.840467,164.844358 381.902724,167.595331 L381.097276,169.929961 C380.819217,170.869971 380.402154,171.763115 379.859922,172.579767 C379.735958,172.783739 379.625476,172.995605 379.529183,173.214008 C378.696498,170.101167 379.599222,166.599222 379.40856,163.280156 C379.264591,160.770428 378.486381,158.22179 379.070039,155.789883 C379.459144,154.151751 380.439689,152.743191 381.128405,151.210117 C381.770428,149.785992 382.171206,148.233463 382.894942,146.859922 C382.894942,146.88716 382.894942,146.910506 382.922179,146.933852 C383.565942,148.625464 384.337293,150.265722 385.229572,151.840467 C385.480049,152.196195 385.670634,152.590509 385.793774,153.007782 C385.873998,153.452616 385.864738,153.90898 385.766537,154.350195 L385.754864,154.342412 Z" id="形状" fill="url(#linearGradient-2)" fill-rule="nonzero"></path>
            <path d="M313.505837,137.494163 C313.365979,137.036915 313.267017,136.568147 313.210117,136.093385 C312.957198,134.696498 312.311284,133.40856 311.677043,132.136187 C311.576154,131.875564 311.401784,131.64983 311.175097,131.486381 C310.737102,131.291527 310.222489,131.449231 309.968872,131.856031 C309.738611,132.261941 309.647079,132.731897 309.708171,133.194553 C309.743191,133.708171 309.821012,134.29572 309.459144,134.657588 C309.308665,134.791198 309.12864,134.887211 308.933852,134.937743 C307.766537,135.307393 306.470817,134.976654 305.36965,134.428016 C304.268482,133.879377 303.287938,133.108949 302.202335,132.529183 C301.628087,132.228194 301.036964,131.960565 300.431907,131.727626 C299.805447,131.474708 298.937743,131.311284 298.587549,131.88716 C298.307393,132.346304 298.587549,132.933852 298.910506,133.373541 C299.456487,134.132644 300.091351,134.823679 300.801556,135.431907 C302.910506,137.249027 305.575875,138.2607 308.054475,139.525292 C310.831221,140.942467 313.419471,142.701954 315.758755,144.762646 C315.985441,144.493678 316.121591,144.160109 316.14786,143.809339 C316.33463,142.817121 317.155642,140.809339 316.326848,139.949416 C315.420233,139.003891 314.007782,138.941634 313.505837,137.494163 Z" id="路径" fill="#A0616A"></path>
            <path d="M352.529183,271.108949 C354.606462,272.730247 357.23864,273.468319 359.856031,273.163424 C360.400778,273.097276 361.023346,272.902724 361.202335,272.385214 C361.267687,272.071038 361.232285,271.744254 361.101167,271.451362 C360.689645,270.472259 360.373019,269.455929 360.155642,268.416342 C360.019455,267.470817 360.054475,266.346304 359.284047,265.77821 C358.171206,264.957198 355.2607,265 354.536965,266.272374 C354.365759,266.544747 353.276265,271.735409 352.529183,271.108949 Z" id="路径" fill="#3C354C"></path>
            <path d="M368.206226,266.51751 C368.151832,266.72585 368.190472,266.94754 368.312142,267.125193 C368.433812,267.302846 368.626551,267.418997 368.840467,267.44358 C370.627324,267.996892 372.480551,268.307072 374.350195,268.365759 L373.961089,264.622568 C373.976354,264.453239 373.916525,264.285744 373.797435,264.164407 C373.678344,264.04307 373.511997,263.980121 373.342412,263.992218 C372.268482,263.81323 370.011673,263.085603 368.980545,263.459144 C367.821012,263.879377 368.229572,265.400778 368.206226,266.51751 Z" id="路径" fill="#3C354C"></path>
            <path d="M357.338521,117.214008 C357.640433,117.999574 357.789665,118.835536 357.77821,119.677043 C357.875486,122.692607 357.357977,125.949416 355.256809,128.11284 C357.614786,127.40856 360.264591,127.832685 362.490272,126.782101 C363.521401,126.29572 364.389105,125.521401 365.354086,124.918288 C367.07393,123.844358 369.077821,123.322957 370.867704,122.365759 C372.657588,121.40856 374.315175,119.793774 374.416342,117.770428 C373.638132,116.953307 372.389105,116.836576 371.36965,116.342412 C370.272374,115.805447 369.459144,114.824903 368.684825,113.879377 C367.771247,112.837026 366.970428,111.701011 366.29572,110.490272 C365.617934,109.270651 365.345407,107.867139 365.51751,106.48249 C363.529183,106.840467 362.085603,108.575875 360.206226,109.319066 C359.474708,109.607004 358.684825,109.7393 357.972763,110.070039 C356.957198,110.536965 354.898833,112.124514 354.859922,113.36965 C354.863813,114.727626 356.809339,116.015564 357.338521,117.214008 Z" id="路径" fill="#A0616A"></path>
            <path d="M357.338521,117.214008 C357.640433,117.999574 357.789665,118.835536 357.77821,119.677043 C357.875486,122.692607 357.357977,125.949416 355.256809,128.11284 C357.614786,127.40856 360.264591,127.832685 362.490272,126.782101 C363.521401,126.29572 364.389105,125.521401 365.354086,124.918288 C367.07393,123.844358 369.077821,123.322957 370.867704,122.365759 C372.657588,121.40856 374.315175,119.793774 374.416342,117.770428 C373.638132,116.953307 372.389105,116.836576 371.36965,116.342412 C370.272374,115.805447 369.459144,114.824903 368.684825,113.879377 C367.771247,112.837026 366.970428,111.701011 366.29572,110.490272 C365.617934,109.270651 365.345407,107.867139 365.51751,106.48249 C363.529183,106.840467 362.085603,108.575875 360.206226,109.319066 C359.474708,109.607004 358.684825,109.7393 357.972763,110.070039 C356.957198,110.536965 354.898833,112.124514 354.859922,113.36965 C354.863813,114.727626 356.809339,116.015564 357.338521,117.214008 Z" id="路径" fill="#000000" opacity="0.1"></path>
            <path d="M382.937743,195.797665 C382.202335,201.727626 381.692607,207.891051 380.723735,213.793774 C380.33463,216.264591 380.817121,218.85214 380.136187,221.264591 C379.844358,222.29572 379.357977,223.264591 379.143969,224.311284 C378.836576,225.906615 379.241245,227.536965 379.533074,229.132296 C380.249027,233.120623 380.249027,237.202335 380.237354,241.256809 C380.237354,243.439689 380.237354,245.642023 379.797665,247.785992 C379.276265,250.389105 378.155642,252.844358 377.529183,255.404669 C376.723735,258.673152 376.801556,262.377432 377.07393,265.731518 C376.342412,265.466926 375.51751,265.731518 374.824903,266.062257 C374.132296,266.392996 373.431907,266.840467 372.657588,266.891051 C371.610895,266.988327 370.626459,266.435798 369.723735,265.898833 C369.031128,265.490272 368.428016,265.120623 367.7393,264.700389 C367.066148,258.863813 366.392996,253.003891 366.420233,247.124514 C366.420233,243.708171 366.688716,240.284047 366.420233,236.875486 C366.151751,233.466926 365.36965,230.167315 365.529183,226.797665 C365.603113,225.264591 365.863813,223.754864 366.038911,222.233463 C366.614786,217.307393 366.536965,212.583658 366.190661,207.638132 C365.85214,207.723735 365.715953,208.268482 365.840467,208.59144 C365.346242,209.039212 364.948973,209.583471 364.673152,210.190661 C364.050584,211.552529 363.918288,213.202335 363.836576,214.727626 L363.33463,224.249027 C363.321222,225.15477 363.209014,226.056345 363,226.937743 C362.824903,227.564202 362.560311,228.155642 362.400778,228.785992 C361.828794,231.066148 362.747082,233.416342 363.038911,235.747082 C363.276265,237.692607 363.07393,239.638132 362.875486,241.560311 L361.626459,253.669261 C361.171206,258.07393 360.727626,262.571984 361.626459,266.898833 C361.684825,267.167315 361.743191,267.439689 361.81323,267.712062 C361.598453,267.774259 361.380169,267.823633 361.159533,267.859922 C360.38513,267.968788 359.599305,267.968788 358.824903,267.859922 C358.101167,267.785992 357.36965,267.661479 356.653696,267.575875 C354.933852,267.381323 353.217899,267.307393 352.077821,268.607004 C350.342412,260.7393 348.599222,252.750973 349.062257,244.708171 C349.225681,241.875486 349.661479,239.062257 349.961089,236.241245 C350.427866,231.875169 350.568333,227.480358 350.381323,223.093385 C349.992218,213.575875 348.046693,204.163424 347.723735,194.642023 C347.657588,192.610895 347.66537,190.560311 347.2607,188.568093 C346.817121,186.40856 345.894942,184.287938 345.968872,182.097276 C346.042802,179.906615 347.642023,177.474708 349.859922,177.595331 C355.980545,177.933852 361.571984,174.55642 367.677043,173.980545 C370.447471,173.715953 373.264591,173.322957 376.007782,173.817121 C378.750973,174.311284 381.48249,175.863813 382.560311,178.431907 C383.143969,179.828794 383.190661,181.377432 383.233463,182.88716 C383.357977,187.198444 383.470817,191.521401 382.937743,195.797665 Z" id="路径" fill="#575A89"></path>
            <path d="M352.190661,270.494163 C351.178988,271.116732 350.832685,272.389105 350.245136,273.420233 C348.957198,275.66537 346.428016,276.817121 344.350195,278.357977 C343.354086,279.101167 342.350195,280.225681 342.66537,281.428016 C346.2607,282.428016 350.175097,283.319066 353.642023,281.937743 C355.046693,281.377432 356.365759,280.451362 357.871595,280.404669 C359.019455,280.36965 360.206226,280.85214 361.284047,280.521401 C361.555982,280.458019 361.79619,280.299261 361.961089,280.07393 C362.087413,279.834506 362.149107,279.566275 362.140078,279.29572 C362.234113,277.458784 362.22502,275.618019 362.11284,273.782101 C362.003891,271.988327 362.245136,270.719844 360.198444,270.797665 C357.848249,270.898833 354.229572,269.237354 352.190661,270.494163 Z" id="路径" fill="#CBCEDA"></path>
            <path d="M369.420233,267.303502 C368.995363,267.133648 368.546163,267.032512 368.089494,267.003891 C367.302792,267.065587 366.592879,267.499342 366.178988,268.171206 C365.776932,268.835805 365.485215,269.561157 365.315175,270.319066 C365.116487,270.873494 365.034359,271.46296 365.07393,272.050584 C365.225681,273.163424 366.210117,273.996109 366.470817,275.093385 C366.941634,277.07393 364.914397,279.210117 365.840467,281.031128 C366.428016,282.198444 367.902724,282.525292 369.190661,282.727626 C371.159533,283.038911 373.396887,283.284047 374.945525,282.027237 C375.788138,281.333569 376.273963,280.29762 376.268482,279.206226 C376.245136,277.774319 375.385214,276.501946 374.996109,275.124514 C374.455253,273.178988 375.268482,270.603113 374.40856,268.824903 C373.673152,267.303502 370.988327,267.805447 369.420233,267.303502 Z" id="路径" fill="#CBCEDA"></path>
            <circle id="椭圆形" fill="#A0616A" cx="357.996109" cy="105.731518" r="10.1128405"></circle>
            <path d="M363.357977,122.303502 C362.267414,121.839757 361.054464,121.748137 359.906615,122.042802 L358.984436,120.435798 C358.595331,119.727626 358.015564,118.92607 357.202335,118.957198 C356.597381,119.035418 356.093883,119.459816 355.914397,120.042802 C355.74537,120.614196 355.676907,121.210615 355.712062,121.805447 C355.766304,122.181417 355.634215,122.560267 355.357977,122.821012 C355.206606,122.90384 355.039629,122.954198 354.867704,122.968872 C354.239158,123.079589 353.603058,123.142028 352.964981,123.155642 C351.906615,123.155642 350.774319,122.898833 349.85214,123.396887 C348.929961,123.894942 348.501946,124.953307 348.054475,125.92607 C347.401983,127.311375 346.549856,128.5935 345.525292,129.731518 C344.385214,130.996109 342.972763,132.194553 342.649805,133.867704 C342.513619,134.579767 343.159533,135.108949 343.673152,135.622568 C345.715953,137.649805 348.564202,138.894942 350.077821,141.346304 C350.431907,141.918288 350.719844,142.564202 351.264591,142.957198 C350.92607,143.692607 351.653696,144.447471 351.805447,145.237354 C351.865182,145.753912 351.879504,146.274714 351.848249,146.793774 C351.915808,147.554165 352.045951,148.307691 352.237354,149.046693 C352.436528,150.252811 352.528974,151.474141 352.513619,152.696498 L352.579767,156.789883 C352.607004,158.55642 352.634241,160.338521 352.249027,162.062257 C351.723735,164.396887 350.439689,166.634241 350.540856,169.035019 C350.615893,169.485042 350.570243,169.946915 350.40856,170.373541 C349.346304,172.319066 348.509728,174.474708 347.36965,176.396887 C347.044133,176.863205 346.782412,177.370944 346.59144,177.906615 C346.287938,179.015564 346.910506,180.217899 347.828794,180.910506 C348.747082,181.603113 349.906615,181.88716 351.035019,182.101167 C361.51751,184.108949 372.400778,181.692607 382.307393,177.723735 C382.568012,177.642091 382.80998,177.509868 383.019455,177.33463 C383.743191,176.63035 383.175097,175.44358 382.762646,174.525292 C381.206226,171.105058 382.447471,167.132296 382.225681,163.396887 C382.077821,160.879377 381.2607,158.338521 381.875486,155.879377 C382.264591,154.237354 383.303502,152.821012 384.023346,151.287938 C384.801556,149.626459 385.237354,147.785992 386.256809,146.268482 C387.02018,145.225624 387.913223,144.284202 388.914397,143.466926 L395.237354,137.832685 C394.400778,136.474708 394.365759,134.770428 393.972763,133.225681 C393.63035,131.894942 392.949416,130.673152 392.540856,129.365759 C391.972763,127.544747 391.894942,125.474708 390.719844,123.984436 C390.256809,123.389105 389.653696,122.92607 389.136187,122.377432 C388.544747,121.747082 388.077821,121.011673 387.474708,120.392996 C385.727626,118.603113 383.093385,118.035019 380.607004,117.793774 C378.120623,117.552529 375.548638,117.540856 373.245136,116.544747 C372.116732,116.058366 370.910506,115.322957 369.743191,115.688716 C368.817121,115.976654 368.22179,116.883268 367.844358,117.782101 C367.466926,118.680934 367.202335,119.649805 366.583658,120.400778 C365.821012,121.29572 364.470817,121.88716 363.357977,122.303502 Z" id="路径" fill="#3C354C"></path>
            <path d="M333.268482,142.490272 C332.902501,143.096565 332.421333,143.625322 331.85214,144.046693 C330.684825,144.766537 329.202335,144.385214 327.898833,143.980545 C324.284047,142.856031 320.645914,141.727626 317.272374,140.011673 C317.105385,139.899809 316.903837,139.851493 316.70428,139.875486 C316.548326,139.925593 316.412159,140.023633 316.315175,140.155642 C315.784609,140.743766 315.296973,141.36924 314.856031,142.027237 C314.390299,142.637599 314.097314,143.361997 314.007782,144.124514 C314.013427,145.064042 314.42311,145.955704 315.132296,146.571984 C315.836199,147.172371 316.622373,147.668971 317.466926,148.046693 C321.770428,150.194553 326.102464,152.286641 330.463035,154.322957 C330.742477,154.478356 331.051254,154.573772 331.36965,154.603113 C332.256809,154.622568 332.821012,153.700389 333.529183,153.171206 C334.237354,152.642023 335.167315,152.494163 336.011673,152.214008 C337.536965,151.712062 338.863813,150.754864 340.163424,149.809339 L344.319066,146.789883 C347.961089,144.143969 351.785992,141.2607 353.377432,137.062257 L348.319066,135.396887 C346.801556,134.894942 345.206226,134.132296 343.63035,133.840467 C342.463035,133.614786 341.058366,135.155642 340.182879,135.81323 C338.952009,136.72591 337.768866,137.701257 336.638132,138.735409 C335.51751,139.762646 333.976654,141.077821 333.268482,142.490272 Z" id="路径" fill="#3C354C"></path>
            <path d="M381.14786,175.708171 C379.719844,176.276265 378.101167,175.420233 376.587549,175.673152 C375.877956,175.831634 375.201249,176.112059 374.587549,176.501946 L370.167315,178.972763 C369.894942,179.120623 369.599222,179.48249 369.836576,179.677043 C369.905076,179.722413 369.984179,179.749228 370.066148,179.754864 C371.540856,179.945525 372.918288,179.046693 374.385214,178.797665 C375.029778,178.70985 375.681369,178.685089 376.330739,178.723735 C376.437894,178.717396 376.545201,178.733294 376.645914,178.770428 C376.865354,178.896079 376.992644,179.13702 376.972763,179.389105 C376.972763,179.638132 376.898833,179.879377 376.891051,180.128405 C376.935318,180.701995 377.160066,181.24684 377.533074,181.684825 C378.939809,183.704009 380.500903,185.611145 382.202335,187.389105 C382.633794,186.843403 383.006784,186.253922 383.315175,185.63035 L384.770428,182.906615 C386.280156,180.097276 387.824903,177.182879 388.066148,174.003891 C386.976654,173.657588 384.953307,172.509728 383.828794,173.11284 C382.70428,173.715953 382.44358,175.291829 381.14786,175.708171 Z" id="路径" fill="#A0616A"></path>
            <path d="M356.715953,104.116732 C359.564202,104.420233 362.163424,105.766537 364.712062,107.089494 C364.276265,107.774319 364.828794,108.758755 365.603113,108.992218 C366.377432,109.225681 367.225681,108.894942 367.883268,108.416342 C368.540856,107.937743 369.081712,107.319066 369.743191,106.859922 C370.311284,106.470817 371.035019,106.058366 371.097276,105.365759 C371.159533,104.673152 370.505837,104.140078 370.097276,103.564202 C368.63035,101.505837 370.252918,98.2840467 368.750973,96.2490272 C367.996109,95.229572 366.684825,94.844358 365.521401,94.3463035 C363.910506,93.6614786 362.44358,92.6731518 360.828794,91.9922179 C359.214008,91.311284 357.354086,90.9571984 355.727626,91.6031128 C352.684825,92.8132296 351.595331,96.9727626 348.505837,98.0583658 C348.173481,98.1238566 347.871565,98.2959897 347.645914,98.5486381 C347.256809,99.1400778 346.770428,102.638132 346.867704,103.357977 C347.015564,104.560311 347.346304,105.003891 348.529183,105.361868 C351.058366,106.116732 354.007782,103.824903 356.715953,104.116732 Z" id="路径" fill="#3F3D56"></path>
            <path d="M393.59144,136.381323 C394.506588,137.212754 395.218765,138.24308 395.673152,139.392996 C396.04219,140.492376 396.335995,141.615593 396.552529,142.754864 C397.085603,144.941634 397.964981,147.035019 398.435798,149.229572 C399.237447,152.979217 398.828733,156.886521 397.268482,160.389105 C396.715953,161.610895 396.023346,162.785992 395.735409,164.097276 C395.626459,164.599222 395.575875,165.120623 395.431907,165.614786 C395.194061,166.304449 394.864237,166.958863 394.451362,167.560311 L388.070039,177.828794 C387.57474,176.616763 386.582773,175.675812 385.346304,175.245136 C384.118287,174.83073 382.801939,174.75148 381.533074,175.015564 C382.007782,174.268482 382.217899,173.431907 382.700389,172.680934 C382.965448,172.282144 383.208357,171.869068 383.428016,171.44358 C383.645392,170.98186 383.835092,170.50761 383.996109,170.023346 L384.832685,167.661479 C385.81323,164.902724 386.77821,162.143969 387.638132,159.342412 C388.156122,157.710809 388.566856,156.047078 388.867704,154.361868 C388.961572,153.933383 388.97214,153.490842 388.898833,153.058366 C388.768476,152.631666 388.568649,152.229382 388.307393,151.867704 C387.379185,150.292691 386.573939,148.648377 385.898833,146.949416 C385.392996,145.762646 384.883268,144.428016 385.338521,143.22179 C385.62807,142.583184 386.056045,142.016981 386.59144,141.564202 C388.712699,139.567147 391.06229,137.827482 393.59144,136.381323 Z" id="路径" fill="#3C354C"></path>
            <path d="M361.163424,267.85214 L361.63035,266.891051 C360.735409,262.571984 361.178988,258.07393 361.63035,253.661479 L362.879377,241.552529 C363.077821,239.607004 363.268482,237.661479 363.042802,235.7393 C362.750973,233.404669 361.832685,231.070039 362.404669,228.77821 C362.564202,228.14786 362.828794,227.55642 363.003891,226.929961 C363.212905,226.048563 363.325113,225.146988 363.338521,224.241245 L363.840467,214.719844 C363.922179,213.194553 364.054475,211.544747 364.677043,210.182879 L364.677043,209.922179 L363.07393,196.124514 L358.840467,267.85214 L361.163424,267.85214 Z" id="路径" fill="#000000" opacity="0.1"></path>
            <path d="M324.747082,273.801556 C325.914397,271.657588 324.59144,269.027237 323.077821,267.116732 C321.564202,265.206226 319.727626,263.225681 319.766537,260.77821 C319.824903,257.276265 323.540856,255.210117 326.509728,253.350195 C328.714223,251.974089 330.746734,250.339982 332.564202,248.48249 C333.325891,247.768318 333.955526,246.925292 334.424125,245.992218 C335.038911,244.622568 335.023346,243.066148 334.984436,241.568093 C334.85214,236.571984 334.60441,231.579767 334.241245,226.59144" id="路径" stroke="#3F3D56" stroke-width="4"></path>
            <path d="M339.88716,226.319066 C339.803079,224.4602 338.775991,222.772841 337.163424,221.844358 L335.941634,224.264591 L335.980545,221.33463 C335.39611,221.163345 334.787407,221.089722 334.178988,221.116732 C331.178207,221.265543 328.864462,223.815814 329.007508,226.816876 C329.150554,229.817937 331.696375,232.136578 334.697706,231.999298 C337.699037,231.862018 340.022564,229.320655 339.891051,226.319066 L339.88716,226.319066 Z" id="路径" fill="#57B894"></path>
            <path d="M330.14786,263.280156 C328.967289,265.568342 326.345865,266.717471 323.863133,266.035131 C321.380402,265.352792 319.714458,263.025348 319.869121,260.455207 C320.023784,257.885067 321.956813,255.774198 324.503454,255.394511 C327.050095,255.014824 329.514799,256.470021 330.412451,258.883268 L327,261.673152 L330.754864,260.805447 C330.751012,261.666737 330.542987,262.514839 330.14786,263.280156 Z" id="路径" fill="#57B894"></path>
            <path d="M327.451362,252.677043 C324.638994,252.875693 322.139759,250.895616 321.689869,248.112367 C321.23998,245.329118 322.988113,242.662489 325.719844,241.964981 L325.688716,244.214008 L326.92607,241.766537 C328.373189,241.695763 329.788887,242.204388 330.860089,243.179934 C331.931291,244.15548 332.569738,245.517568 332.634241,246.964981 C332.666208,247.595131 332.587186,248.225997 332.400778,248.828794 C331.728411,251.027508 329.747965,252.567336 327.451362,252.677043 Z" id="路径" fill="#57B894"></path>
            <path d="M340.708171,243.856031 C338.410203,243.940493 336.306689,242.572886 335.451419,240.438336 C334.59615,238.303785 335.17335,235.862072 336.893861,234.336414 C338.614372,232.810756 341.107597,232.529778 343.124514,233.634241 L342.159533,236.280156 L344.143969,234.373541 C345.207411,235.347506 345.841279,236.703397 345.906615,238.143969 C345.932521,238.649826 345.886671,239.156804 345.770428,239.649805 C345.216466,242.028006 343.147604,243.747022 340.708171,243.856031 Z" id="路径" fill="#57B894"></path>
            <path d="M339.151751,227.774319 C337.891051,227.910506 336.66537,228.303502 335.400778,228.381323 C334.136187,228.459144 332.747082,228.159533 331.945525,227.175097 C331.51751,226.645914 331.299611,225.976654 330.937743,225.396887 C330.592138,224.85828 330.119021,224.413231 329.560311,224.101167 C328.661395,225.980206 328.912702,228.207356 330.207738,229.838834 C331.502773,231.470313 333.614792,232.220465 335.648799,231.771406 C337.682806,231.322347 339.28267,229.752702 339.770428,227.727626 C339.565499,227.735409 339.359274,227.750973 339.151751,227.774319 Z" id="路径" fill="#000000" opacity="0.1"></path>
            <path d="M340.708171,243.856031 C338.792216,243.953245 336.966367,243.035493 335.901299,241.439886 C334.836231,239.844278 334.688974,237.806066 335.513619,236.07393 C335.946926,236.36525 336.319575,236.737898 336.610895,237.171206 C337,237.758755 337.237354,238.439689 337.692607,238.976654 C338.544747,239.976654 339.996109,240.303502 341.315175,240.245136 C342.634241,240.18677 343.906615,239.809339 345.206226,239.688716 C345.389105,239.688716 345.571984,239.661479 345.758755,239.657588 C345.202989,242.028703 343.140917,243.742859 340.708171,243.856031 Z" id="路径" fill="#000000" opacity="0.1"></path>
            <path d="M327.451362,252.677043 C325.553832,252.773114 323.743338,251.873591 322.673711,250.303322 C321.604084,248.733052 321.429879,246.718931 322.214008,244.988327 C322.66707,245.28422 323.062599,245.659973 323.381323,246.097276 C323.805447,246.696498 324.070039,247.389105 324.568093,247.941634 C325.490272,248.964981 327.038911,249.326848 328.431907,249.29572 C329.824903,249.264591 331.089494,248.933852 332.431907,248.828794 C331.755708,251.037889 329.759601,252.580194 327.451362,252.677043 Z" id="路径" fill="#000000" opacity="0.1"></path>
            <path d="M330.14786,263.280156 C328.917576,266.02976 325.691239,267.261413 322.941634,266.031128 C320.19203,264.800844 318.960377,261.574507 320.190661,258.824903 C320.641401,259.11965 321.045377,259.480343 321.389105,259.894942 C321.910506,260.525292 322.252918,261.245136 322.85214,261.840467 C323.968872,262.937743 325.770428,263.396887 327.377432,263.431907 C328.3031,263.436291 329.228209,263.385618 330.14786,263.280156 Z" id="路径" fill="#000000" opacity="0.1"></path>
            <path d="M316.509728,271.330739 C316.509728,271.330739 320.821012,271.198444 322.120623,270.272374 C323.420233,269.346304 328.735409,268.245136 329.070039,269.727626 C329.404669,271.210117 335.548638,277.120623 330.684825,277.143969 C325.821012,277.167315 319.377432,276.389105 318.077821,275.587549 C316.77821,274.785992 316.509728,271.330739 316.509728,271.330739 Z" id="路径" fill="#656380"></path>
            <path d="M330.770428,276.63035 C325.902724,276.669261 319.463035,275.85214 318.167315,275.07393 C317.178988,274.470817 316.785992,272.315175 316.653696,271.319066 L316.509728,271.319066 C316.509728,271.319066 316.782101,274.797665 318.066148,275.599222 C319.350195,276.400778 325.805447,277.182879 330.673152,277.155642 C332.077821,277.155642 332.560311,276.645914 332.533074,275.906615 C332.350195,276.342412 331.817121,276.618677 330.770428,276.63035 Z" id="路径" fill="#000000" opacity="0.2"></path>
            <path d="M22.7237354,278.081712 C21.5564202,275.937743 22.8793774,273.307393 24.3929961,271.396887 C25.9066148,269.486381 27.7431907,267.505837 27.7042802,265.058366 C27.6459144,261.55642 23.9299611,259.490272 20.9610895,257.63035 C18.7565942,256.254245 16.724083,254.620137 14.9066148,252.762646 C14.1449265,252.048474 13.5152912,251.205447 13.0466926,250.272374 C12.4319066,248.902724 12.4474708,247.346304 12.4863813,245.848249 C12.618677,240.85214 12.8664073,235.859922 13.229572,230.871595" id="路径" stroke="#3F3D56" stroke-width="4"></path>
            <path d="M7.58365759,230.599222 C7.6677377,228.740356 8.6948259,227.052996 10.307393,226.124514 L11.5291829,228.544747 L11.4902724,225.614786 C12.0747069,225.443501 12.6834105,225.369878 13.2918288,225.396887 C16.29261,225.545698 18.6063549,228.09597 18.4633092,231.097031 C18.3202634,234.098093 15.7744416,236.416733 12.7731108,236.279453 C9.77177988,236.142173 7.448253,233.600811 7.57976654,230.599222 L7.58365759,230.599222 Z" id="路径" fill="#57B894"></path>
            <path d="M17.3229572,267.560311 C18.5035278,269.848497 21.1249526,270.997626 23.607684,270.315287 C26.0904155,269.632947 27.7563593,267.305503 27.601696,264.735363 C27.4470326,262.165223 25.5140045,260.054354 22.9673635,259.674667 C20.4207225,259.29498 17.9560183,260.750177 17.0583658,263.163424 L20.4708171,265.937743 L16.7315175,265.070039 C16.7280856,265.935322 16.9308282,266.788974 17.3229572,267.560311 Z" id="路径" fill="#57B894"></path>
            <path d="M20.0194553,256.957198 C22.8318229,257.155849 25.3310585,255.175771 25.780948,252.392523 C26.2308374,249.609274 24.482704,246.942644 21.7509728,246.245136 L21.7821012,248.494163 L20.5447471,246.046693 C19.0976276,245.975918 17.6819305,246.484544 16.6107285,247.46009 C15.5395264,248.435636 14.9010793,249.797724 14.8365759,251.245136 C14.8046087,251.875287 14.8836316,252.506153 15.0700389,253.108949 C15.7424058,255.307663 17.7228526,256.847492 20.0194553,256.957198 Z" id="路径" fill="#57B894"></path>
            <path d="M6.76264591,248.136187 C9.06061401,248.220649 11.1641283,246.853042 12.0193978,244.718491 C12.8746673,242.583941 12.2974675,240.142228 10.5769565,238.61657 C8.85644545,237.090911 6.36322001,236.809934 4.3463035,237.914397 L5.31128405,240.560311 L3.32684825,238.653696 C2.26052612,239.626345 1.623779,240.982406 1.55642023,242.424125 C1.53051381,242.929982 1.57636449,243.436959 1.692607,243.929961 C2.24735717,246.310842 4.32027251,248.030582 6.76264591,248.136187 Z" id="路径" fill="#57B894"></path>
            <path d="M8.31906615,232.054475 C9.57976654,232.190661 10.8054475,232.583658 12.0700389,232.661479 C13.3346304,232.7393 14.7237354,232.439689 15.5252918,231.455253 C15.9533074,230.92607 16.1712062,230.256809 16.5330739,229.677043 C16.8786796,229.138436 17.3517957,228.693386 17.9105058,228.381323 C18.8094224,230.260362 18.5581155,232.487512 17.2630796,234.11899 C15.9680437,235.750468 13.8560255,236.500621 11.8220183,236.051562 C9.78801111,235.602503 8.18814748,234.032858 7.70038911,232.007782 C7.90531777,232.015564 8.11154345,232.031128 8.31906615,232.054475 Z" id="路径" fill="#000000" opacity="0.1"></path>
            <path d="M6.76264591,248.136187 C8.67860064,248.233401 10.5044497,247.315649 11.5695177,245.720041 C12.6345857,244.124434 12.7818429,242.086221 11.9571984,240.354086 C11.5238907,240.645405 11.151242,241.018054 10.8599222,241.451362 C10.4708171,242.038911 10.233463,242.719844 9.77821012,243.256809 C8.92607004,244.256809 7.47470817,244.583658 6.15564202,244.525292 C4.83657588,244.466926 3.56420233,244.089494 2.26459144,243.968872 C2.08171206,243.968872 1.89883268,243.941634 1.71206226,243.937743 C2.26782849,246.308858 4.32989963,248.023014 6.76264591,248.136187 Z" id="路径" fill="#000000" opacity="0.1"></path>
            <path d="M20.0194553,256.957198 C21.9169848,257.05327 23.7274789,256.153747 24.7971058,254.583477 C25.8667327,253.013208 26.0409377,250.999087 25.2568093,249.268482 C24.8037467,249.564376 24.4082177,249.940129 24.0894942,250.377432 C23.6653696,250.976654 23.4007782,251.669261 22.922179,252.22179 C22,253.245136 20.4513619,253.607004 19.0583658,253.575875 C17.6653696,253.544747 16.4007782,253.214008 15.0583658,253.108949 C15.732176,255.311547 17.7184872,256.852302 20.0194553,256.957198 Z" id="路径" fill="#000000" opacity="0.1"></path>
            <path d="M17.3229572,267.560311 C18.5532414,270.309916 21.7795784,271.541568 24.5291828,270.311284 C27.2787872,269.081 28.5104397,265.854663 27.2801556,263.105058 C26.8294165,263.399805 26.4254406,263.760498 26.0817121,264.175097 C25.5603113,264.805447 25.2178988,265.525292 24.618677,266.120623 C23.5019455,267.217899 21.7003891,267.677043 20.0933852,267.712062 C19.1677174,267.716447 18.2426081,267.665774 17.3229572,267.560311 Z" id="路径" fill="#000000" opacity="0.1"></path>
            <path d="M30.9610895,275.610895 C30.9610895,275.610895 26.6498054,275.478599 25.3501946,274.552529 C24.0505837,273.626459 18.7354086,272.525292 18.4007782,274.007782 C18.0661479,275.490272 11.922179,281.400778 16.7859922,281.424125 C21.6498054,281.447471 28.0933852,280.669261 29.3929961,279.867704 C30.692607,279.066148 30.9610895,275.610895 30.9610895,275.610895 Z" id="路径" fill="#656380"></path>
            <path d="M16.7003891,280.910506 C21.5680934,280.949416 28.0077821,280.132296 29.3035019,279.354086 C30.2918288,278.750973 30.6848249,276.595331 30.8171206,275.599222 L30.9610895,275.599222 C30.9610895,275.599222 30.688716,279.077821 29.4046693,279.879377 C28.1206226,280.680934 21.6653696,281.463035 16.7976654,281.435798 C15.3929961,281.435798 14.9105058,280.92607 14.9377432,280.18677 C15.1206226,280.622568 15.6536965,280.898833 16.7003891,280.910506 Z" id="路径" fill="#000000" opacity="0.2"></path>
        </g>
    </g>
</svg>