<?xml version="1.0" encoding="UTF-8"?>
<svg width="50px" height="50px" viewBox="0 0 50 50" version="1.1" xmlns="http://www.w3.org/2000/svg" xmlns:xlink="http://www.w3.org/1999/xlink">
    <!-- Generator: Sketch 52.2 (67145) - http://www.bohemiancoding.com/sketch -->
    <title>分组 7</title>
    <desc>Created with Sketch.</desc>
    <g id="Page-1" stroke="none" stroke-width="1" fill="none" fill-rule="evenodd">
        <g id="Desktop-Copy" transform="translate(-1019.000000, -981.000000)">
            <g id="分组-7" transform="translate(1019.000000, 981.000000)">
                <circle id="椭圆形-copy" fill="#5D6174" cx="25" cy="25" r="25"></circle>
                <g id="分组" transform="translate(10.365854, 13.414634)" fill="#FFFFFF">
                    <path d="M23.6933515,7.45405696 L23.6933515,13.7434921 C23.6933515,15.4118591 22.3373771,16.7716282 20.673666,16.7716282 L13.0371858,16.7716282 L5.80135815,23.1221865 C5.67068153,23.2356373 5.50804191,23.293928 5.34257766,23.293928 C5.24386403,23.293928 5.14797505,23.2735039 5.05505936,23.2328047 C4.80545066,23.1192049 4.64578434,22.8717302 4.64578434,22.5950356 L4.64578434,16.7716282 L3.01968549,16.7716282 C1.35597437,16.7716282 -1.13686838e-13,15.4118591 -1.13686838e-13,13.7434921 L-1.13686838e-13,3.02828518 C-1.13686838e-13,1.35976907 1.35597437,0 3.01968549,0 L20.673666,0 C22.3373771,0 23.6933515,1.35976907 23.6933515,3.02828518 L23.6933515,6.05642128 L26.2486072,6.05642128 C27.9123183,6.05642128 29.2682927,7.41619036 29.2682927,9.08455739 L29.2682927,18.4021286 C29.2682927,20.0706447 27.9123183,21.4304138 26.2486072,21.4304138 L25.5516652,21.4304138 L25.5516652,25.3904561 C25.5516652,25.6523916 25.4065681,25.8912196 25.1742045,26.0106336 C25.0726663,26.0629611 24.9651814,26.0891994 24.8548719,26.0891994 C24.7125994,26.0891994 24.5703269,26.0455186 24.4484215,25.9581571 L18.1271815,21.4304138 L12.7758326,21.4304138 C12.3896007,21.4304138 12.0788906,21.1188342 12.0788906,20.7315214 C12.0788906,20.3443577 12.3896007,20.0327781 12.7758326,20.0327781 L18.3507738,20.0327781 C18.4960196,20.0327781 18.6382921,20.0792914 18.7572242,20.1638204 L24.1580786,24.0335195 L24.1580786,20.7315214 C24.1580786,20.3443577 24.46864,20.0327781 24.8548719,20.0327781 L26.2486072,20.0327781 C27.1458011,20.0327781 27.8745574,19.3019823 27.8745574,18.4021286 L27.8745574,9.08455739 C27.8745574,8.18485271 27.1458011,7.45405696 26.2486072,7.45405696 L23.6933515,7.45405696 Z M3.01968549,1.39763568 C2.12249162,1.39763568 1.39358664,2.12843143 1.39358664,3.02828518 L1.39358664,13.7434921 C1.39358664,14.6431967 2.12249162,15.3739925 3.01968549,15.3739925 L5.34257766,15.3739925 C5.72880959,15.3739925 6.03937098,15.6855721 6.03937098,16.0728849 L6.03937098,21.0547293 L12.3170521,15.545734 C12.4447554,15.4351158 12.607395,15.3739925 12.7758326,15.3739925 L20.673666,15.3739925 C21.5708599,15.3739925 22.2996162,14.6431967 22.2996162,13.7434921 L22.2996162,3.02828518 C22.2996162,2.12843143 21.5708599,1.39763568 20.673666,1.39763568 L3.01968549,1.39763568 Z" id="合并形状"></path>
                </g>
            </g>
        </g>
    </g>
</svg>