<?xml version="1.0" encoding="UTF-8"?>
<svg width="50px" height="50px" viewBox="0 0 50 50" version="1.1" xmlns="http://www.w3.org/2000/svg" xmlns:xlink="http://www.w3.org/1999/xlink">
    <!-- Generator: Sketch 52.2 (67145) - http://www.bohemiancoding.com/sketch -->
    <title>分组 5</title>
    <desc>Created with Sketch.</desc>
    <g id="Page-1" stroke="none" stroke-width="1" fill="none" fill-rule="evenodd">
        <g id="Desktop-Copy" transform="translate(-1130.000000, -981.000000)">
            <g id="分组-5" transform="translate(1130.000000, 981.000000)">
                <circle id="椭圆形-copy-2" fill="#5D6174" cx="25" cy="25" r="25"></circle>
                <path d="M25.9436233,25.0010515 L30.9092969,20.0342966 C31.1602994,19.7832279 31.1602994,19.3710852 30.9092969,19.1200165 L30.8821086,19.0928224 C30.6311061,18.8417658 30.21904,18.8417658 29.9680375,19.0928224 L25.0023518,24.0658622 L20.036666,19.0907314 C19.7856635,18.8396749 19.3735974,18.8396749 19.1225949,19.0907314 L19.0953945,19.1179256 C18.8381205,19.3689821 18.8381205,19.781137 19.0953945,20.0321935 L24.0610924,25.0010515 L19.0953945,29.9677943 C18.844392,30.2188509 18.844392,30.6310057 19.0953945,30.8820623 L19.1225949,30.9092686 C19.3735974,31.1603251 19.7856635,31.1603251 20.036666,30.9092686 L25.0023518,25.9425015 L29.9680497,30.9092686 C30.2190522,31.1603251 30.6311183,31.1603251 30.8821208,30.9092686 L30.9093091,30.8820623 C31.1603116,30.6310057 31.1603116,30.2188509 30.9093091,29.9677943 L25.9436233,25.0010515 Z" id="路径" fill="#FFFFFF"></path>
            </g>
        </g>
    </g>
</svg>