<?xml version="1.0" encoding="UTF-8"?>
<svg width="30px" height="19px" viewBox="0 0 30 19" version="1.1" xmlns="http://www.w3.org/2000/svg" xmlns:xlink="http://www.w3.org/1999/xlink">
    <!-- Generator: Sketch 52.2 (67145) - http://www.bohemiancoding.com/sketch -->
    <title>眼睛 copy</title>
    <desc>Created with Sketch.</desc>
    <g id="Page-6" stroke="none" stroke-width="1" fill="none" fill-rule="evenodd">
        <g id="眼睛" transform="translate(1.000000, 2.000000)" fill="#8091A0">
            <path d="M27.8256007,1.6953767 C28.1192757,1.21947761 28.0352906,0.604009675 27.6246763,0.222950143 C27.2259044,-0.112761958 26.6286706,-0.0637838881 26.2907179,0.332344145 C26.2630713,0.364749921 26.2376673,0.398979824 26.2146804,0.434798175 C26.1688555,0.485571662 20.6169957,7.37326015 14.0076454,7.37326015 C7.60097236,7.37326011 1.79355342,0.436547392 1.74420815,0.380519044 C1.40390453,-0.0337889348 0.789930186,-0.0956097276 0.372863794,0.242437765 C0.359694103,0.253112114 0.346807714,0.264126852 0.334218014,0.275470723 C-0.0696591056,0.670254201 -0.112803627,1.3025934 0.233755743,1.74789725 L0.23375343,1.74789449 C1.19643126,2.89969365 2.27020386,3.95520577 3.43973129,4.89935554 L0.892931598,7.68839491 C0.5152217,8.0962229 0.521392885,8.72537078 0.907031671,9.12581056 L0.942281619,9.16082681 C1.06645158,9.37038027 1.29906502,9.49235276 1.54329256,9.47597288 C1.81230568,9.47343314 2.06796691,9.35914843 2.24829023,9.16082677 L4.99778058,6.16344367 L4.99777849,6.16344214 C6.39662502,7.18883569 7.92935305,8.02050948 9.55382216,8.63559286 L8.49632504,12.3683146 L8.49632509,12.3683145 C8.33396017,12.9134238 8.63217851,13.4889349 9.17312292,13.6744186 L9.49742396,13.6744186 C9.96324959,13.6709491 10.3617352,13.3410793 10.4491709,12.886554 L11.506668,9.15383222 L11.5066673,9.15383208 C12.3295129,9.32431395 13.1671473,9.4146176 14.0076435,9.42345716 L14.0076433,9.42345716 C14.8484621,9.41626266 15.686606,9.32831285 16.5103804,9.16083563 L17.5678775,12.8375424 C17.6699966,13.283303 18.0598315,13.6060108 18.5196244,13.625407 C18.6067268,13.6396461 18.6960375,13.6209027 18.7698981,13.5728827 C19.3169209,13.4043504 19.6294656,12.833856 19.4748957,12.2860374 L19.4748957,12.2580244 L18.4173986,8.5813176 L18.4173981,8.58131777 C20.0418538,7.96619567 21.5745684,7.13452855 22.9734418,6.10918041 L25.6771087,9.05404694 C26.0168719,9.43840726 26.6059706,9.47638796 26.9928962,9.13887658 C27.0231771,9.11246301 27.0517022,9.08412703 27.078292,9.05404691 C27.4675082,8.64637786 27.4887007,8.01409876 27.1276418,7.58162026 L24.5685024,4.79607933 L24.5685033,4.79607869 C25.7673825,3.88661282 26.8598931,2.84655656 27.8256007,1.69539833 L27.8256007,1.6953767 Z" id="路径"></path>
        </g>
    </g>
</svg>