<?xml version="1.0" encoding="UTF-8"?>
<svg width="28px" height="32px" viewBox="0 0 28 32" version="1.1" xmlns="http://www.w3.org/2000/svg" xmlns:xlink="http://www.w3.org/1999/xlink">
    <!-- Generator: Sketch 52.2 (67145) - http://www.bohemiancoding.com/sketch -->
    <title>通讯录</title>
    <desc>Created with Sketch.</desc>
    <g id="切图" stroke="none" stroke-width="1" fill="none" fill-rule="evenodd">
        <path d="M24.0595594,0 L3.94044057,0 C1.76425245,0 0,1.76419932 0,3.94044057 L0,6.97993525 L4.02254858,6.97993525 L4.02254858,10.1732284 L0,10.1732284 L0,14.2880865 L4.02254858,14.2880865 L4.02254858,17.4813796 L0,17.4813796 L0,21.5964148 L4.02254858,21.5964148 L4.02254858,24.7897079 L0,24.7897079 L0,27.8292026 C0,30.0053907 1.76419932,31.7696432 3.94044057,31.7696432 L24.0595594,31.7696432 C26.2358928,31.7696432 28,30.0054439 28,27.8292026 L28,3.94041227 C27.9999637,1.76422415 26.2358715,7.11980579e-06 24.0595594,7.11980579e-06 L24.0595594,0 Z M22.8567975,24.1045098 C22.8067761,24.1121943 22.7576969,24.1179939 22.7095964,24.1179939 C22.3382401,24.1179939 22.0073392,23.8544024 21.9361482,23.4753624 C21.3377763,20.2968579 18.5517928,17.9918721 15.311718,17.9918721 C12.0831907,17.9918721 9.29913052,20.2872444 8.69210509,23.4522673 C8.60938817,23.879406 8.19761863,24.1603266 7.76953411,24.077574 C7.34145313,23.9967783 7.06147474,23.5830875 7.14324978,23.1559452 C7.76964392,19.8912096 10.282064,17.3993874 13.4132837,16.6609112 C11.7084551,15.9226936 10.5112403,14.2267842 10.5112403,12.2544245 C10.5112403,9.60694416 12.6652082,7.45202691 15.3136378,7.45202691 C17.9620603,7.45202691 20.1160354,9.60694062 20.1160354,12.2544245 C20.1160354,14.2270464 18.9185655,15.9231789 17.213411,16.6612654 C20.353929,17.4020193 22.8672806,19.9044716 23.4850035,23.1828659 C23.5657991,23.6100046 23.2839388,24.0236618 22.8567993,24.1044946 L22.8567975,24.1045098 Z M18.540247,12.2543901 C18.540247,10.4765959 17.092415,9.02970609 15.3136431,9.02970609 C13.5348712,9.02970609 12.0870392,10.4765604 12.0870392,12.2543901 C12.0870392,14.0322198 13.5348712,15.4790741 15.3136431,15.4790741 C17.092415,15.4790741 18.540247,14.0322198 18.540247,12.2543901 Z" id="Shape" fill="currentColor" fill-rule="nonzero"></path>
    </g>
</svg>