<?xml version="1.0" encoding="UTF-8"?>
<svg width="30px" height="22px" viewBox="0 0 30 22" version="1.1" xmlns="http://www.w3.org/2000/svg" xmlns:xlink="http://www.w3.org/1999/xlink">
    <!-- Generator: Sketch 61.2 (89653) - https://sketch.com -->
    <title>群组</title>
    <desc>Created with Sketch.</desc>
    <g id="切图" stroke="none" stroke-width="1" fill="none" fill-rule="evenodd">
        <path d="M3.17478442,17.9074001 C2.94753315,18.7255047 2.82633247,19.2860578 2.82633247,19.2860578 C2.82633247,19.2860578 0.750770865,18.8164052 0.0538669679,18.3619027 C0.0538669679,17.8922501 -0.0673337099,17.1953462 0.0538669679,16.634793 C0.402318916,14.5592314 4.32619086,13.5138756 5.4775973,12.6048705 C5.59879797,12.4836698 5.70484857,12.1352179 5.70484857,12.0291673 C5.70484857,11.5595146 5.58364789,11.3322634 5.58364789,11.3322634 C5.58364789,11.3322634 3.50808628,9.95360566 3.50808628,6.48423626 C3.50808628,5.10557855 4.32619086,2.45431372 7.20470695,2.45431372 L7.32590763,2.45431372 C7.79556026,2.45431372 8.2500628,2.5755144 8.58336466,2.681565 C8.11371204,3.72692084 7.08350628,6.62058702 10.0832231,10.9989615 C11.0073782,11.8170661 10.5528757,12.3776192 10.0832231,12.7260712 C9.7347711,12.9533224 9.50751983,12.9533224 9.26511848,13.0745231 C5.02309476,14.6955822 3.2959851,16.7711438 3.17478442,17.9074001 L3.17478442,17.9074001 Z M14.9615503,21.4979702 C12.3102855,21.4979702 10.3407745,21.3767695 8.8409161,21.1495183 C3.52323637,20.4526144 5.14429543,18.7255047 5.3715467,17.6801489 C5.71999865,15.1349346 11.0376784,13.8623275 12.5223867,12.7109211 C12.749638,12.5897204 12.9920393,12.2412685 12.9920393,12.1352179 C12.9920393,11.438314 12.6435874,11.089862 12.6435874,11.089862 C12.6435874,11.089862 9.99232254,9.36275236 9.99232254,5.07527838 C9.99232254,3.22696804 11.0376784,0 14.6130984,0 L14.8403497,0 C18.3097191,0 19.3399248,3.24211813 19.4611255,5.07527838 C19.4611255,9.57485354 16.8098607,11.089862 16.8098607,11.089862 C16.8098607,11.089862 16.68866,11.3171133 16.68866,12.0140172 C16.68866,12.1352179 16.8098607,12.5897204 16.9159113,12.7109211 C18.4157696,13.8774776 23.8395,15.1349346 24.3091526,17.6801489 C24.6576045,19.0739567 27.2028188,21.4979702 14.9615503,21.4979702 L14.9615503,21.4979702 Z M26.5059149,19.4224086 C26.5059149,19.4224086 26.3847142,18.7255047 26.1574629,17.695299 C25.9302117,16.4378419 24.9000059,15.1500847 21.3094358,13.5441757 C21.885139,13.8926277 17.9612671,12.7260712 19.1126735,10.9989615 C22.233591,8.57494795 21.4154864,4.87832728 20.8397832,2.80276567 C21.1882351,2.5755144 21.7639384,2.45431372 22.3396416,2.45431372 L22.4608423,2.45431372 C25.3545084,2.45431372 26.1574629,4.99952796 26.2786636,6.48423626 C26.3998643,9.95360566 24.203102,11.3322634 24.203102,11.3322634 C24.203102,11.3322634 24.0819013,11.453464 24.0819013,12.0291673 C24.0819013,12.1503679 24.203102,12.4988199 24.3091526,12.6048705 C25.4757091,13.6502263 29.6268323,14.5592314 29.8540836,16.634793 C30.0813349,17.3316969 29.9752843,17.8922501 29.9752843,18.4831034 C29.1571797,18.952756 26.5059149,19.4224086 26.5059149,19.4224086 L26.5059149,19.4224086 Z" id="形状" fill="#1ACA8E" fill-rule="nonzero"></path>
    </g>
</svg>