<?xml version="1.0" encoding="UTF-8"?>
<svg width="27px" height="31px" viewBox="0 0 27 31" version="1.1" 
    xmlns="http://www.w3.org/2000/svg" 
    xmlns:xlink="http://www.w3.org/1999/xlink">
    <!-- Generator: Sketch 52.2 (67145) - http://www.bohemiancoding.com/sketch -->
    <title>消息</title>
    <desc>Created with Sketch.</desc>
    <g id="切图" stroke="none" stroke-width="1" fill="none" fill-rule="evenodd">
        <path d="M26.130724,24.4536194 C26.0224876,21.9410158 24.7688035,19.7115374 22.8804771,18.2753398 L22.8804771,11.4567393 C22.8804771,7.51819323 20.0628992,4.20515802 16.3396404,3.42239676 L16.3396404,3.26654468 C16.3396404,1.46984378 14.8661907,1.42108547e-14 13.065362,1.42108547e-14 C11.2644994,1.42108547e-14 9.79108356,1.46987767 9.79108356,3.26654468 L9.79108356,3.42239676 C6.06784173,4.20515802 3.2502469,7.51822712 3.2502469,11.4567393 L3.2502469,18.2753398 C1.36195442,19.7115442 0.108099475,21.9410022 0,24.4536194 L3.2502469,24.4536194 L3.2502469,24.4756066 L22.8804838,24.4756066 L22.8804838,24.4536194 L26.1306969,24.4536194 L26.130724,24.4536194 Z M12.3745007,30.3775533 L13.1872616,30.3775533 C15.317862,30.3775533 17.0891385,28.7706543 17.3466021,26.7119248 L8.79316382,26.7119248 C9.05062812,28.7706679 10.8220836,30.3775533 12.9524705,30.3775533 L12.374494,30.3775533 L12.3745007,30.3775533 Z" id="Shape" fill="currentColor" fill-rule="nonzero"></path>
    </g>
</svg>