<?xml version="1.0" encoding="UTF-8"?>
<svg width="30px" height="19px" viewBox="0 0 30 19" version="1.1" xmlns="http://www.w3.org/2000/svg" xmlns:xlink="http://www.w3.org/1999/xlink">
    <!-- Generator: Sketch 52.2 (67145) - http://www.bohemiancoding.com/sketch -->
    <title>眼睛</title>
    <desc>Created with Sketch.</desc>
    <g id="Page-6" stroke="none" stroke-width="1" fill="none" fill-rule="evenodd">
        <g id="眼睛" transform="translate(1.000000, 0.000000)" fill="#8091A0">
            <path d="M27.8919394,8.75164491 C27.8919394,11.4735085 22.3049562,17.3470037 14.2682957,17.3470037 C6.53247272,17.3470037 0.644651913,11.6167645 0.644651913,8.75164491 C0.644651913,5.8865253 6.51814712,0.156286071 14.2682957,0.156286071 C22.2906306,0.141960473 27.8919394,5.8721997 27.8919394,8.75164491 Z M14.2682957,1.71777626 C10.6868962,1.71777626 7.67852056,4.86940783 7.67852056,8.73731931 C7.67852056,12.6052308 10.5436402,15.7568624 14.2682957,15.7568624 C17.8496952,15.7568624 20.8580708,12.6052308 20.8580708,8.73731931 C20.8580708,4.86940783 17.8496952,1.71777626 14.2682957,1.71777626 Z" id="形状" fill-rule="nonzero"></path>
            <path d="M14.2682957,4.29638391 C11.9762,4.29638391 10.1138722,6.30196764 10.1138722,8.73731931 C10.1138722,11.172671 11.9762,13.1782547 14.2682957,13.1782547 C16.5603914,13.1782547 18.4227191,11.172671 18.4227191,8.73731931 C18.4227191,6.30196764 16.5603914,4.29638391 14.2682957,4.29638391 Z" id="路径"></path>
        </g>
    </g>
</svg>