<?xml version="1.0" encoding="UTF-8"?>
<svg width="24px" height="24px" viewBox="0 0 24 24" version="1.1" xmlns="http://www.w3.org/2000/svg" xmlns:xlink="http://www.w3.org/1999/xlink">
    <!-- Generator: Sketch 52.2 (67145) - http://www.bohemiancoding.com/sketch -->
    <title>搜索</title>
    <desc>Created with Sketch.</desc>
    <g id="切图" stroke="none" stroke-width="1" fill="none" fill-rule="evenodd">
        <path d="M23.9999683,21.8394404 L21.8402192,24 L17.0750228,19.236316 C15.2911277,20.5725563 13.0979869,21.3923725 10.695945,21.3923725 C4.78769799,21.3909501 0,16.6030021 0,10.6960849 C-6.14935472e-16,4.78792247 4.78772684,0 10.6974451,0 C16.6042497,0 21.3919477,4.78795143 21.3919477,10.6960849 C21.3919477,13.0970049 20.5721638,15.2909394 19.2364191,17.0739581 L24,21.8394375 L23.9999683,21.8394404 Z M10.6974191,3.05761161 C6.47687592,3.05761161 3.05796532,6.47749417 3.05796532,10.6977674 C3.05796532,14.91639 6.47687592,18.3379232 10.6974191,18.3379232 C14.9150487,18.3379232 18.337046,14.91639 18.337046,10.6977674 C18.337046,6.47607519 14.9150198,3.05761161 10.6974191,3.05761161 Z" id="Shape-Copy" fill="currentColor" fill-rule="nonzero"></path>
    </g>
</svg>