<?xml version="1.0" standalone="no"?><!DOCTYPE svg PUBLIC "-//W3C//DTD SVG 1.1//EN" "http://www.w3.org/Graphics/SVG/1.1/DTD/svg11.dtd"><svg t="1584675063435" class="icon" viewBox="0 0 1024 1024" version="1.1" xmlns="http://www.w3.org/2000/svg" p-id="2714" xmlns:xlink="http://www.w3.org/1999/xlink" width="200" height="200"><defs><style type="text/css"></style></defs><path d="M778.24 712.704c-36.864 0-69.632 16.384-90.112 40.96 0 0 0 0 0 0l-360.448-204.8c4.096-12.288 8.192-24.576 8.192-36.864s-4.096-24.576-8.192-36.864l360.448-204.8c0 0 0 0 0 0 20.48 24.576 53.248 40.96 90.112 40.96 65.536 0 114.688-53.248 114.688-114.688S843.776 77.824 778.24 77.824s-114.688 53.248-114.688 114.688c0 12.288 4.096 24.576 8.192 36.864l-360.448 204.8c0 0 0 0 0 0-20.48-24.576-53.248-40.96-90.112-40.96-65.536 0-114.688 53.248-114.688 114.688s53.248 114.688 114.688 114.688c36.864 0 69.632-16.384 90.112-40.96 0 0 0 0 0 0l360.448 204.8c-4.096 12.288-8.192 24.576-8.192 36.864 0 65.536 53.248 114.688 114.688 114.688s114.688-53.248 114.688-114.688S843.776 712.704 778.24 712.704zM778.24 118.784c40.96 0 73.728 32.768 73.728 73.728S819.2 270.336 778.24 270.336c-40.96 0-73.728-32.768-73.728-73.728S737.28 118.784 778.24 118.784zM221.184 585.728c-40.96 0-73.728-32.768-73.728-73.728s32.768-73.728 73.728-73.728c40.96 0 73.728 32.768 73.728 73.728S262.144 585.728 221.184 585.728zM778.24 905.216c-40.96 0-73.728-32.768-73.728-73.728s32.768-73.728 73.728-73.728c40.96 0 73.728 32.768 73.728 73.728S819.2 905.216 778.24 905.216z" p-id="2715" fill="#707070"></path></svg>