<?xml version="1.0" encoding="UTF-8"?>
<svg width="26px" height="25px" viewBox="0 0 26 25" version="1.1" xmlns="http://www.w3.org/2000/svg" xmlns:xlink="http://www.w3.org/1999/xlink">
    <!-- Generator: Sketch 52.2 (67145) - http://www.bohemiancoding.com/sketch -->
    <title>订阅</title>
    <desc>Created with Sketch.</desc>
    <g id="切图" stroke="none" stroke-width="1" fill="none" fill-rule="evenodd">
        <path d="M3.97051845,24.3596561 C6.16183536,24.3596561 7.9410369,22.6560883 7.9410369,20.5518414 C7.9410369,18.4503202 6.16467754,16.7440268 3.97051845,16.7440268 C1.77920154,16.7440268 3.55271368e-15,18.4475945 3.55271368e-15,20.5518414 C0.00284217498,22.6560883 1.77920154,24.3596561 3.97051845,24.3596561 Z M17.4651653,22.8387108 C17.4651653,14.4299003 10.3568856,7.61290359 1.58877582,7.61290359 C0.710543746,7.61290359 0,8.2943307 0,9.13657459 C0,9.97881849 0.710543746,10.6602456 1.58877582,10.6602456 C8.60326367,10.6602456 14.2904558,16.1143881 14.2904558,22.8414365 C14.2904558,23.6836804 15.0009996,24.3651075 15.8792316,24.3651075 C16.7546215,24.3596561 17.4651653,23.678229 17.4651653,22.8387108 Z M25.40336,22.8387108 C25.40336,10.2241323 14.7423616,-7.10542736e-15 1.58877582,-7.10542736e-15 C0.710543746,-7.10542736e-15 0,0.681427103 0,1.523671 C0,2.3659149 0.710543746,3.047342 1.58877582,3.047342 C12.9887397,3.047342 22.2286505,11.90862 22.2286505,22.8414365 C22.2286505,23.6836804 22.9391943,24.3651075 23.8174264,24.3651075 C24.6928163,24.3596561 25.40336,23.678229 25.40336,22.8387108 Z" id="Shape" fill="currentColor" fill-rule="nonzero"></path>
    </g>
</svg>