<?xml version="1.0" encoding="UTF-8"?>
<svg width="18px" height="18px" viewBox="0 0 18 18" version="1.1" xmlns="http://www.w3.org/2000/svg" xmlns:xlink="http://www.w3.org/1999/xlink">
    <!-- Generator: Sketch 52.2 (67145) - http://www.bohemiancoding.com/sketch -->
    <title>分组 12</title>
    <desc>Created with Sketch.</desc>
    <g id="切图" stroke="none" stroke-width="1" fill="none" fill-rule="evenodd">
        <g id="分组-12">
            <g id="分组-6">
                <circle id="椭圆形-copy-7" fill="#EEEEEE" cx="9" cy="9" r="8.30769231"></circle>
                <path d="M9,17.6538462 C4.22061274,17.6538462 0.346153846,13.7793873 0.346153846,9 C0.346153846,4.22061274 4.22061274,0.346153846 9,0.346153846 C13.7793873,0.346153846 17.6538462,4.22061274 17.6538462,9 C17.6538462,13.7793873 13.7793873,17.6538462 9,17.6538462 Z M9,16.9615385 C13.3970363,16.9615385 16.9615385,13.3970363 16.9615385,9 C16.9615385,4.60296372 13.3970363,1.03846154 9,1.03846154 C4.60296372,1.03846154 1.03846154,4.60296372 1.03846154,9 C1.03846154,13.3970363 4.60296372,16.9615385 9,16.9615385 Z" id="椭圆形" fill="#CFCECE" fill-rule="nonzero"></path>
                <path d="M10.0157119,9.34608428 L12.2511932,7.33422638 C12.5316535,7.08174099 12.5316535,6.67250012 12.2511932,6.4200863 C11.9706534,6.16766354 11.51601,6.16766354 11.2354006,6.4200863 L9.0000087,8.43187263 L6.76459691,6.4200863 C6.48406701,6.16766354 6.02942366,6.16766354 5.74881423,6.4200863 C5.46834397,6.67250012 5.46834397,7.08180362 5.74881423,7.33422638 L7.98421608,9.34607534 L5.74881423,11.3580048 C5.46834397,11.6104813 5.46834397,12.0197221 5.74881423,12.2722075 C5.88338014,12.3936002 6.06614309,12.4617349 6.25667081,12.461538 C6.44719852,12.461735 6.62996146,12.3936005 6.76452734,12.2722075 L8.99992919,10.260287 L11.2354006,12.2721986 C11.3699665,12.3935913 11.5527295,12.4617259 11.7432572,12.4615291 C11.9337879,12.4617409 12.1165568,12.3936042 12.2511137,12.2721986 C12.531584,12.0197222 12.531584,11.6104813 12.2511137,11.3579959 L10.0157218,9.34608434 L10.0157119,9.34608428 Z" id="路径" fill="#FB7128"></path>
            </g>
        </g>
    </g>
</svg>