<?xml version="1.0" encoding="UTF-8"?>
<svg width="16px" height="17px" viewBox="0 0 16 17" version="1.1" xmlns="http://www.w3.org/2000/svg" xmlns:xlink="http://www.w3.org/1999/xlink">
    <!-- Generator: Sketch 61.2 (89653) - https://sketch.com -->
    <title>分配给我的@1x</title>
    <desc>Created with Sketch.</desc>
    <g id="雁行20200518" stroke="none" stroke-width="1" fill="none" fill-rule="evenodd">
        <g id="切图" transform="translate(-6.000000, -69.000000)" fill="#8091A0" fill-rule="nonzero">
            <path d="M16.1190493,81.6380732 L16.1190493,85.0911067 C14.6673612,85.0907962 13.4476207,85.090414 13.4476207,85.090414 C13.4476207,85.090414 10.1403997,85.0914889 7.93649485,85.0914889 C6.83419853,85.0914889 6.00824708,85.0911306 6.00891114,85.090414 C6.00993095,85.0893392 6.00891114,84.3157404 6.00891114,84.3157404 C6.00891114,84.3157404 5.79216588,82.4621178 7.49657716,81.2173806 C9.28665249,79.9101592 10.1932164,80.1071895 11.2159438,79.2806847 C11.567802,78.996664 11.9094859,78.5390207 11.9332024,78.1836306 C11.9663818,77.6887261 11.5928704,77.4927468 11.2159438,76.9569984 C10.6964572,76.2181768 9.35642649,74.2456051 9.35642649,74.2456051 L9.35642649,73.4712898 L9.72825405,73.4712898 C9.72825405,73.4712898 9.72756627,72.6348248 9.72825405,71.9219188 C9.72894183,71.2090127 9.78481795,70.8703424 10.4722649,70.1659395 C11.5190172,69.09375 12.8644552,69 13.3026653,69 C13.3954443,69 13.447597,69.0042516 13.447597,69.0042516 L16.7947803,69.0042516 C16.7947803,69.0042516 17.1662758,71.2089889 17.1669636,71.9218949 C17.1676514,72.634801 17.1669636,73.4712659 17.1669636,73.4712659 L17.5387912,73.4712659 L17.5387912,74.2455812 C17.5387912,74.2455812 16.1987605,76.2181529 15.6792739,76.9569745 C15.302371,77.4927229 14.9288358,77.6887022 14.9620152,78.1836067 C14.9857317,78.5389968 15.3274156,78.9966401 15.6792739,79.2806608 C16.1080922,79.6273328 16.5165855,79.7939331 16.978441,79.9669825 C16.4581006,80.3369666 16.1190493,80.9476672 16.1190493,81.6380732 Z M20.7779588,80.8853503 C21.4528738,80.8853503 22.0000004,81.432477 22.0000004,82.1073919 L22.0000004,84.7779587 C22.0000004,85.4528737 21.4528738,86.0000003 20.7779588,86.0000003 L18.150613,86.0000003 C17.4756981,86.0000003 16.9285714,85.4528737 16.9285714,84.7779587 L16.9285714,82.1073919 C16.9285714,81.432477 17.4756981,80.8853503 18.150613,80.8853503 L20.7779588,80.8853503 Z M19.4933079,82 L17.7862485,83.5 L19.4933079,85 L19.4933079,84.2517483 L21.1549575,84.2517483 L21.1549575,82.7552448 L19.4933079,82.7552448 L19.4933079,82 Z" id="分配给我的"></path>
        </g>
    </g>
</svg>