<?xml version="1.0" encoding="UTF-8"?>
<svg width="15px" height="15px" viewBox="0 0 15 15" version="1.1" xmlns="http://www.w3.org/2000/svg" xmlns:xlink="http://www.w3.org/1999/xlink">
    <!-- Generator: Sketch 61.2 (89653) - https://sketch.com -->
    <title>已计划@1x</title>
    <desc>Created with Sketch.</desc>
    <g id="雁行20200518" stroke="none" stroke-width="1" fill="none" fill-rule="evenodd">
        <g id="切图" transform="translate(-7.000000, -48.000000)" fill="#8091A0" fill-rule="nonzero">
            <g id="已计划" transform="translate(7.000000, 48.000000)">
                <path d="M0.0031875,3.89353125 L0.0031875,2.5978125 C0.0031875,2.2535625 0.14025,1.92365625 0.3825,1.68140625 C0.62634375,1.4375625 0.95625,1.30209375 1.29890625,1.30209375 L1.9475625,1.30209375 L1.9475625,0.6534375 C1.9475625,0.29484375 2.237625,0.00478125 2.59621875,0.00478125 C2.9548125,0.00478125 3.244875,0.29484375 3.244875,0.6534375 L3.244875,1.30209375 L11.0255625,1.30209375 L11.0255625,0.6534375 C11.0255625,0.29484375 11.315625,0.00478125 11.6742187,0.00478125 C12.0312187,0.00478125 12.3212813,0.29484375 12.3212813,0.6534375 L12.3212813,1.30209375 L12.973125,1.30209375 C13.317375,1.30209375 13.6472812,1.43915625 13.8895312,1.68140625 C14.133375,1.92525 14.2688437,2.25515625 14.2688437,2.5978125 L14.2688437,3.895125 L0.0031875,3.89353125 L0.0031875,3.89353125 Z M0.0031875,4.5421875 L14.2688437,4.5421875 L14.2688437,12.973125 C14.2688437,13.6903125 13.6887187,14.2704375 12.9715312,14.2704375 L1.3005,14.2704375 C0.95625,14.2704375 0.62634375,14.133375 0.38409375,13.891125 C0.14025,13.6472813 0.00478125,13.317375 0.00478125,12.9747188 L0.00478125,4.5421875 L0.0031875,4.5421875 Z M3.8536875,9.01903125 L6.0658125,11.1403125 C6.08334375,11.1642188 6.10246875,11.1849375 6.12478125,11.2056563 C6.23475,11.3188125 6.3845625,11.3809688 6.54075,11.3809688 C6.6969375,11.379375 6.84675,11.315625 6.955125,11.2024688 L10.608,7.57828125 C10.8390938,7.35515625 10.8454688,6.987 10.6223438,6.7543125 L10.6127813,6.74475 C10.5044063,6.63478125 10.3561875,6.57259432 10.2031875,6.57259432 C10.0485938,6.57103125 9.900375,6.63159375 9.79040625,6.73996875 L9.78084375,6.74953125 L6.53596875,9.96890625 L4.6760625,8.18709375 C4.45134375,7.9591875 4.0831875,7.956 3.85528125,8.18071875 L3.84890625,8.18709375 C3.621,8.41340625 3.6178125,8.7815625 3.844125,9.00946875 L3.8536875,9.01903125 L3.8536875,9.01903125 Z" id="形状"></path>
            </g>
        </g>
    </g>
</svg>