<?xml version="1.0" encoding="UTF-8"?>
<svg width="16px" height="17px" viewBox="0 0 16 17" version="1.1" xmlns="http://www.w3.org/2000/svg" xmlns:xlink="http://www.w3.org/1999/xlink">
    <!-- Generator: Sketch 59 (86127) - https://sketch.com -->
    <title>编组</title>
    <desc>Created with Sketch.</desc>
    <g id="雁行20200519" stroke="none" stroke-width="1" fill="none" fill-rule="evenodd">
        <g id="切图" transform="translate(-5.000000, -140.000000)" fill="#1ACA8E">
            <g id="编组" transform="translate(5.000000, 140.069160)">
                <path d="M3.8186708,4.31507281 C4.31507281,4.31507281 4.6969205,3.93322511 4.6969205,3.4368231 L4.6969205,0.878249703 C4.6969205,0.420032467 4.31507281,3.05533376e-13 3.8186708,3.05533376e-13 C3.3222688,3.05533376e-13 2.9404211,0.381847697 2.9404211,0.878249703 L2.9404211,3.4368231 C2.9404211,3.93322511 3.3222688,4.31507281 3.8186708,4.31507281 Z M13.1577351,3.4368231 C13.1577351,3.51319264 12.9133526,3.55137741 13.1577351,3.58956218 L13.1577351,3.4368231 Z M12.1431444,4.31507281 C12.6395464,4.31507281 13.0213941,3.93322511 13.0213941,3.4368231 L13.0213941,0.878249703 C13.0213941,0.420032467 12.6395464,3.05533376e-13 12.1431444,3.05533376e-13 C11.6467424,3.05533376e-13 11.2648947,0.381847697 11.2648947,0.878249703 L11.2648947,3.4368231 C11.3030795,3.93322511 11.6849272,4.31507281 12.1431444,4.31507281 Z M14.510794,1.56576939 L13.5943595,1.56576939 L13.5943595,3.43701694 C13.5943595,4.20071233 12.9452184,4.81166865 12.181523,4.81166865 C11.4178276,4.81166865 10.7686866,4.20071233 10.7686866,3.43701694 L10.7686866,1.56576939 L5.23150728,1.56576939 L5.23150728,3.43701694 C5.23150728,4.20071233 4.5823662,4.81166865 3.8186708,4.81166865 C3.05478158,4.81166865 2.40583432,4.20071233 2.40583432,3.43701694 L2.40583432,1.56576939 L1.48920602,1.56576939 C0.649141085,1.56576939 0,2.25309524 0,3.05516924 L0,14.6637269 C0,15.4656071 0.649141085,16.1147481 1.48920602,16.1147481 L14.510794,16.1147481 C15.3126741,16.1147481 16,15.4656071 16,14.6637269 L16,3.05516924 C16,2.25309524 15.3126741,1.56576939 14.510794,1.56576939 Z M14.7017178,14.6635331 C14.7017178,14.7780874 14.6253483,14.8544569 14.510794,14.8544569 L1.48920602,14.8544569 C1.37465171,14.8544569 1.29828217,14.7780874 1.29828217,14.6635331 L1.29828217,5.46080973 L14.7017178,5.46080973 L14.7017178,14.6635331 Z" id="我的一天"></path>
                <path d="M8,6.25298071 C8.49826947,6.25298071 8.90219668,6.65690792 8.90219668,7.15517739 L8.90121327,8.95898071 L10.70659,8.95957075 C11.2048595,8.95957075 11.6087867,9.36349796 11.6087867,9.86176743 C11.6087867,10.3600369 11.2048595,10.7639641 10.70659,10.7639641 L8.90121327,10.7629807 L8.90219668,12.5683575 C8.90219668,13.0666269 8.49826947,13.4705542 8,13.4705542 C7.50173053,13.4705542 7.09780332,13.0666269 7.09780332,12.5683575 L7.09721327,10.7629807 L5.29340996,10.7639641 C4.79514049,10.7639641 4.39121327,10.3600369 4.39121327,9.86176743 C4.39121327,9.36349796 4.79514049,8.95957075 5.29340996,8.95957075 L7.09721327,8.95898071 L7.09780332,7.15517739 C7.09780332,6.65690792 7.50173053,6.25298071 8,6.25298071 Z" id="形状结合"></path>
            </g>
        </g>
    </g>
</svg>