<?xml version="1.0" encoding="UTF-8"?>
<svg width="16px" height="17px" viewBox="0 0 16 17" version="1.1" xmlns="http://www.w3.org/2000/svg" xmlns:xlink="http://www.w3.org/1999/xlink">
    <!-- Generator: Sketch 59 (86127) - https://sketch.com -->
    <title>我的一天</title>
    <desc>Created with Sketch.</desc>
    <g id="雁行20200518" stroke="none" stroke-width="1" fill="none" fill-rule="evenodd">
        <g id="切图" transform="translate(-5.000000, -140.000000)" fill="#8091A0" fill-rule="nonzero">
            <path d="M8.8186708,144.384233 C9.31507281,144.384233 9.6969205,144.002385 9.6969205,143.505983 L9.6969205,140.94741 C9.6969205,140.489193 9.31507281,140.06916 8.8186708,140.06916 C8.3222688,140.06916 7.9404211,140.451008 7.9404211,140.94741 L7.9404211,143.505983 C7.9404211,144.002385 8.3222688,144.384233 8.8186708,144.384233 Z M18.1577351,143.505983 C18.1577351,143.582353 17.9133526,143.620538 18.1577351,143.658722 L18.1577351,143.505983 Z M17.1431444,144.384233 C17.6395464,144.384233 18.0213941,144.002385 18.0213941,143.505983 L18.0213941,140.94741 C18.0213941,140.489193 17.6395464,140.06916 17.1431444,140.06916 C16.6467424,140.06916 16.2648947,140.451008 16.2648947,140.94741 L16.2648947,143.505983 C16.3030795,144.002385 16.6849272,144.384233 17.1431444,144.384233 Z M19.510794,141.63493 L18.5943595,141.63493 L18.5943595,143.506177 C18.5943595,144.269872 17.9452184,144.880829 17.181523,144.880829 C16.4178276,144.880829 15.7686866,144.269872 15.7686866,143.506177 L15.7686866,141.63493 L10.2315073,141.63493 L10.2315073,143.506177 C10.2315073,144.269872 9.5823662,144.880829 8.8186708,144.880829 C8.05478158,144.880829 7.40583432,144.269872 7.40583432,143.506177 L7.40583432,141.63493 L6.48920602,141.63493 C5.64914108,141.63493 5,142.322255 5,143.124329 L5,154.732887 C5,155.534767 5.64914108,156.183908 6.48920602,156.183908 L19.510794,156.183908 C20.3126741,156.183908 21,155.534767 21,154.732887 L21,143.124329 C21,142.322255 20.3126741,141.63493 19.510794,141.63493 Z M19.7017178,154.732693 C19.7017178,154.847248 19.6253483,154.923617 19.510794,154.923617 L6.48920602,154.923617 C6.37465171,154.923617 6.29828217,154.847248 6.29828217,154.732693 L6.29828217,145.52997 L19.7017178,145.52997 L19.7017178,154.732693 Z M10.29341,149.028731 L15.70659,149.028731 C16.2048595,149.028731 16.6087867,149.432658 16.6087867,149.930928 C16.6087867,150.429197 16.2048595,150.833124 15.70659,150.833124 L10.29341,150.833124 C9.79514049,150.833124 9.39121327,150.429197 9.39121327,149.930928 C9.39121327,149.432658 9.79514049,149.028731 10.29341,149.028731 Z M13.9021967,147.224338 L13.9021967,152.637518 C13.9021967,153.135787 13.4982695,153.539714 13,153.539714 C12.5017305,153.539714 12.0978033,153.135787 12.0978033,152.637518 L12.0978033,147.224338 C12.0978033,146.726068 12.5017305,146.322141 13,146.322141 C13.4982695,146.322141 13.9021967,146.726068 13.9021967,147.224338 Z" id="我的一天"></path>
        </g>
    </g>
</svg>