<?xml version="1.0" encoding="UTF-8"?>
<svg width="16px" height="16px" viewBox="0 0 16 16" version="1.1" xmlns="http://www.w3.org/2000/svg" xmlns:xlink="http://www.w3.org/1999/xlink">
    <!-- Generator: Sketch 61.2 (89653) - https://sketch.com -->
    <title>我的任务@1x</title>
    <desc>Created with Sketch.</desc>
    <g id="雁行20200518" stroke="none" stroke-width="1" fill="none" fill-rule="evenodd">
        <g id="切图" transform="translate(-5.000000, -115.000000)" fill="#8091A0" fill-rule="nonzero">
            <g id="我的任务" transform="translate(5.000000, 115.000000)">
                <path d="M11.76,0 C13.9249562,-3.97696006e-16 15.68,1.75504378 15.68,3.92 L15.68,11.76 C15.68,13.9249562 13.9249562,15.68 11.76,15.68 L3.92,15.68 C1.75504378,15.68 2.6513067e-16,13.9249562 0,11.76 L0,3.92 C-2.6513067e-16,1.75504378 1.75504378,3.97696006e-16 3.92,0 L11.76,0 Z M4.56051677,8.7264534 C3.55229943,8.7264534 2.77690222,9.51072061 2.77690222,10.5307704 C2.77690222,11.5500752 3.55229943,12.3343251 4.56051677,12.3343251 C5.5687341,12.3343251 6.34413131,11.5500752 6.34413131,10.5307704 C6.34413131,9.43236319 5.49112162,8.7264534 4.56051677,8.7264534 Z M12.3565998,9.71842063 L8.06267611,9.71842063 C7.7977459,9.71713803 7.55238965,9.85774064 7.41955291,10.0869656 C7.28671617,10.3161905 7.28671617,10.598978 7.41955291,10.8282029 C7.55238965,11.0574278 7.7977459,11.1980305 8.06267611,11.1967479 L8.06267611,11.1967479 L12.3565998,11.1967479 C12.62153,11.1980305 12.8668863,11.0574278 12.999723,10.8282029 C13.1325598,10.598978 13.1325598,10.3161905 12.999723,10.0869656 C12.8668863,9.85774064 12.62153,9.71713803 12.3565998,9.71842063 L12.3565998,9.71842063 Z M6.33075973,3.67600164 C6.13477671,3.64842405 5.93896846,3.727497 5.81709405,3.88343448 L5.81709405,3.88343448 L4.27887701,5.84813904 L3.1265222,4.91088169 C2.88924975,4.71721429 2.5396471,4.75269428 2.34670732,4.99071167 C2.15376753,5.22872906 2.18999247,5.5776041 2.42726491,5.7712715 L2.42726491,5.7712715 L4.01721206,7.06481865 C4.13263785,7.15892694 4.28111092,7.20256309 4.42910045,7.18587242 C4.57708998,7.16918175 4.71211417,7.09357199 4.80367945,6.97611867 L4.80367945,6.97611867 L6.69004391,4.56569671 C6.81191833,4.40975923 6.84134328,4.20064784 6.76723467,4.01713276 C6.69312606,3.83361769 6.52674275,3.70357924 6.33075973,3.67600164 Z M12.3565998,4.52872683 L8.06267611,4.52872683 C7.79859528,4.52872683 7.55457454,4.66961226 7.42253412,4.89831297 C7.29049371,5.12701367 7.29049371,5.40878455 7.42253412,5.63748526 C7.55457454,5.86618596 7.79859528,6.00707139 8.06267611,6.00707139 L8.06267611,6.00707139 L12.3565998,6.00707139 C12.7648334,6.00707139 13.0957721,5.67613269 13.0957721,5.26789911 C13.0957721,4.85966553 12.7648334,4.52872683 12.3565998,4.52872683 L12.3565998,4.52872683 Z" id="形状结合"></path>
            </g>
        </g>
    </g>
</svg>