<?xml version="1.0" encoding="UTF-8"?>
<svg width="16px" height="17px" viewBox="0 0 16 17" version="1.1" xmlns="http://www.w3.org/2000/svg" xmlns:xlink="http://www.w3.org/1999/xlink">
    <!-- Generator: Sketch 61.2 (89653) - https://sketch.com -->
    <title>由我指派的@1x</title>
    <desc>Created with Sketch.</desc>
    <g id="雁行20200518" stroke="none" stroke-width="1" fill="none" fill-rule="evenodd">
        <g id="切图" transform="translate(-6.000000, -92.000000)" fill="#8091A0" fill-rule="nonzero">
            <path d="M16.1190493,104.638073 L16.1190493,108.091107 C14.6673612,108.090796 13.4476207,108.090414 13.4476207,108.090414 C13.4476207,108.090414 10.1403997,108.091489 7.93649485,108.091489 C6.83419853,108.091489 6.00824708,108.091131 6.00891114,108.090414 C6.00993095,108.089339 6.00891114,107.31574 6.00891114,107.31574 C6.00891114,107.31574 5.79216588,105.462118 7.49657716,104.217381 C9.28665249,102.910159 10.1932164,103.107189 11.2159438,102.280685 C11.567802,101.996664 11.9094859,101.539021 11.9332024,101.183631 C11.9663818,100.688726 11.5928704,100.492747 11.2159438,99.9569984 C10.6964572,99.2181768 9.35642649,97.2456051 9.35642649,97.2456051 L9.35642649,96.4712898 L9.72825405,96.4712898 C9.72825405,96.4712898 9.72756627,95.6348248 9.72825405,94.9219188 C9.72894183,94.2090127 9.78481795,93.8703424 10.4722649,93.1659395 C11.5190172,92.09375 12.8644552,92 13.3026653,92 C13.3954443,92 13.447597,92.0042516 13.447597,92.0042516 L16.7947803,92.0042516 C16.7947803,92.0042516 17.1662758,94.2089889 17.1669636,94.9218949 C17.1676514,95.634801 17.1669636,96.4712659 17.1669636,96.4712659 L17.5387912,96.4712659 L17.5387912,97.2455812 C17.5387912,97.2455812 16.1987605,99.2181529 15.6792739,99.9569745 C15.302371,100.492723 14.9288358,100.688702 14.9620152,101.183607 C14.9857317,101.538997 15.3274156,101.99664 15.6792739,102.280661 C16.1080922,102.627333 16.5165855,102.793933 16.978441,102.966982 C16.4581006,103.336967 16.1190493,103.947667 16.1190493,104.638073 Z M20.7779588,103.88535 C21.4528738,103.88535 22.0000004,104.432477 22.0000004,105.107392 L22.0000004,107.777959 C22.0000004,108.452874 21.4528738,109 20.7779588,109 L18.150613,109 C17.4756981,109 16.9285714,108.452874 16.9285714,107.777959 L16.9285714,105.107392 C16.9285714,104.432477 17.4756981,103.88535 18.150613,103.88535 L20.7779588,103.88535 Z M19.6616496,105 L19.6616496,105.755245 L18,105.755245 L18,107.251748 L19.6616496,107.251748 L19.6616496,108 L21.368709,106.5 L19.6616496,105 Z" id="由我指派的"></path>
        </g>
    </g>
</svg>