<?xml version="1.0" standalone="no"?><!DOCTYPE svg PUBLIC "-//W3C//DTD SVG 1.1//EN" "http://www.w3.org/Graphics/SVG/1.1/DTD/svg11.dtd"><svg t="1572248192693" class="icon" viewBox="0 0 1024 1024" version="1.1" xmlns="http://www.w3.org/2000/svg" p-id="1500" xmlns:xlink="http://www.w3.org/1999/xlink" width="200" height="200"><defs><style type="text/css"></style></defs><path d="M511.727616 70.719488c-245.869568 0-445.200384 197.889024-445.200384 441.98912 0 244.122624 199.329792 441.996288 445.200384 441.996288 245.884928 0 445.221888-197.873664 445.221888-441.996288 0-244.100096-199.33696-441.98912-445.221888-441.98912z m0 810.335232c-204.90752 0-371.011584-164.916224-371.011584-368.345088 0-203.421696 166.10304-368.330752 371.011584-368.330752 204.92288 0 371.02592 164.909056 371.02592 368.330752 0 203.428864-166.104064 368.345088-371.02592 368.345088z m56.450048-369.729536l151.98208-151.668736c15.903744-15.881216 15.903744-41.596928 0-57.470976-15.896576-15.889408-41.686016-15.889408-57.590784 0L510.584832 453.853184 358.600704 302.186496c-15.903744-15.889408-41.716736-15.889408-57.62048 0-15.903744 15.874048-15.903744 41.58976 0 57.470976l151.998464 151.682048-152.20736 151.890944c-15.903744 15.874048-15.903744 41.588736 0 57.478144 15.896576 15.874048 41.686016 15.874048 57.590784 0L510.572544 568.81152l152.213504 151.896064c15.896576 15.874048 41.716736 15.874048 57.613312 0 15.903744-15.889408 15.903744-41.604096 0-57.478144L568.177664 511.325184z" p-id="1501"></path></svg>