<?xml version="1.0" standalone="no"?><!DOCTYPE svg PUBLIC "-//W3C//DTD SVG 1.1//EN" "http://www.w3.org/Graphics/SVG/1.1/DTD/svg11.dtd"><svg t="1572248203122" class="icon" viewBox="0 0 1024 1024" version="1.1" xmlns="http://www.w3.org/2000/svg" p-id="1618" xmlns:xlink="http://www.w3.org/1999/xlink" width="200" height="200"><defs><style type="text/css"></style></defs><path d="M512 64c-249.051136 0-450.926592 200.561664-450.926592 447.992832S262.948864 960 512 960s450.926592-200.577024 450.926592-448.007168S761.051136 64 512 64z m0 821.325824c-207.872 0-376.356864-167.148544-376.356864-373.332992C135.643136 305.800192 304.128 138.658816 512 138.658816c207.849472 0 376.365056 167.141376 376.365056 373.332992 0 206.185472-168.515584 373.334016-376.365056 373.334016z m151.86432-511.899648L466.127872 570.233856l-122.7776-122.394624c-13.918208-13.835264-36.445184-13.835264-50.362368 0-13.89568 13.865984-13.89568 36.340736 0 50.205696l146.50368 146.011136a39.000064 39.000064 0 0 0 3.561472 4.09088c15.209472 15.157248 39.894016 15.157248 55.134208 0L718.99136 428.381184c15.232-15.179776 15.232-39.7824 0-54.955008-15.210496-15.164416-39.89504-15.164416-55.12704 0z" p-id="1619"></path></svg>