<?xml version="1.0" encoding="UTF-8"?>
<svg width="16px" height="16px" viewBox="0 0 16 16" version="1.1" xmlns="http://www.w3.org/2000/svg" xmlns:xlink="http://www.w3.org/1999/xlink">
    <!-- Generator: Sketch 61.2 (89653) - https://sketch.com -->
    <title>重要@1x</title>
    <desc>Created with Sketch.</desc>
    <g id="雁行20200518" stroke="none" stroke-width="1" fill="none" fill-rule="evenodd">
        <g id="切图" transform="translate(-6.000000, -26.000000)" fill="#8091A0" fill-rule="nonzero">
            <g id="重要" transform="translate(6.000000, 26.000000)">
                <path d="M8.53578712,0.412411995 L10.4448848,4.4557687 C10.5462028,4.66942017 10.7399553,4.8159589 10.963927,4.85127651 L15.231858,5.49927589 C15.7971252,5.58579323 16.0246503,6.31324951 15.6140329,6.72993862 L12.5263992,9.87810356 C12.3628659,10.0440778 12.2899905,10.2824331 12.3273166,10.5172658 L13.056117,14.9614295 C13.1521049,15.5511533 12.5601718,15.9996375 12.0553432,15.7224267 L8.23713238,13.6230527 C8.03627312,13.5118161 7.79629566,13.5118161 7.5954364,13.6230527 L3.77722561,15.7224267 C3.27062027,16.0013988 2.67868721,15.5511533 2.7764518,14.9614295 L3.50525219,10.5172658 C3.54435493,10.2824331 3.46970283,10.0440623 3.30616962,9.87810356 L0.218535919,6.72993862 C-0.190304833,6.31324951 0.0354436112,5.58579323 0.600710792,5.49927589 L4.86864178,4.85127651 C5.09261353,4.8177356 5.2881427,4.66942017 5.38768398,4.4557687 L7.29678165,0.412411995 C7.55097267,-0.124350815 8.28332645,-0.124350815 8.53574078,0.412411995 L8.53578712,0.412411995 Z" id="路径"></path>
            </g>
        </g>
    </g>
</svg>