<?xml version="1.0" encoding="UTF-8"?>
<svg width="26px" height="26px" viewBox="0 0 26 26" version="1.1" xmlns="http://www.w3.org/2000/svg" xmlns:xlink="http://www.w3.org/1999/xlink">
    <!-- Generator: Sketch 52.2 (67145) - http://www.bohemiancoding.com/sketch -->
    <title>1</title>
    <desc>Created with Sketch.</desc>
    <g id="切图" stroke="none" stroke-width="1" fill="none" fill-rule="evenodd">
        <g id="分组-6">
            <circle id="椭圆形-copy-7" fill="#EEEEEE" cx="13" cy="13" r="12"></circle>
            <path d="M13,25.5 C6.09644063,25.5 0.5,19.9035594 0.5,13 C0.5,6.09644063 6.09644063,0.5 13,0.5 C19.9035594,0.5 25.5,6.09644063 25.5,13 C25.5,19.9035594 19.9035594,25.5 13,25.5 Z M13,24.5 C19.3512746,24.5 24.5,19.3512746 24.5,13 C24.5,6.64872538 19.3512746,1.5 13,1.5 C6.64872538,1.5 1.5,6.64872538 1.5,13 C1.5,19.3512746 6.64872538,24.5 13,24.5 Z" id="椭圆形" fill="#CFCECE" fill-rule="nonzero"></path>
            <path d="M14.4671393,12.4998995 L17.696168,9.59388255 C18.1012773,9.22918143 18.1012773,8.63805573 17.696168,8.27345799 C17.2909438,7.90884734 16.6342367,7.90884734 16.228912,8.27345799 L13.0000126,11.1793716 L9.77108443,8.27345799 C9.36587457,7.90884734 8.70916751,7.90884734 8.30384278,8.27345799 C7.89871907,8.63805573 7.89871907,9.22927189 8.30384278,9.59388255 L11.5327566,12.4998866 L8.30384278,15.406007 C7.89871907,15.7706951 7.89871907,16.3618209 8.30384278,16.726522 C8.49821576,16.901867 8.76220668,17.0002837 9.03741339,16.9999994 C9.31262008,17.0002839 9.576611,16.9018674 9.77098394,16.726522 L12.9998977,13.8204146 L16.228912,16.7265091 C16.423285,16.9018541 16.6872759,17.0002708 16.9624826,16.9999865 C17.2376936,17.0002925 17.5016931,16.9018727 17.6960532,16.7265091 C18.1011769,16.3618209 18.1011769,15.7706952 17.6960532,15.4059941 L14.4671537,12.4998996 L14.4671393,12.4998995 Z" id="路径" fill="#FB7128"></path>
        </g>
    </g>
</svg>