<?xml version="1.0" encoding="UTF-8"?>
<svg width="26px" height="26px" viewBox="0 0 26 26" version="1.1" xmlns="http://www.w3.org/2000/svg" xmlns:xlink="http://www.w3.org/1999/xlink">
    <!-- Generator: Sketch 52.2 (67145) - http://www.bohemiancoding.com/sketch -->
    <title>6</title>
    <desc>Created with Sketch.</desc>
    <g id="切图" stroke="none" stroke-width="1" fill="none" fill-rule="evenodd">
        <circle id="椭圆形-copy-11" fill="#555555" cx="13" cy="13" r="12"></circle>
        <path d="M13,25.5 C6.09644063,25.5 0.5,19.9035594 0.5,13 C0.5,6.09644063 6.09644063,0.5 13,0.5 C19.9035594,0.5 25.5,6.09644063 25.5,13 C25.5,19.9035594 19.9035594,25.5 13,25.5 Z M13,24.5 C19.3512746,24.5 24.5,19.3512746 24.5,13 C24.5,6.64872538 19.3512746,1.5 13,1.5 C6.64872538,1.5 1.5,6.64872538 1.5,13 C1.5,19.3512746 6.64872538,24.5 13,24.5 Z" id="椭圆形-copy-6" fill="#555555" fill-rule="nonzero" transform="translate(13.000000, 13.000000) rotate(-270.000000) translate(-13.000000, -13.000000) "></path>
        <path d="M18.6807029,8.21629657 L11.5152127,15.3817867 L8.31876315,12.1853371 C8.00859599,11.8872143 7.51548029,11.8969778 7.21735743,12.2071445 C6.92755121,12.5086586 6.92754715,12.985213 7.2173475,13.2867353 L10.4130068,16.4831848 L11.5152028,17.585391 L12.6173988,16.4839954 L19.782889,9.31850528 C20.08087,9.00820133 20.0708795,8.51508968 19.7605761,8.2171097 C19.4591288,7.92763378 18.9829564,7.92762973 18.681502,8.21709976 L18.6807029,8.21629657 Z" id="路径" fill="#FFFFFF"></path>
    </g>
</svg>