<?xml version="1.0" standalone="no"?><!DOCTYPE svg PUBLIC "-//W3C//DTD SVG 1.1//EN" "http://www.w3.org/Graphics/SVG/1.1/DTD/svg11.dtd"><svg t="1568942522079" class="icon" viewBox="0 0 1024 1024" version="1.1" xmlns="http://www.w3.org/2000/svg" p-id="5300" xmlns:xlink="http://www.w3.org/1999/xlink" width="200" height="200"><defs><style type="text/css"></style></defs><path d="M837.818182 93.090909c51.2 0 93.090909 41.890909 93.090909 93.090909v651.636364c0 51.2-41.890909 93.090909-93.090909 93.090909H186.181818c-51.2 0-93.090909-41.890909-93.090909-93.090909V186.181818c0-51.2 41.890909-93.090909 93.090909-93.090909h651.636364m0-93.090909H186.181818C83.781818 0 0 83.781818 0 186.181818v651.636364c0 102.4 83.781818 186.181818 186.181818 186.181818h651.636364c102.4 0 186.181818-83.781818 186.181818-186.181818V186.181818c0-102.4-83.781818-186.181818-186.181818-186.181818z" fill="#1D2633" p-id="5301"></path><path d="M460.8 721.454545l230.4-162.90909c32.581818-23.272727 32.581818-72.145455 0-95.418182l-230.4-162.909091c-39.563636-27.927273-93.090909 0-93.090909 48.872727v325.818182c0 46.545455 53.527273 74.472727 93.090909 46.545454z" fill="#176AFD" p-id="5302"></path></svg>